<mxfile host="app.diagrams.net" modified="2020-11-13T21:11:21.107Z" agent="5.0 (Macintosh; Intel Mac OS X 10_14_6) AppleWebKit/537.36 (KHTML, like Gecko) Chrome/86.0.4240.193 Safari/537.36" etag="xXT1AUG7fvh54P7VomhQ" version="13.9.7" type="github">
  <diagram id="Ft7qeFgLXCu1x_vOJ6nW" name="Page-1">
    <mxGraphModel dx="229" dy="928" grid="1" gridSize="10" guides="1" tooltips="1" connect="1" arrows="1" fold="1" page="1" pageScale="1" pageWidth="827" pageHeight="1169" math="0" shadow="0">
      <root>
        <mxCell id="0" />
        <mxCell id="1" parent="0" />
        <mxCell id="amPI0YJ77dZX4J3gURaR-2" value="" style="shape=image;verticalLabelPosition=bottom;labelBackgroundColor=#ffffff;verticalAlign=top;aspect=fixed;imageAspect=0;image=data:image/jpeg,/9j/4AAQSkZJRgABAQAAAQABAAD/4Q0cRXhpZgAASUkqAAgAAAAEABIBAwABAAAAAQAAADEBAgAHAAAAPgAAABICAwACAAAAAgACAGmHBAABAAAARgAAAJ4AAABQaWNhc2EAAAQAAJAHAAQAAAAwMjIwAqAEAAEAAAA4BAAAA6AEAAEAAAAkCQAAIKQCACEAAAB8AAAAAAAAADQ5NDgxZGNkZDI4NDM2NzUwMDAwMDAwMDAwMDAwMDAwAAAGAAMBAwABAAAABgAAABoBBQABAAAA7AAAABsBBQABAAAA9AAAACgBAwABAAAAAgAAAAECBAABAAAA/AAAAAICBAABAAAAGAwAAAAAAABIAAAAAQAAAEgAAAABAAAA/9j/4AAQSkZJRgABAQAAAQABAAD/2wBDAAUDBAQEAwUEBAQFBQUGBwwIBwcHBw8LCwkMEQ8SEhEPERETFhwXExQaFRERGCEYGh0dHx8fExciJCIeJBweHx7/2wBDAQUFBQcGBw4ICA4eFBEUHh4eHh4eHh4eHh4eHh4eHh4eHh4eHh4eHh4eHh4eHh4eHh4eHh4eHh4eHh4eHh4eHh7/wAARCACgAFADASIAAhEBAxEB/8QAHAABAQEAAgMBAAAAAAAAAAAAAAYHAQUCAwQI/8QAQRAAAQIEAwMHCgQEBwEAAAAAAQIDAAQFEQYSIRMxURQWIkFTYZQHFzJSVVZxkZLRFWKB0iNCk6EkJzNEZOHwsf/EABwBAQACAgMBAAAAAAAAAAAAAAACAwQFAQYHCP/EADoRAAEBBQIKCAMJAAAAAAAAAAEAAgMEEZEFFQYTFBYhMUFRUtESMlRhgZKh4QdTcRciM0JicrHw8f/aAAwDAQACEQMRAD8A7eYamnWlckWErSMyiUFQCeJ4dWsfOlqoa55tv/UuMrduj6pv/wDYvWcC4nZbebbVJpQ+jI4nbaKAII6uIvHr83uIuEn/AF/+o9GvWCJ0vRVeU3dFgCTs0US3IVhxTC23Vrb2hK7M3zp9UWHxjsEU+oEA8imSFXKbNK1toerjFhK4PxZKISGVyKAi5H8Qde++kfY3QsdBDWzm5LK2khFnEmwJuf5YxG7RhsaHjL1nRMdYy07xqnoEjs0y1rMYg32JLtp2dJBn0RPRuOsDSZjbIT1KDbk5xwkNykwsgZjlbJsOO6Akp0gqEnMEJAUSGlaA7jui3awxjVk5m35JBtlJC0i400PR13D5R5ow7jhLa20zEkEuJCFjOOkBuvp3xcbYcbHjFfZUiy29rDdPdQcxIz6ULQJV9pzLoVsq0J0BI+MfHM03EKGi6QlpttCQVrll2z6XKjuAPAcd8aS/h/Hbzq3XZuVUtds6toNbbv5Y9T+GMavyK5J5+TWy5bMC4Lndre3cIjezgym8Y8yldrxmcmGvFkc1miWaiHFKVOtqSW0gJ2QFljeb8Dw6o90i3NtNWnH0vLJ0UlGUWi083uIeEl/X/wCo+iYwVi2YZQy/Msutt+ghc0SE/DTvMX3rBAiT0VVF3xZBm7NFon43Rva9P8Sj7w/G6N7Xp/iUfeMB5t1Hs2PrEObdR7Nj6xHi17w/EKr6TzCge1Gg5rb8QzlMqdIfkWMRSMqp4BJcD6FdG+o39YjqZin0x1EoOfjqVS7pcJbmW2w4LABJCVbhb+8ZNzbqPZsfWIc26j2bH1iLhbzoO8WGxLXs/lWDAaCDPREVo+g5rXGpWntKSpGO3kqS0G7iaa11vexJF+rdHgunUpbxWrHk5lLRbyiooA1Vmvv39XcIybm3UezY+sQ5t1Hs2PrEVXw44xVRzEge1eg5rWqnI0eb2JZxs7KKbdbcUW59Jz5UhOUgq3G1z3mO1oE3R6XTkyasSS86UqKtq/NoKjfq37oxDm3UezY+sQ5t1Hs2PrEcXu44xVcZhwPajQc1v343Rva9P8Sj7w/G6N7Xp/iUfeMB5t1Hs2PrEObdR7Nj6xC94fiFVxmFA9qNBzV3yf8AOPlHHJ/zj5REc8Kt6kr9B+8cjF9Sy9JmXKuojMB8rx0t3gjhAT99tkDw5Lpp+K9ibC15VbFkDe4kQ2A7RPyiMbxlUE/7aX1SpKiM2tzfj/68ePPGpWIMvKkE3GitBmJsNe+36RmjAy1pfjig8FUfixZA309l2mLsV0LDBbbqU0tUw4MyWGW86yniRewHxjxwli2g4mUtqnzS0TDYzKYfbyLy8RrYj4GMcxVO/wCYzFZrcryiSMww440BdLrKCnMgX01AULd8e+gVSVX5T013C1GVSKey6pxEqZhTobQUkFJUeN93V1bo2zOCByUMNPjjd8hKe6UtXj39y2WeoxWWAjEyn4c+6WvQt/2I7RMCwBvcT8ojOedQ5OpkSsrYkkE5iRdITx7r/qY9a8X1NSUjYyoKQRfIes34xqTgZa2x+KD+6lrftZsj9VFb7Adon5Rzyf8AOPlESvGNSLaUIYl0kbyQTfUnj3x488Kr2cr9B+8Y8RgfbjJGJeBoS0zkNNCpsfFixvzlrwZ/xS+ZXrGGZXrGLDmXiv3ZqnhjDmXiv3ZqnhjHvmUQ/CPRdWzbh9zPlCj8yvWMMyvWMV/MvFfu1U/DGOeZeK/dmqeGMMoh+EeiZtw+5nyhRjyEPIyPIS4n1VpBH944ZQhhGRlCWk8EJAH9otOZeK/dmqeGMOZeK/dmqeGMMoh+Eeilm856PR0S/aFH5lesYZlesYsOZeK/dmqeGMOZeK/dmqeGMMoh+Eeijm3D7mfKFH5lesYZlesYsOZeK/dmqeGMOZeK/dmqeGMMoh+EeiZtw+5nyhfobHEpjKa/DhhGq02n5JgqnTOMFzaNZdEosDY364nqNS/K4lppFVxNRFq2a0urYlgCVE9FQui2g6rRW4omUy6JUGcflip0m7Sb5+iRlOo61A/pEVOVdbsgqYFZxFLZG0uFHJLO2SoAgJK9b9fx1PVHVVv12M7TvKi460qVxDRmm0vtLcCpfMVNAHaI9DQkgEHvO7SK2gtVRiQCKxOMzc1nUS403kTlvoLd3/uMQrNWcbuwa7XnOUzBaQsyYJbz3tY5tAniQd0eKJp11luWbxNiG6UpO2VL9IhKtyrEC6hbqB1/SCLTNIaRnElOTQmX5ZWIMQOKZmyFFyUSnRxJypBKtUpvvte9rx75R6Yl2jWOcFYnpdL6G+ThjM4LKsTlBsQrKbm269hBFoFxxhpxjMxUyxOSocxDX3EObWVCRKnVeqtoo5tLbgbcBHbzdRbk6KmqOVKrqbu16LKllQHRNhmy3Ubk2PDhBFa6QjL5mfc6KxiPESAhDjagmUN+jdRWQVa8LjT4RoNAfExSJZzaPuENhKlvJyrURoSQOswRdVjbNmppTU6jJAzSU/4RN89yNF6jojr3xMVZwszMxS04gxRtmGUHbMIBSraKCswUo6kDTfoL740uFoIs2emQl1CTWsUEpmCbBPpFvePSF0q3W4x9rAdrASy3W6zT9vL5UOFBQcxXfTpGytba/pF5CCKcl8O1Fla1c5ag5mUDlc6QTYEaa6XvHpVhWoCVXLt4rq4zIKdopwlxNze4N9/Vu+UVMIIphjDNSadWs4rqiwp1twJVYhIT/KO49fHdHMthmoNBAVimrOJShSSFKHSuoG5O+4sQOAMU0IIpaXwvU23y4rFVTcGcLCFE2FkqFvS3ag/oI72kSbkjKBh2bdmlBRO0dN1WPVH2QgiQhCCJCEIIkIQgiQhCCJCEIIkIQgiQhCCJCEIIkIQgiQhCCJCOHFpbQpa1BKUi5UTYAcYj3vKbgpp1TZrIUUm10S7ikn4EJsYg08ZY6xkqnj52667QH1KsYRGedHBPtdXhXf2w86OCfa6vCu/tiOPdcQqq8thvmCoVnCIzzo4J9rr8K7+2HnQwT7WX4V39sModcQqmWw3zBUKzhEZ50cE+11eFd/bDzo4J9rq8K7+2GPdcQqmWw3zBUKzhEc15TsEuOJQKyElRtdcu4lI+JKbCK9taHG0uNrStCgFJUk3BB3EGJMvGW+qZqx2+dveo0D9Cvjr0gmq0WdpqnS0JphbWdO9OYWvGEveSTFrbqkIFPdSDYLExYKHGxFxH6EhFT6GYfSLSx4uz3MUQW9YX5580+MOykPFD7Q80+L+ykPFD7Ru2I01hdFmU0FyUbqRSOTqmkktBVx6QGtrXj65MTAlWRNFtT+zTtS2OiVW1t3Xim73XesO44bvr7LFeY2OCXNpJUlwLFrGZGguTpp+a0cM4Fxw26lxUnS15W9mByrLpe/UI2Kvipqo80KMphNQLZ5OXhdAX1XjjDwqiaNKitKYXUA2OUFkWQVd0TyJjeVbdLniNfZYQfJRjAknZSGv/ACh9oeafGHZSHih9o/Qju0LStkUhdjlzDS/VePlooqSaWwKwuVXPZf46pYENlVz6IOtt2+IXe671VccN319lg7Xklxct1KFintpJsVmYuE99gLxumHaemkUKSpgeLwlWENZ1b1WFrx2EIucwzDkksrLhLPcwpJY1lf/Z/+ICKElDQ19QUk9GSUxFAAEBAAACGAAAAAACEAAAbW50clJHQiBYWVogAAAAAAAAAAAAAAAAYWNzcAAAAAAAAAAAAAAAAAAAAAAAAAAAAAAAAAAAAAEAAPbWAAEAAAAA0y0AAAAAAAAAAAAAAAAAAAAAAAAAAAAAAAAAAAAAAAAAAAAAAAAAAAAAAAAAAAAAAAAAAAAJZGVzYwAAAPAAAAB0clhZWgAAAWQAAAAUZ1hZWgAAAXgAAAAUYlhZWgAAAYwAAAAUclRSQwAAAaAAAAAoZ1RSQwAAAaAAAAAoYlRSQwAAAaAAAAAod3RwdAAAAcgAAAAUY3BydAAAAdwAAAA8bWx1YwAAAAAAAAABAAAADGVuVVMAAABYAAAAHABzAFIARwBCAAAAAAAAAAAAAAAAAAAAAAAAAAAAAAAAAAAAAAAAAAAAAAAAAAAAAAAAAAAAAAAAAAAAAAAAAAAAAAAAAAAAAAAAAAAAAAAAAAAAAAAAAABYWVogAAAAAAAAb6MAADj2AAADkVhZWiAAAAAAAABilAAAt4UAABjcWFlaIAAAAAAAACShAAAPhQAAttRwYXJhAAAAAAAEAAAAAmZmAADypwAADVkAABPQAAAKWwAAAAAAAAAAWFlaIAAAAAAAAPbWAAEAAAAA0y1tbHVjAAAAAAAAAAEAAAAMZW5VUwAAACAAAAAcAEcAbwBvAGcAbABlACAASQBuAGMALgAgADIAMAAxADb/2wCEAAgGBgcGEBUYFxYZGBgYGBgYGBgVFx0YGBcYGBoaGBcaHRcdHyIYIBsZIRcbHyIdGh4qJx8nJSEnKSsfLyUjLR0BCQoKDhITDxETEi8XHRsnKC0tJygyKC4nLi8lMSkmLy0qJSUdJiUtLTAnLjAtLTAxJy0lLictJSctLS0lLS0lNf/AABEICSQEOAMBIgACEQEDEQH/xAAcAAEAAgMBAQEAAAAAAAAAAAAABgcCBAUBAwj/xABiEAACAQIEAgQICAgJCgQEAgsAAQIDEQQFBhIhMQcTQVEWIlJhcZGh0hQVFzKBkrHRI0JTVHKTosEzNDVVYnN0grIINkODlLPC0+HwGCSjw0Rj4uPxJVZFlaS01CZlhIXE/8QAGwEBAAMBAQEBAAAAAAAAAAAAAAEDBAIFBgf/xAA4EQEAAgEBBwEFCAEEAwEBAQAAAQIDEQQSExQhUVIxBRVBU2IiYXGBkaHh8DIjQrHBMzTRBkMk/9oADAMBAAIRAxEAPwDogA+yfDAAAAAAAAAAAAAAAAAAAAAAAAAAAAAAAAAAAAAAAAAAAAAAAAAAAAAAAAAAAAAAAAAAAAAAAAAAAAAAAAAAAAAAAAAAAAAAAAAAAAAAAAAAAAAAAAAAAAAAAAAAAAAAAAAAAAAAAAAAAAAAAAAAAAAAAAAAAAAAAAAAAAAAAAAAAAAAAAAAAAAAAAAAAAAAAAAAAAAAAAAAAAAAAAAAAAAAAAAAAAAAAAAAAAcjxNMD0AAAeb4943x7zPzWH5kfrDTymf5U/pL0Hm+PeN8e8c1h+ZH6wnk8/wAqf0l6DxNM9Lq3raNYnWGe9LVnS0aSAA6cgAAAAAAAAAAAAAAAAAAAAAAAAAAAAAAAAAAAAAAAAAAAAAAAAAAAAAAAAAAAAAAAAAAAAAAAAAAAAAAAAAAAAAAAAAAAAAAAAAAAAAAAAAAAAAAAAAAAAAAAAAAAAAAABpvNcAqihvTm+Cind8r8bcvpNDP8nxmb7FGpsir7ufG9rcFZPt5siOVYKOXZlGCd9smrvt8RmXJmtW0Ru9Jn1a8WClq2ne6xGuiyTj4zU+U4GTi53a5qKbt9K4G9mMMTUpTUOE2mot8LN8L38xH8h0jSwsZOtGMpN8O1Jfe2d5LX1iKx+bjFXHpM2n8od3L82wOaJ9XJO3NcmvofE3Su8ppRwmZ7afzVKS/u2d16EyR6i1BicmnBRhu3drvx42srdpxjz/ZmbfCdHeTZ/tRWvxjV3qtWnRTbaSXFt8Ejiy1jksXbe/Ttlb7D753lNTPKUY79iupPhe/DgnxXI59TTuS5fh2pqN1F3m+Er9648PMvtJyWya9IiI7yjHTFp9qZme0JDhsTQxkVKMlJPtRo4/UGW5ZPbOVna9trfB+hEd6P+utV8nxfRu439lr/AEGlnEsLiMztUtsW1O7srKF/tOJz23K2iNJmVldnrv3rPWIjVJfDDI/yn7EvuO4mpIjOEwWksdK0FBvuvJN+i74/QSZJRLsVrTrrMT+CjNWkabsTH4vThajzXE5Yo7bcb3urndODnlKFetQTV05O6Jy67s6Iw6b0axq4PhVmfevUPCrM+9eomHxVl/5OH1UczCVsnxlTYqST484JcjNOPJGn22qMuOddMfo4XhVmfevUd/TmbYnMlLdbha1lY6PxTl/5OH1Uc7JaVOhXrpKyTVkd1petq621cXvjtW2ldNHdNHN8XUwVGUlzXK5vHK1F/Fp/R9povPSWXHH2qox4VZn3r1DwqzPvXqJVhMqwHVx/Bx+auaXcaWLrZPg6mx0ld247Fbj5zHOPJERM3boyY5mYjG4XhVmfevUdDJdQY3GVlGVrO/ZYkHxTl/5OH1UcuvhMPhcZS2xUbqV7cDrcyV0mbaueJjtExFNOiQGpmk5U6FRrg1CVn9BtmpmkJVKFRLi3CVl9Brt6SxU9YRzK8kr5jSjPrpq9+HF8m13+Y+mAoV8vxqhvlJbW+L83dc+eV53Xy6lGHUzdr8eK5tvu859MBXrZhjVPZKK2tcfRbnZGKN37Gnr0b7b329fTr2c3UObV8VVlFNqMXay7WubZzsFmGJwEk4t+ddj8zR0dQ5TXwtWUkm4yd7rsb5pnOwWX4nHySim+99i87Znvv7892mm5uR2WRh6yxEIyX4yT9Z9T5YeisPCMV+KkvUfU9Sf8Z/B5Eab0ad2mdHH5JjMspwnOy33tG/jK3fH/ALt22PnlWKeAqxqbN+zxmny7k72drNqz77GxP4y1NVlL50rXfFRUY3skruySv+8/GIrWYt6zaZ6R/wBv3W1rRNPStIjrM/8ADWVDL58qkk/6VO0fpcZSl6os+OIw1TDOz9Kad1Jd6a4NfZyZu1NP5lSlCLirz3bbSi09qvLinbh5z44J9fGcH5Mpxfkygtz+tGLT73tfYRNZ9Jruz+f/AGmL1/yrffj4+np36Q+FDtPsfGh2n2P07/8AP/8Ap4Pz/wCZfk//AOl/93P+X/EAAPdfPAAAAAAAAAAAAAAAAAAAAAAAAAAAAAAAAAAAAAAAAAAAAAAAAAAAAAAAAAAAAEYzfB5nllV16Lck/n03x4LuX3cV6CvJbSNdNVmOkWnTXRxKWNzTA4nE1IXlCFR9ZG/OLlKzt5tvNcvRcm2W5nhs1gpQfpXbF9zRD9P57hMJLFVJ8N8oyUebd3N2XovxZuaZy3FVK0q9uqhK9qa/GT5cO7t9PJJGPBeemk6669OzdtFIne1jTTTr3TAAHoPNADGc40023ZJXbfJJcwMj4YrFQwsJy57IuTV+PBN2+mxy/j/D5hSxDpN3pwb3Wsr7ZNNdv4vaiM6ZqTq4fGtttundt8W/FqGa+eNYiOuuv7NdNnnSZt00mOn4u9pbPMVncqrlZKOzakuV91+PN8kSMhPR7/p/9X/xk2J2e0zSJlztVYi9oiNEKxmKx+KxtamsT1MYqLV0muMY3XFrvvzNvT+Z42WJqUZVVWjGO5VElwfDhw4dvezWWS4bNMxxHWQbjti4vilfbBc1Y+2QYR5HjKtFJ7JJThJr9nd9L593nM1d/eifhvT/AHRrvNN2Y+O7Hb/lLQa2Ox+Gy6DlN2X2vuS7yNalzd4vAwnTcoqc9r7Hbx007d7j3mzJlisT9zDjw2tMdp+Lr6gzl5RR3xSk3JRXHhdpu/n5H009ja2YYaE5cZPdfhblJrl9BD8d/JND+sf21SUaR/iVL+//AI5FGPJNr/do0ZcVa4/v3tNXbPnXr0sNFyk0kubfBH0InqPI82zivFKS6r08IvtbXNt9n7jRktMRrEayzYqVtOkzpD45jrynB2pQ3f0pcF9EefraNNZvq/FcYxkl5qat+0mfarmWTaX8WlHrKi4OT7H28f3RPgs81XjuMINLs20+Hrlc8+15met517VelWlYj7NI072HqHU+X8akLr+lTsvXGyOzlWtMDjmlNdXLzu8X9PZ9PrOQtUZ/lr/C07r+lBx9TXD2H3ngMn1XFypfg6q4uPJP0pcLf0l9JNb2/wBttfulzfHSY+1TT74TZcQcHS2DzTBUnGq+CdoK92kufHu7kd49ClpmImY0ebesRMxE6vJSUVdkXrajx2YzcMNT3W4OpL5v0cl6+fcfbWOJqxpQpx51ZqP0cL+ttHay/A0ctpxhFcEvW+1vzsqtNrWmsTpEeq6sVrWLTGsz6I/8C1jL/TU15rL/AJZ78B1h+Xp+pf8ALJHiORHcfkPw6o5dbON7cIvhwVji+PT0mZ/NZjyxPrER+Tz4DrD8vT9S/wCWPgOsPy9P1L/lnGyN1qUsRUUpThTjJR3O+5rj+72mGHy+pj8PLEOtJT8aSs7Jbb8O/jbs8xn3ukev6tM06z6fp3dz4DrD8vT9S/5ZjKersv4vZWXaopX+iyi/UmbeRYyrj8PCUubTT89m1f6bHTjOUTRWkTETFp/VmtkmJmJrHT7mvk2eYbOYu3iyXzoPmvvXnOoRHPaccpxFHER4KUttRLtv2+lq/wBKTJcW47TOsT6wpy0iNLR6SAAuUAAAAAAAAAAAAAAAAAAAEAp/yv8A33/gZPyIQyTMFmPW7fE3N7t0eW23K9/YZdorM8PSPi17NaI4ms6dJS8jGp9RvB/gqfGpLg7cdt/+J9ncd/H/AAjqp7Pn7Xt5c+znw9ZAMJkOpcFU3xp+Nx4ylCTu+b4vn5yNovaNK1ievxTs2Ok62tMdPhKTaX0/8Ux3T/hJc/6K7vT3khIjhZ6yc47ktu5bv4P5t+PJ35dxu6jw+e1p0+odo9tmlxvzd+a8xNLRFelJ6IyUm1+t46u9UrUqPNpel2Ixm2j6eZSnUjUe6XFKyceXDj5+86OoMkedUkrpTjxT7G7cV6GR6nQ1hhodUl4trJ3jdLzSvf8AeiM069LU1j7nWCun2q3iJ+9uaHzWeIjKk0vEV00rXV7O9u3z9p0K+QZJj6zk3uk3xip82uHFc+BjpjT0sljJyac5Wvbkkuz7zn5tpzMcPXdbDvi2248E03z58Gn3M4iLRSu9Xedzas5L7t93VzdX5RhcolTnTW27fBN8HGzTXcTrAV5YmlTk+coRk/S0mQ2eR59n9SLr2jGPo5dtkr8X3snFOEaaSXJKy9COsFZ3r200iXG0WjdpWbb0x8WRxM3/AIxh/wBJnbODn850KlGe1tRk27K5fl9GfD/k7xwOWYf6s+nhLR/J1Pqnz8IMJu3dVO/fs4+s4tes6dfRZSl416esO+cXKv4ziP0l9h54S0fydT6phkM54ipWntaUmrXViZvEzXREUmK31d45Wov4tP6PtOqczP6c6mHmkrvhy9JZk/xsrx/5VbuE/g4fox+w42pv9D/WI8w+oqdOEU6dS6SXze5HtTUGEq2vSm7crwvYqtes101XVpaLa6O+cXH/AMco/oyPPCWj+TqfVNWnjZZniqbUJJRTu5K3MXvWdIifjCKY7RrMx8JSU+GMrvC05y57Yt29Cufc082/gKv6EvsZdaekqKx1hxKGeZ1iYqUaKafJq/Zw7zZy/O8bXrqnUgotpvtvyuNPY/B0cNBSnBNbrpySfzm+TZrwr0sRmKcWpLZzTuuT7UZYmfsTva66NkxGt43NNNX0xWeZh106dOmpbfTfs4+0+NfPs3wSvKioq9r8fvPcFiKGGx1fdJRVucml5PeZaoxuExFBKM4ye5cIyTfJ9xEzOlp3upFY1rXc6SkdOfWJPvSZkfPD/Mj6F9h9DVP+M/gyR/lH4vcvTqdZFc5QaXncZRnb0tQdu92Pcvx0cGqiavvio/tJ/uNOE5U2mnZp3TXNNcjcfwPGcW+rl23TdN+dbU5Rb7rNd21cF+Lxadek6TGr93mkadY1rOk9O8OnDUVGlOLVOyjOrJJNLhUjtS5dhy8tW1yl2RhO788ouEfXKSPFg8PHnVhb+iptv0JxSv6WjHEYmm47YK0U78fnSfJOXZwvwS5ced231bJadLXn09PT/pxTFSImuOsxr0mZ19Ovf8Xzodp9j40O0+x+mf8A57/08H5/8y/Kf/03/u5/y/4gAB7r54AAAAAAAAAAAAAAAAAAAAAAAAAAAAAAAAAAAAAAAAAAAAAAAAAAAAAAAAAAA4+d5/QyhW+dUfzYLn5m/N9p2DQp5NgqdaVW15vtbvbhbguwryb2mlVmPd11sgGAynG5rOtNWVSnNScGlZtuTas+HBx5PgTPI9Q08z8SS2VY/Og+F7c2vu5ojOGzevl2IxUacHKpUqtR7laU7t+v7yQ5Jp6WEl1tWW+s+3sjdWsvPbh3diMWzxMTG7+b0NpmJid78kgAOFqfG5phYRVGDk5XvKMXJxta3Bd93xZuvbdiZedSk2mIdbFYqOFhOXPZFyavx4K9vpsRbLs8xWd0MW5WSjTe1JcrxnfjzfJGvp7BZhGhi98JqU4WW9O8ntn38XzRjprLsbQw+LUoSi5QtFSi05PbPkn6UY7ZL2mnTSJiW+uKlYv11mJj/pq6W/i2M/q/+GoNLfxbGf1f/DUNrTWW42hh8WpQlFyhaKlFpye2fJP0oaby3G0MPilKEouULRUotOT2z5X9KKKVn/T6fCf+2i9q/wCr1+Mf9Pp0e/6f/V/8ZNiIaGwOLwfXb4SjfZbcmr23X5+lEvNuzRMUq8/a5icltA5GoM5eUUN8UpNyUVx4Xabv5+Rw9VYrPK05U6cJ9XZeNCLe66TfjLsXKy+k+GNy7GzyyjDZJyU23Ha9yV6nZz7UcZM0/brWPSPVZjwR9i1p9Z9GOeY2tmGW0Zyd5OpxsrcusS4fQa+O/kmh/WP7aptYzLsbLLKMFCTkptuKi9yV6nZz7UMZluNlllGChLcptuO17kr1Ozn2ozWi0706f7f/AI11msbsRP8Aun/tq47+SaH9Y/tqkp0j/EqX9/8AxyOBjMtxsssowUJblNtxUXuSvU7OfaiR6YoVcNhKcZJxa3XTVmrzk1w+kuwRO/HT/bCjaLROOev+6f8At1zxpSPQb3motLJco0yp1ZJzs/FTV9t+SXZf+k//AMeV4SajzVt0oWivJju9cnwuTurSp14tNJp8GnyZGdTY3MMkhBUYqNNcG0k7Pus+CT7+1+3Flx7saxOkfd6t+HJvTpMb1vv9HMoatx+ElsxFO6fO8dsrejk19B3sFprLqFZVoXStdRXBJtc++1ny/wDwM8qp1M4owliKcdyd43XZ2O3Zfu5PgY4rMt2No005K3Wb1xSfiXj5nyfoFa6RFrTr6ady9tZmtY3fXXT0d0HC0pi8fi6CdTj5M73cldrj23Vufb9vdNVLb0RLHeu7Mx2RfWKlQ6ir2U6ib+mz/wCEk1OpCqk07ppNPvT5HzxeEo46EoSV4yVn/wB+YitKec6WvHY61H8Vr50V7bfSrdzRVM7lptp0lfWN+sViesJXiOX0nA1JmHxfh5W+dLxY+l839CufF65yt84VPVH3jTxWptO41xc6dRuLvHlwfDsU7Pl2leTLWYnSzvFhvExM1dfJMvWX0Ixa42vL0vn6uRF85yfCqvClS3KU3eSveMV329vP7Tt+G2T+RU9S941aWpdOUKkpqlU3y5y5/bOy5dhVfhzFa6+i+kZYm1t2eqR4bD08JCMY8opJfQfXmcHw2yfyKnqXvB6ueJ4UKE5S/pLgvO7X+1F8ZcfwlnnDk9Zg1a1ieoor50pp+hcVf2v1MlhH8jyPEUputWe6rLs7ILl6L24cOCJAd4on7VpjTVXmtGlaxOugAC9nAAAAAAAAAAAAAAAAAAAAAAAAAAAAAAAAAAAAAHlkLI9BGidXlke8gAAAJQ8shZHoI0Tq8sj2yQANQwq04VotPimrNeZmYJQ5HgxlPkftS+8++EyXAYGW6MbPle7fP0s6AOIx17LJyXn/AHObichy7FycpRu3zd2vsZ8lpnKV+J+1L7zrgjh18TiX8nkYqKPQDvRxq+fURHURPoDyvc2xfJh7Hv3b/ny+fURHURPoB7m2H5MHv32h8+WMIKBkAehhw0x1ilK7sR8HmZ8+TLacmS29afiAAuUgAAAAAAAAAAAAAAAAAAAAAAAAAAAAAAAAAAAAAAAAAAAAAAAAAAAAAAAAAAAADVoZdg8LOU4xSlN3k+1/d9BtAERER6JmZn1kABKAAAAAAAAAAAAAAAAAAAA1cAAa1XA4etUhNrxoXs/M1Zp+bibIImIlMTMejXwOCpZfTjCN7Rva/F8W3+82ABEaEzr1AASgABGidZAANDWQADQ1AASgAAAAAAAAAAAAAAAAAAAAAAAAAAAAAAAAAAAAAAAAAAAAAAAAAAAAAAAAAAAAAAAAAAAAAAAAAAAAAAAAAAAAAAAAAAAAAAAAAAAAAAAAAAAAAAAAAAAAAAAAAAAAAAAAAAAAAAAAAAAAAAAAAAAAAAAAAAAAAAAAAAAAAAAAAAAAAAAAAAAAAAAAAAAAAAAAAAAAAAAAAAADmTXS+lo1EqlRfoxf2sozZq441lfgwWyW3aoW00eFi6syrAxoOSiotWs1w+grojZ88ZK70Ro62nZ5xW3ZnUABoZgAAAAAAAAAAAAAAAAAAAAAB0ciwVLMcRCEr2le9uD4Rb/cTTwHyjyp/WX3GTNtdMc7steDZL5Im1dFdAsXwHyjyp/WX3DwHyjyp/WX3FPvHF2lf7ty94V0CxfAfKPKn9ZfccjUWmsBlVHfBybulxaa4/Qd027HaYrGvVxfYMtYm06dERPrh8PVxUlGKvJ8kvWfIl2hMA6lSVR8oravS+fqX2l+fLuUtbsz7Pi4l617otXw9fDO0ouL7pKxjSpVKztFNt8kldv6CR6jo4/Oa8pQhKUI+JFpXXi/O9tzSwGW5xgasJqlPxWn818V2r6VwOK7RE01mYidPRZbZ5i8xETNdfVzcVgsTgmlOLi2rpPhwPgWLrPLZ46jGcYtyi+SXG0uD4c+dvaQZZTmUv8ARVPqS+452faq3rrM6SnadltS+7Eaw0wfStQq4aTjJNNc0+DXaTbLsFlGosLsjFQnDu5p99+bUvP+4szZ4pFbaaxPxcYdnm82rE6THwQ+OW42dPeoPZxe63DhwZqlj4TA1YZc6fDd+Eje6tffJczVxGX5TpvDNVEpzmuXbJ+btSXeZa7d1mNNZ10jRqtsExETrpGms6oZgsuxeYtqEdzSu+XL6T416FXDScZKzXNPsJ3obBOjSnUt892Xojf97fqI5i8gzvF1JSdJ+NJvmu1+ksptUTkvWZiIhXfZJjHjtETMy4YN3G5TjsuSc4OKbsr2/cTbTEMLSwW+UU9u9vgm7JtlmbaYpWLR9rWVeDZpvaaT9nSNeqvAWhlGY5XnTlsp/NtdyhFLjy+wgee7K+KqKC/Gskl2qy4L0o4w7VN7WrNN3R3n2SKVraL72stLCYPEY6W2EXJ2vZdyMcRhq+FlaUXF9zVmWHkGWUNN0XOo0pO25v8AFXZH/vtOXrHIp1H10PGTS3pcbWXCS81ufdzK6bbE5N3/AG/CfvWX2GYx73+74x9yFgHZ0mlLGUv73+CRtyX3a2t2hhx03rVr6ay4x9oYXEVIuSi3GPN24L6SR67io14fof8AEzq6OzGlj6MqM7NxTsn+NB/de3qMttqtw65Iq102WvFtimyAmVOnUqvgm/Qrm/neVzyitKHZzi++L5erkdbQiviZf1b/AMUS7JniMc5I6qMeCZyRjnp1RqcJ03Zpp9z4GJ3dYP8A85U/u/4UfHTtbLKFVusk47Xa8XLjddiT7Lkxlnhxfd16a6QThjiTj3tNJ01lyAT/AOMNGd0f1cvdOjl+C07mkXKFODSdn4luNr9qXeZLbdMdZxTDXXYN6dIyxKrwT9Y/Rr/Fj+rl7p0cwwencripVKcEm7LxL8efYn3Cdu0mInHPUj2frEzGWOirwT/4w0Z3R/Vy90imf1cvrVr0bbLLktvHt4NIvxbRNp0nHNfxZ82zRSNYyRb8HLNnFZdjMF8+Eo+drh6+RtafwDzHEQj2X3S9C4v18vpJVrN4nG7aVOLlbx5bVe3NR/eRl2jdyUp+rrFs29jvft6fegRtVsuxuHhulCUY3tdq3H6T7/EWa/kp/VZPo4Wvm+B2zi1PbbxlZ7o8n9NkznPtcU3NJiYmerrZ9km+/rExMR0VgDbWVZi/9FU+pL7j54jBYrCW3wlG/Lcmr258/Sa4yVnpFmOcdo6zD4GzhcBi8dfZFyta9le1+X2Ei0lLKcVGVKcFulyb/GXcn2Nc+HM72m8neTVa8bppqDj328fmu/7fsxZts3d+NOsemvxbsGxb+5OusT66fBW84yg2nzXBmdChUxMlGKu27JecnmXZJg8u6yvWad3JrtUU2/XJ9xzdMYehmGNlUhHbCF2l3N8F6+Lt2E85ExeYj/GPX4a9kclMTjiZ/wAp9Pjp3RvG5di8uaU4uLfK/b6jVJjqrK81zPENxptxilFO649rfPvZwK+n81w0XKVNpLi3dcPaW4doratZtaNZVZtmtW1orWdI+Lmm1Ry3G4mDlGEpRTteKvx+jiY4HBVswqRhFXbfq72/Mi0KeFwWWUFS3qHitXulLjzfHtK9q2rh7sRGsy72XZOJvTM6RH/KpwTbMtH5bg6E6inN2i2ruNn3fi9pjkFfTtWFOEoJ1Hwd4Xu2+HGw5ys1m1azOieStFopa0V1QsFk5lDTOUtKdOKbV1aF/sR8swwOTVsHOpTpx+Y3F7bPu9JXG367v2J0n4rLez5je/1ImY+CuwbmVU8HVqxVVtQb4tey77u9kh1RpiODXWUl4n40Vx2+debv7vs1Xz1ratJ6a/oyU2e9qWvHXT9USNnCZfi8dfZFyta9uy/L7D64TJsxx0d0IOS5XViY6LyvG5e6u+DjdRtfttuv9pxtG01pW0xMTMfBZs2y2vasTExE/FA6tKpQk01Zrg0+wwJHnGQZriMRUlGm2nJtPhxRy8VkuY4KO6cHFd7t2lmPPS0V+1Gsq8mC9Zt9mdIaB9qGExGKvti5WV3ZXsj4kp0nnyy17Jq0JPhK3zW+99z7+z7Jz3tWszWNZRgx1taItOkIsCc55lGWZfXp1W4qDl48Hxv51Ht86Pt8aaO8mH6p+6Zuc1is1xzbVp5LSbRbJFdEABP/AI00d5MP1T902sBU0vmc9sIQbte3V24L0o5nbbRGs4ph3Gw1mYiMsSrYHd1bhqGExLUYqK2x4RVkSDQdOE6VS6T8f9yLr7Tu44yaeqjHss2yzi100+KBAsXwjf5rV+p/0PrqTEYbL+onKN0pu6SV+MJLt4dpnjbbaxHD9fvaJ2Guk2jJ6fcrUFhYHUuU4+pGCpO8nZXjG32m3nOb5XksoxlTu2r+LGPBcu2xM7bfWK8LqRsNJrNuL0j7lZAlWdajy3MaMoQpuMnazaiuTT7Hcipsw5LWjWa7rDmx1rOlbbwAC5SAAAAAAAAAAAAAAAAAAAAAAAAAAAAAAAAAAAAAAAAAAAAAAB2NM4Whi8RFS5c7d5xkvu1tbs7x03rVr3drS2mOttUqLh+LF9vnZN69elhItt2SPpGKiuBXms8yxlSpsacYrl/S8589Xe2jJ1nR9Lbc2bH0jWWjqLUFTN5WXCC5Lv8AOcMA+gx460iKxD5vJkteZtaeoACxWAAAAAAAAAAAAAAAAAAAAAABYkdK6faXH9szZ89cem9GurVg2e+TXdnTRXYLG8FNP9/7Y8FNP9/7Zn5/F4z+jT7uy+UfqrkFjeCmn+/9si2p8uwWW1IqnycbvjfjcsxbXS9orESqzbHkpWbTaJcOMZTaS4t8Ei18qy74owyj27W5P+k1d+rkQvRWGw+IxF5c4rdFeflf6L/92J3Tx1LHwqbeUXKN+9pcfa7GL2hlmbRSPSPVv9m4oitrzPWfRDdM55mCiqVOnGTV5Nylbg3xft7DdzHV+YZZUcJUo3VuUnbir8OBGNP434Biacuy+1+iXD2cyQ6+wVnTqLt8R/bH953fFj41a2r0tH7qsebJwbWrfrWf2/R8/D/E/k4/WZ1nnWc9QqvVQcXHd89ppd/Fd3Hgyv8AC4eeLnGK5yaXrZPdYYmOXYWNOPDdaK/Rjz/cvpI2jBjrbHStes/j6fq62faMtqZb2v0rH3ev6IZi8yWOxHWyVryi2lx4Ky7e+xM8u1JlWJmo06E9z4eLCC4dt3u5ekgOHdFTjuvtur2527bE8nneTZHFQoRU5StZR43b5bpc36OfoLNspH2KxWZnTp2/NVsWSdb2m0RGvXv+STTo0qVNpQTXkJLj5rOy9ZHp55l2Kqqm6E978VKUI8PbyXPgbOKzPFZPhN1VrrXut2pttuK77W4GhS1nllSCnKH4RNK1rtJ82pd3/wCB5mPFbrMV3vh0etlzU6RvbvTXSezoZriamm8LHq0nt2x8bu7+HafLS+e4vOus3qKUdttqfbe/NvuPMViY6iwFRpeU0u3xJXj9LSRp6SXxfg6lR9rlL6Iq32pne5Xh31j7e9orm9uLTdn7G7qj2os+xGaScGoqMJys1e7tdK/EkWS/yXP9Gr+8gLbZPsl/kuf6NX956G144pjx1iPjDztkyTfJktM/CX1yCj8UYHfwUp8Vu4K8rRhd93I2si0zh8r8aT31H+M+zvt9/P0GrgKlPVGCcHwlFW4dkl81+h/ecDCrVVNqUVN+LtV0mtvDsfDsXHmY9y1uLG/uzr11/Zs36V4U7m9GnTT93W1DlmfZ1KyilBco7lx878/2HQ05h85y9bKkU4djUk3HzedfZ9nunK+e1ZS69NKy23SXHt5HNzHF6rjVmoJ7Nz2+LHl2ecj7U/6WtdI+P8uvsxMZtLTM/D+DUWmsudOVWElC3FpcYyfm7m3w4eoj+kv45S/vf4JHwx2DzfCwe9SjFyu0/muTv2cu8++kv45S/vf4JHoVrMYckTfe6T/w821onNjmKbnWHQ17/Dw/Q/4mcDLcdUy2rGa7HxXeu1fSjv69/h4fof8AEyKlmy1icNYn4wr2u0xmvMesSkGptQUs7cVGFlG9pP5zv5uxf98Dd0DC9ab7oW9bX3ESJzoDDuMas+9qK+i7f2or2mlceG1YWbLe2TPW0+qP6rluxlX0x/wxOXhqarTin2yS9bsbOcV/hOIqy75yt6E7L2I+OB/hYfpR+1GrHExjr90MuSYnJae8pzPRGU0uc5r0yiv+E7OS5Zg8rpyjTk5JttttPjZLmku44Ov/AODpfpP7De0zg6kcCkuEpqTV/PdRf2Hh335x1vbJrrPo97HuVy2pXHppHq1YaNyVNfhJfWj9x2M8y3BZnCMaktqTurNK7tbtT7yvsDlWJoYynTkrNTT9KTu2vNZMkWv4VnGk7Pat132XdrfYy2+O3ExV4uuvxU0y1jHltwtNPh3fdaIymcW1Ob9Eov8A4SvywND/AMVqfpy/wxITllGjiK0IydouST+l/vNmy3tE5otbe3f5Y9qpSYwTWu7vJxojKnhqbqNcZ8vNFfe/3HOr51ictx1ZRipubhFJu3YrLu7SYU8Zh4VFSjzUN1l+KrpJfSVtqWUoYyo1zUk16kZNn/1cmSbR6w2bT/pY8UVn0lKsz1Fm2UKLnSh417Wk3a3fwt2nN8P8T+Tj9ZnWz2Mc6wCmuaSn6LfOX0K5XJdsuDFes71OsSo2vaM1LRu36TGsen/xYmWZ/m2bxlKFKHiu3GTV3z4cLesiuos5r5rJKUFF03JNJ343V/NwsS7K0shy/c+e1z+mXzV9iK4lJzd32nWyY6TfJaK9Ino52zJeKY6zbWbRrKYZVqPJ8LTpxdKTmkldQi25eZ3uTXCbJrds2OXFppKXmva/2kQyjH6dymhGpb8I1xT8ad+3zJefhc7WU5li8RCdapaNNpOC7Uluu36eBg2ims2mKzHX4/H8HobLk0isWtE9Ph8PxfDM88wGWvbUoTte68SDi33rxrX9pv4ShTwdOc4Q2ua37WkrWirJpej7ThYTWWBxW6NaKsm3F2upJO64dkv++B1sl1DRzyU0o2tGL487u+5ehcDm+K9Y/wAJjT17OseWlrf5xOvp3cfI9WZhmleEHGCTvdpO6sm+/wAxjrDPsRh5SopR2ygrt3vxv57d3YfHSeWyw+Mq91O8fW+HrSZwtSYlYrFVX/S2/VW39xux4cc5tIjpEa/mwZM+WMP2rdZmY/JI9CVsAlKNrVX2vtj5vR2r/tdjFZRk+ZYh7nuqRs3HdyStbxe7j7SIaK/ja/RkTijl2Ep4qdRS8eUUnG64LxeNufYuZn2uN3JeYtPWGnYp38VImsTpJjMPl+eJ03K+x+NGMrWfZexx8m0vTympKrUaSi5bVfhFceLffb1fZ2Mvy7B4SrVlGd5Td5K6e13fYuK59pzsioVcxVbrfHgqkowjJJpWk235+aS7rcCit5it4i3Tp+6+1KzakzTW3XT8u7XxOT0NXPrVUaSvBLb2Rb48+29zPP6mFybBdUpXbSil2vjxdvWdDIMpq5bGopKPjTcoqPFJO1lyXIiM9EZrFN3h9Z+6X4rUm0RbJpWsxpDPlretZmuPW1onWUaJlpvVFGjTdOs+EV4rfG68n7iGkq01pmhm1Gcp3XG0Wnytzfc73t9B6m1xj3Pt/wAvK2Ocu/8AY9f2fLD6sllm6NKC2bm4qV7q/of/AH5yTaY1BiM7dTdGK27bbb9t+/0EdqaEzG72yg1fg22nbs4Wf2kh0rkGKyXrN7i92221t8r35pd55+0Ts00mazrZ6Wy81F6xaNK/s5OYa1xuFqzioQajKUVe/Y7d509U1XXwG583sfraZx8fovM8TVnJOFpTlJXbvZttfikkzbKMRjsIqSa3JQ5t28W1+y/Z3FdpwxOCaz+KysZ7Rni0fDoqwsPHr/8AKl/V0/tiQrNcqr5PNRm021u8VtqzbXal3E1x/wDJS/q6f2xNu1Wi04JidYmzBsdZrG0RMaTFZRzJcgraii26jWy0VdOXC3C3FWS7jqfJ/P8ALL6n/wBRs6A/g6v6S+wiOJzLHKcvwk/nP8d9/pI1zWyZK0vuxX7nW7grjx3vTem33pI+j+aX8Mvqf/Uc/RH8a/uS/cSHRVetiMPNyk5Pe+Mm3+LHvI9oj+Nf3JfuK+Jkmu0VvbXdWcPHFtmtSum9LzWv8bf6MTu6B/gqn6f7kcLWv8bf6MTuZPp7McLTTp4jYppSa6tPi13tjLNeBjrM6a6f3pBii3MZLRXXSZ/vVs/DNV/kaf1v/qPlra7p0b/lFf1M3firPvzv/wBKP3nPzbIsxqw3VMRvUPGS6tLivOmZMc03qTrEadtf+4bMkX3LxuzOvfT/AKl1MyxuXZG6f4O7k7R2Rje/DtbXO58sdm+FpTgqtCSc3ti5KnLtXdJuy3GjrJXnhv0/3xPNXv8AD4T9N/4oEUxxPD1+Ov7JyZLRxdP9u7+7n67w9Gg6W2KV1PkreSRAmnSBzo+if/CQs9jYv/FT83i7dH+rf8gAGxiAAAAAAAAAAAAAAAAAABlTpyqtJK7fJI7EtK5tGO7Zw7r8fUbWiqdGpiPG7FePpLKPL2vbbY7btYevsew1yUm1pUlKMoOz5kvybRbxUVKo2k+SXM+Gb0cOsxiuFnKO7034lhwSSRXte13itN3pvRq72PYqTbJvdd2dEKzPQ0IRvTbuuyXG5Cp05U20+adrF2FdZjRw3xklw23V/Tb7yNi2u870W66Rq627Y6RuTXprOjnYbTGa4qO5R4efg/UczEYerhZOMlZrsZdEUkiCa9p0Yyg1853v6Ow72bbrXvuzHqr2r2fXHTeifRDQAes8cAAAAAAAAAAAAAD6Ua1TDyUk7NcUfMETCYnRZ+nNRU82jaXCa5rv85uZzk9DOIWfPsfcVTh8RVwslKLs0Wbp7UFPN4WfCa5rv86PC2rZrY54lPT/AIfQbJtVcteHk9f+Vb4/AV8um4yXFe01SytZYTD1aDk+cbWf7itT1Nlz8SuunV5O17Pwr7sT0AAamQAAAAAAAAAAAAAAAAAAAAAASTTumaOd05Sc3G0tvBLuT/edjwAw35WXqRjvtmGszWZ6w249izWiLRHSUDBPPADDflZepDwAw35WXqRxz+Dv+yz3ftHb90DBPPADDflZepDwAw35SXqQ5/B3/ZHu/P2/dCMPia2EleLs7NXXc1Zk90d/E5/pT+xEBxFNUZyXc2vU7E+0d/E5/pT+xHG36bkT3mHfs/XiTH3Sr0sjFL49y6/OWxS/vQ5+tpoi+F0fmeLhGScLSSau3ezV+47ODyfU+ApdXCVNK7d73fHmuKt7DjacmO25NbxrWVmy48leJFqTMWhzdD4H4RXc3ygv2pcF7Lnw1jj/AIZiWlygtq9POX3fQTPT+T1cmoNcHN3b48L8kr93Be0idTRWc1W23C7bb8Z839Bxjz45y3va2kR0h3k2fJXDTHWusz1lH8HWjh6kJNXUZRbXek02i0cmxeGzSG9U9qvwckru3arFb5lk+KyqahKzbV1tu+1ru8x39PLU9CyjF7O6rwS9H4y+jgWbZWt6xeLR+qrYb3peaTWf0dPFaywCm4ulNtOyvFfY3fibGqJYahg5NxUXJRSVle742+jidXELAw2SqqCkrWcrcJeZuzONqnI8bnG1wmmlyhy4vtv9/I87FbHvY/8AbEer08tcm5k678z6Q5mg8ek50n2+Mvsl+72m9q7EUsqw0aUOG7gl3RXF+vgvpZs5fl2B0lRc5u8reNLv7oxX/d+b83tOtl2sqDT4SXZ+NB9jXen7S216zk4sVnc1VUpaMXCm0b8xOn4dlaFg5FCU8smkrtxq2S5vmQ/NslxmTytJcOyS5P8A6+Zk10xiPgmA3Wvt6yVu+zbNu23i2Olqzr1hh2Ck1yXrbp0loaGwmLw8qrlGUU1H5yau+Pf3G3hM4zbG4ipTpqCjCUlucZO1m0vxlxZpy11UxNoxgoN8N05cI37WrdnpOtUlT09Q201vqzu1bi5y5uT8y/6GLLF96ZvTrb0j/tuxWpuxWl+lfWf+n0yfM8xr1qlOqoJwSfiX7fS2fGnmOeY2rVUFTUYScU5J3bXJcJe00NG4XHwqVZVIyW5LjNNXd23zORPOa2T46rJcYubUo96v9q7BGCJtetYidIj8CdomKY7WmYiZn8XwzzUGY49OnUjGO2V2kmmmvS33mGkv45S/vf4JEg1XQy3MKEayklJrxf6a7rc7r2dvm5GiqVCeJTbs4puK721Z+pX4fcba3rwMmld3pPT72C1LcfHrbe6x1+51NWZXjM0xUFCN/EV32LxnzZv4DTmWZFBzqNOVuMpcEvQv+2bGeaqwmVXivHn3LkvS/wB3P0EQjh871XO7u13vhCPo/wCl33mXHGW1Kxa25SP3bMs4q5LTWvEvPw+EONSw88RNRh4zbsrdv/fsLUy/K5Zdhuri0pbX439J9vouaWAyrLdLU3OTW63Gb5+iK/cuLIzX1lip4hTXzFw2d8e1v+l9nrv3ltfP0pH2a/u4w1ps/XJP2rfCPhDgY3B18BNxmrNf93XmYwP8LD9KP2osXNMtweqaCnBrda8ZfbF/98CvcPRqYevGMlZqaTXnTRtwbRGStonpMesMOfZpx3rMdaz6SsLUuVVc3dGK5bm5Pujbj9Pcamps9eSKnClZNWbXYorgl9P7je1JnVbJFTkkmm2mn28OHHzFbYnF1cZUc5cW3d35ej0dhg2TBa8Vm3+MavQ2zaK45vFf8p01laWW4qlmsI1XDbZOzlzV/nWfdw59pzsBqPBZ3UqUpJWbahflOP39q/6HAzLVzxeHVOMdjatK3JJdkfM/ZyOPh8mzSoozjCTXNOP2k02ONLTedzt9zm+2zrSKRv8Af71i5TlEcmp1Ip3Tk5LvScUrP0WKqTcSzNOUsfRoVHWvulKUvG522xX0cisi7YNd7NrOvp1U+0NN3DpG769Ew0ViKuLxNSUnduN2/pRxtT/xur6V9iOroL+Hn+h+9HuZadxucYmtKG2ynbxm1x2xfc+8RelM95mdI0hE0vfBjiI1nWXU0RiY4rDzpvjtb4f0ZcftuRLD5ROpi1RfZOz/AEVxb+lIkGWad1DlDk4Omtys7tv6eXM6uQ5HjsNWnVrNSm0kmvb2JdiRTOatJzWraJi3p+K+MN7xgrakxNfWfho0dd45U4QpLt8Z+hcF639hBCb57pjNs2rymtluCjeT4JfR28WcDNNN47KIbp7bXtwbbu7+bzGrY8mKtK03ussu248tr3vuzpH/AElmmMywuYRjBUvmQipSaVrpW9PE2c41Lg8pn1cqcnwXJLb6FfnbzEOySlqChK9GMknzurQfr4eriWDTpyxFH/zEYeftj6ePL/vieftGOlL6/wCUdonq9HZsl749I+zMfGY6PjgcXg8bRdXq9kbN+MlyXb6CB6czJYHFKXKMm4v0SfD1OxOc1wbznD7aVSKi+7iml2XXJeg5WntKxy19ZVtdcUuyNvxn5/s9PKcOTHFMu98emiM2PJa+Hd9K9dfg7eZVcPk9KrVS4vi/PKyjH9xU0pObu+bLNwuocszuc6T5Pgr8prtt/wB+f0RLP9LYjK25RvKn39sfT5vOX7DaKTNb9LTp6s/tCs3iL0nWsa+j3RS/82v0ZE4o5RTpYqdbdxlHbt7vm+6RTQeDlOpOp2RjtXpdn7EvabGS46lWzKs7pXUoq757XFcPojc42uJtfLMT6R1WbHMVx4otH+VuiRZdk9PAVas1K7qO7Xdxb/eaOZYnG0aDjQpzUtz42XDi25X5Pd+8w0/hq9LFYqTi0nJWbVk+MuT7foOJi9bZnQqTio07KTS4PknbyiimK9r9PtaaNGTNStOv2NdfRJdNSzSVOXXX3buG63Ky7vPci0pawl5fqiSjTGc4nOKUpTUU1Ky2ppWsn2t95FfDvNfJp/Vl7xZhrk38mmOJn/j8FOa+Pcxa5JiOv5/ijnUVd+23jX22897W9ZYubVI6ewKiudlBel/Of2sjGmI08fjN83FO8p25Xk3wST7r3+g39YVcRmeIjSgnLartLvl3+hW4vvNWed/JjpPSI6yybPG5jyXjrNukd3HjqnO+XWP6sfuJ9l2IxGBwynXnx5ybstt3ZLh9H0nJyPS1DKV1lVpyXH+jDz37X5+w4Gp9RPNpbY/wcX9Z9/o7l/2qr1pmtFMddIj1ldjvfDWb5LazPpCS6rr5vgkqlKbUeUkknbulxTdux/QRHwrzv8q/qx+47emdUU1FUqz4coyfK3ky+8+mcaJjVvKi0r8dj5fQ/wBz9hOLcxzw8tI+6dEZeJkjiYrz98a+iIY3H4rMZbpy3O1r2S4c+z0k6x/8lL+rp/bEgeLweIwMts4uL7mTzH/yUv6un9sS7at3XZ9303lOyb3/APo3vXdlr6CqQhTqXaXjLn6D7VNGZTUbfWS4tv50e3+6V8Du2yW3rXrk3dVdNspuVpbHvaLXyrLsHktOUYyum3Lxmr3sl2W7iF6I/jX9yX7jl4bJMyxkVKEHKL7Vbs4El0jkmY4OvunBxSi1xtzdjPalcdM2uTemWmmS2S+DTHuxVzda/wAbf6MTqaMwVHG06jmt1mkrt8OH/U5WtJRli5eaMV7L/vJPpmFPJsHvn4qk97v2J2UfWrDNbTBjiPWdDDXXaMsz6Rqw0ep4nDVE2+M5Lj2cF9hy8w0tWy2nKo67ko2e3a1fj+kyXU8HQjTqdXb8JeXB8LyVrr02uQ7KNM42jWXXUnKHfvVk+xtJ3a8xmxZOuS29u/d01n9WrLi6Y6bu99/XSP0dKliFqurSkoSjClJyblazfCyX0ridDOsojm0oTjLxqUvm34OzTa8z4GOa4rM6EdlCi+7d4qSX9GN/t9pGcswGpssqbowk7vxk2rS9PHn5xSuv2otFdPSJkvbT7NqzfX1mIfLVua/GM4LZKDhuTUrdtu70EcJ7qmhisypRaoWkk3KUnFOCXNXvx7/+vKBHq7FaJpERGmjyNtraMkzM66gANjEAAAAAAAAAAAAAAAAAAD64bEVcJJSi7NciRy1zmDjayv5X/TkRcFOTDjvpNq66LsefJTWK201fSriKtaTk3xbvcnWS6yw8oqNXxWvxuxkBBzm2emSIiY9HeDab45mYn1WNmes8DQj+De9vlbkivquIq1puTfFu9z5AjBs1MeunxTtG1ZMsxvfBJsNrbMMPCzSl53zOHj8wxGZTcpO7+w1Qd0wY6zMxXSVd8+S0RW1tYAAXKQAAAAAAAAAAAAAAAA+uHxNbCyUotprtR8gRMRPSUxMx1hvY7N8dmKSnJtLsNEAitYiNIjRNrTadZnUAB05AAAAAAAAAAAAAAAAAAAAAH2o4vE4dWjOUV/Rk19h9PjLH/lJ/Xf3mqDiaVn4O4vaPi2vjLH/lJ/Xf3j4yx/5Sf1395qgjh08TiW8m18ZY/wDKT+u/vHxlj/yk/rv7zVA4dPE4lvJ625EjyTU9LKqDpuDd23dPvViNgjJireNLR0dYstqTvVnq69DU+cYaKjGpZRSSW2PBLguy59PC3PPyv7MPdOIDnl8XhH6OuYy+c/q7fhbnn5X9mHujwtzz8r+zD3TiAcvi8I/Q5nN8yf1dCrnWPr1Y1JSvKNrOyXBO9uCXedzGa7xlVWhBQ878Z/uX2kTBFtmxTu619E12nLXe0t6vvi8bicdK85OT87+xcl9B1Mi1JicndneUPJvyfZbuOIDu2Klq7s16OKZr1tvRbq6GbZxis4neT4dkVyX/AF85rYPGV8BNSg7Nf92fmPgCYx1iN2I6InJabb0z1dfO9Q4nO9qasorkuTl2v7l2G3gdSwweFlR2Ntqa3X8q/Z5rkdBXOz492K6dIWRtOSLTbXrPQN3L8zrYCrCfztnBJvss1bzLiaQLrViY0mFNbzExMSl1bX2KkntpxT722/ZwInUqTqttu7bbb72+ZiCvFgx013Y0W5c+TJpvW10euUn9B7TqTpNNNprk1waMQW6KdZetuRIcm1ZXymk4bd3kXfze+/m7SOgryYqXjdtGsLMeW9J3qzpLczHNMZmkt05X7l2L0I0wDutYiNIjRxa0zOszrLo5fneOyyEowlZS9j713M0qVZ05qXNpp8e2zufMERjr9qdPVM5LfZjX09Hcz3Uk88jFOCjtd+d7+xHDAIx460jdrGkJyZLXnetOshIsq1dicrpKCgmlezbfa7/vI6BkxVvGlo1Tiy3pOtZ0SLMNZZhjoONoxTVna97el/cR0AjHipSNKxoZMt7zradXY07nMMkqSk4uV424O3amfSvqnHxqTlTk4RnLda0XxslzafccMHM7Pjm02musy6jaMkVisW0iHb8Lc8/K/sw90eFueflf2Ye6cQDl8XhH6HM5vmT+rt+Fueflf2Ye6auOz3MsyjtnPcr3taK4/Ql3nOBMYMcTrFIj8kTnyzGk3mfzSqhrfFYejGKgnJK26T593D0ec4mYZ1j80+fNteSuEfUv3mgDmmzYqzMxXq6vtOW0RWbdG7luaYrKpqUHbvXZLzNHRz3VGJzjxV4sO6/F+l/uOCDqcGObRea9YcxnyRWaRbpL2MnF3XBncxOq8fisP1b5vg59rj3Pz+ftOEDq+KltJmNdHNMt6xMROmruZZqbE5ZRlTSXFPa+Ti32+c5WCxUsFUjNc4tP027PpPgCIw0je6f5eqZzXnd6/wCPoleI13jasWowjFvtu3b9xFW3I8BGPDSmu7GicufJfTetqkWn9SwySnKLg5Xle6duxL9xHQCaYq1m1ojrPqi+W1orWZ6V9A6eUZ3iMqq7+Mk+Ek385envXYcwHV6VtExMa6uaXtWYmJ00dfOdQ4zOXx8WHZFcvp72cgAUpWsaVjSC+S1p1tOsh2Mq1LmGU8E90fJl2eh819hxwL462jS0appktWdazo++NxlXH1JTlzk7+juXoR2q+qHXwio9XbxYx3bvJtxtbtt3keBxbDSd3WP8fR1XPeN7Sf8AL1AAXKXdyfVGJyem4KKkrt8W+F7cPYblXXeZTXCMF57N/vIsDNbZcUzNpr1aq7XmiIrFtIfSvWqYmTlJ3bd232nVzHUeKzKhCnLsfFr8a3zeHm+7kcYFs4qTu6x6eimMt43tJ9fVvYHOMwy35k2l3c16nwOtHXGbx8h+mL/cyNg4vs+K3Waw7ptGWvSLzCTeHWa91P6r9498Os17qf1X7xGAccnh8FnOZ/OXex2rsyx9OUGopS4Pane30t8zggF2PFSkaVjRRky3vOtp1AAWKwAAAAAAAAAAAAAAAAAAAAAAAAAAAAAAAAAAAAAAAAAAAAAAAAAAAAAAAAAAAAAAAAAAAAAAAAAAAAAAAAAAAAAAAAAAAAAAAAAAAAAAAAAAAAAAAAAAAAAAAAAAAAAAAAAAAAAAAAAAAAAAAAAAAAAAAAAAAAAAAAAAAAAAAAAAAAAAAAAAAAAAAAAAAAAAAAAAAAAAAAAAAAAAAAAAAAAAAAAAAAAAAAAAAAAAAAAAAAAAAAAAAAAAAAAAAAAAAAAAAAAAAAAAAAAAAAAAAAAAAAAAAAAAAAAAAAAAAAAAAAAAAAAAAAAAAAAAAAAAAAAAAAAAAAAAAAAAAAAAAAAAAAAAAAAAAAAAAAAAAAAAAAAAAAAAAAAAAAAAAAAAAAAAAAAAAAAAAAAAAE18EMv8qfrj7o8EMv8AKn64+6SAHyHOZ/OX03K4vBH/AAQy/wAqfrj7o8EMv8qfrj7pIAOcz+cnK4vBH/BDL/Kn64+6PBDL/Kn64+6SADnM/nJyuLwR/wAEMv8AKn64+6PBDL/Kn64+6SADnM/nJyuLwR/wQy/yp+uPujwQy/yp+uPukgA5zP5ycri8Ef8ABDL/ACp+uPujwQy/yp+uPukgA5zP5ycri8Ef8EMv8qfrj7o8EMv8qfrj7pIAOcz+cnK4vBH/AAQy/wAqfrj7o8EMv8qfrj7pIAOcz+cnK4vBH/BDL/Kn64+6PBDL/Kn64+6SADnM/nJyuLwR/wAEMv8AKn64+6PBDL/Kn64+6SADnM/nJyuLwR/wQy/yp+uPujwQy/yp+uPukgA5zP5ycri8Ef8ABDL/ACp+uPujwQy/yp+uPukgA5zP5ycri8Ef8EMv8qfrj7o8EMv8qfrj7pIAOcz+cnK4vBH/AAQy/wAqfrj7o8EMv8qfrj7pIAOcz+cnK4vBH/BDL/Kn64+6PBDL/Kn64+6SADnM/nJyuLwR/wAEMv8AKn64+6PBDL/Kn64+6SADnM/nJyuLwR/wQy/yp+uPujwQy/yp+uPukgA5zP5ycri8Ef8ABDL/ACp+uPujwQy/yp+uPukgA5zP5ycri8Ef8EMv8qfrj7o8EMv8qfrj7pIAOcz+cnK4vBH/AAQy/wAqfrj7o8EMv8qfrj7pIAOcz+cnK4vBH/BDL/Kn64+6PBDL/Kn64+6SADnM/nJyuLwR/wAEMv8AKn64+6PBDL/Kn64+6SADnM/nJyuLwR/wQy/yp+uPujwQy/yp+uPukgA5zP5ycri8Ef8ABDL/ACp+uPujwQy/yp+uPukgA5zP5ycri8Ef8EMv8qfrj7o8EMv8qfrj7pIAOcz+cnK4vBH/AAQy/wAqfrj7o8EMv8qfrj7pIAOcz+cnK4vBH/BDL/Kn64+6PBDL/Kn64+6SADnM/nJyuLwR/wAEMv8AKn64+6PBDL/Kn64+6SADnM/nJyuLwR/wQy/yp+uPujwQy/yp+uPukgA5zP5ycri8Ef8ABDL/ACp+uPujwQy/yp+uPukgA5zP5ycri8Ef8EMv8qfrj7o8EMv8qfrj7pIAOcz+cnK4vBH/AAQy/wAqfrj7o8EMv8qfrj7pIAOcz+cnK4vBH/BDL/Kn64+6PBDL/Kn64+6SADnM/nJyuLwR/wAEMv8AKn64+6PBDL/Kn64+6SADnM/nJyuLwR/wQy/yp+uPujwQy/yp+uPukgA5zP5ycri8Ef8ABDL/ACp+uPujwQy/yp+uPukgA5zP5ycri8Ef8EMv8qfrj7o8EMv8qfrj7pIAOcz+cnK4vBH/AAQy/wAqfrj7o8EMv8qfrj7pIAOcz+cnK4vBH/BDL/Kn64+6PBDL/Kn64+6SADnM/nJyuLwR/wAEMv8AKn64+6PBDL/Kn64+6SADnM/nJyuLwR/wQy/yp+uPujwQy/yp+uPukgA5zP5ycri8Ef8ABDL/ACp+uPujwQy/yp+uPukgA5zP5ycri8Ef8EMv8qfrj7o8EMv8qfrj7pIAOcz+cnK4vBH/AAQy/wAqfrj7o8EMv8qfrj7pIAOcz+cnK4vBH/BDL/Kn64+6PBDL/Kn64+6SADnM/nJyuLwR/wAEMv8AKn64+6PBDL/Kn64+6SADnM/nJyuLwR/wQy/yp+uPujwQy/yp+uPukgA5zP5ycri8Ef8ABDL/ACp+uPujwQy/yp+uPukgA5zP5ycri8Ef8EMv8qfrj7o8EMv8qfrj7pIAOcz+cnK4vBH/AAQy/wAqfrj7o8EMv8qfrj7pIAOcz+cnK4vBH/BDL/Kn64+6PBDL/Kn64+6SADnM/nJyuLwR/wAEMv8AKn64+6PBDL/Kn64+6SADnM/nJyuLwR/wQy/yp+uPujwQy/yp+uPukgA5zP5ycri8Ef8ABDL/ACp+uPujwQy/yp+uPukgA5zP5ycri8Ef8EMv8qfrj7o8EMv8qfrj7pIAOcz+cnK4vBH/AAQy/wAqfrj7o8EMv8qfrj7pIAOcz+cnK4vBH/BDL/Kn64+6PBDL/Kn64+6SADnM/nJyuLwR/wAEMv8AKn64+6PBDL/Kn64+6SADnM/nJyuLwR/wQy/yp+uPujwQy/yp+uPukgA5zP5ycri8Ef8ABDL/ACp+uPujwQy/yp+uPukgA5zP5ycri8Ef8EMv8qfrj7o8EMv8qfrj7pIAOcz+cnK4vBH/AAQy/wAqfrj7o8EMv8qfrj7pIAOcz+cnK4vBH/BDL/Kn64+6PBDL/Kn64+6SADnM/nJyuLwR/wAEMv8AKn64+6PBDL/Kn64+6SADnM/nJyuLwR/wQy/yp+uPujwQy/yp+uPukgA5zP5ycri8Ef8ABDL/ACp+uPujwQy/yp+uPukgA5zP5ycri8Ef8EMv8qfrj7o8EMv8qfrj7pIAOcz+cnK4vBH/AAQy/wAqfrj7oJABzmfzk5XF4AAMjQAAAAAAAAAAAAAAAAAAAAAAAAAAAAAAAAAAAAAAAAAAAAAAAAAAAAAAAAAAAAAAAAAAAAAAAAAAAAAAAAAAAAAAAAAAAAAAAAAAAAAAAAAAAAAAAAAAAAAAAAAAAAAAAAAAAAAAAAAAAAAAAAAAAAAAAAAAAAAAAAAAAAAAAAAAAAAAAAAAAAAAAAAAAAAAAAAAAAAAAAAAAAAAAAAAAAAAAAAAAAAAAAAAAAAB43Y8nNU033EKxGe1sPVk4u6fY/Od48drzu1giJmYiIdnC6ihOdpcr8H3GxlWcrMqkopedehcCEUYVK8klzbS9ZY+Fp5fpfDuUrJRV5S7Wy+2x8OPtW1ldXZrR0mdW58Frdx8pRlDmQKfTLBVOFHxL893G3fa1vouWHluY4PUFGNSDvGS+lPtT86KN2Pguy7LekRMw+AMa844dNvs5mNCvTxEbp3RG7OmujJpL6AA5QAAAAAAAAAAAAAAAAAAAAAAAAAAAAAAAAAAAAAAAAAAAAAAAAAAAAAAAAAAAAAAAAAAAAAAAAAAAAAAAAAAAAAAAAAAAAAAAAAAAAAAAAAAAAAAAAAAAAAAAAAAAAAAAAAAAAAAAAAAAAAAAAAAAAAAAAAAAAAAAAAAAAAABhVqRpRbfJK5MQlxtR5wsvhtXzpexd5B4o+uYYyeY1ZSffw9HYYRPpdmwRjrHeW7FTSHSyRxjiKd+9/Y7Ezz/I4amwzpOTjdpprvX7uJX8ak6DUlzi0ywsqzOli4Jp/9DPtdJnqstrExMNCh0c5PTwLoWu3dupZb93ffzdx09I6Zp6Uw/VqTlxbbfe+46kMQmfPF5jSwcXKT4L2nmbk+jicl51iZ11RHUuOnQrzin4slG/pNnTdRyjJdiafrI3mOJljqkpPtZ39Jx/Byfnt6v/xPQ2ikVw+nYyxpSYSExlUhDm0vSzIhGsNEQz6r10q6pxjBJ3hdJRcm3fcu88WGCITTrqXevWZn56y7LIYmu9sn1VN7p1XBq0E/nbVd3fZHn7bdPE5XpjETlL4dbdJu3wapwu7951uu9z71mZFrLD57ialFQlFwUm22mntko/vJMfnTL8Jl2IqyjUr9XBJ7Z9XKe5ppJbVxV1d8eVrG5gZ5dlGOpSjV6ylCcJOpslHgmnLxHeXD2kzVM0X7OcKabbSSV23wSS5ts5mU6jyvO5TjSmpOD49l13rvj2X/AOl9nLsywWdUlOm90JXV2mr24NWaT9hWuc6UzbT2NhUwkW1OXipcoP8AGhLs2Ndr7OHZx5iHEQtKdejTaTkk3yTaTfoRwsTrPKsLi44d7t7ai21aMW1eKbfF7rq1lbjzK/1i6uU5pRrSSTao1JJO6vFqMknwv83uO50oZF19OOIhzhaM7dsW/Fl/dbt9PmJ09E7sdFhVq1LDxbk1FLm5OyX0vgKVWnWV4tNd6d160VxqHPcTisli6kZRqVJRpvcmnLa925X7JKK4+c73RxgnhMBB9s5Sn63tXsiiNETXolh88RXp4WEpSdlFOTfckrsg+qsbrShiWsOpOntja0ISV+3i1chmf6i1hTg6deTiqi+a4Qi3G/ele32iKpiqzdNawwWp3JQhOLgk3uStx4JXTfF8ewkRSmR4fWuTwfUU5xjO0m+ri78OHGSb7eRu0NQ6/wAU7Re5rjaMKTfsRM1TNey3gVT8Z9Jfkz/VU/uLJyeeLqYek6v8I4R33SXjW48Fw9RzMOZjRugAhyAEL6Q6moKdOn8H32vLrHSvv7NvLxrc+X0kwmITQHC0hLNZ4SHwi/WcfncJbb+Lu8/p495BNZ63zOpiJUaEnCMZbG4fPnPk0nzVnwSXF/YiExVbAKahk3SFS8ZOt3/wyb+mO+/0NFq5F8N+DUutbdTYnO6s7vjZpdq5CYJjT4ugc7O86wmQUXUqclwSXOTfJLzmebZxgskpudSW1Ll3yfcl2spHUmo8TqiruneNKL2xSV1BP1Jydr81y8xNa6prXVcuntRYXUlNzhGaSdnvSXHnws2nY65UmUaOx2PpJ4fGpw7oucdrfY4p8H6UcTP6eaZDPa8Z1ku2NOpNuPp7F6L3J3U7sd17AgHRrg86SnUqym4TSUFUk23xu5JPkn39pPzmYcTDlZ5qHL9PRi6raUpbVZX7Lt252Xm70buExuHx1OM4O8ZK8XZq6fLg7MqvXOInqTMaeHg+EGoX7pSac3/dVk/Qzq9J2KpZdhaOHhwTa4d0Kasl9La9RO76Ot30TjOM2w+R0ZVZpuMbX2q74tRXBtd/eYZHneF1BS6ympKN3Hxkk7r0N95V2I1LlTyj4OpSdVqLd07X6xTav3JcF6DoaJ1nk+RYXq6jkpb5PhG6s7W4k7qd3otM1JZpl8G06sE1wac43T9Zp5FqXLtRb+qbey190bfOvb7GRDMOit46tUn8ItvnKduqvbc27X39lzmI7uYjunXxtlv5Wn9eP3j42y38rT+vH7yvPkhf5z/6X/1kPyHTnx5inR37bb/G27vmu3K65+k63Y7ut2O68/jbLfytP68fvHxtlv5Wn9eP3lefJC/zn/0v/rHyQv8AOf8A0v8A6yNI7o0r3WdGUZq64p8miOZJrLCZ3iKlKMJRdNSbcrWe2Si+3znzzzUuH0XSoRlGU7x2pxsv4NRTdn33K001qnD5Hi6taUJSU1NJK11unGXbw7BFSK+q43nuUR/09L9ZH7z5S1PkMP8A4ij+si/sZT2o8ipZTXhNwn1FS0k01e0lucU7WTjfgnztz7sMyybLaGLoQpynKnVVJ3lwlacrPsX2esndh1uQtyprPTlLnXh9Db+xM6+FxNHGwjOLvGSTi+9Pl5ykK2V4DMMZGlhaU5qLtLrJNbrO0m7JOEV38/NyRcSo08gwklTjwpU5uMW3Lik5Wu+LVyJhzasQ++aZhHKqM6ji5KC3NRtey582lw5nN0vqjD6ohOUYuOyVmm7uzV0/p4r6CA4rpPzOpFxlQhaSaae5XTVn2nE0pqDHaXnOSpOanFJxd1xTunez5cfWTup3Oi7M0x9PK6NSo+KhFytyvZcF9PI5WldU09URm1TlDY0ndppt3dk/N6O1Ffak1ziM6wbhKChKdTjFX/g4pSu798repmppzXdXTVHq40YvxnJycmm2/NbsSSG70NzouwFY4HpTxeMqwh1MVunGN9z4bmlfl5yzjmY0cTEwAAhAAAAAAAAAAAAAAAAAAAAAAAAAAAAAAAAAAAAAAAAAAAAAAAAAAAAAAAAAAAAAAAAAAAAAAAAAAAAAAAAAAAAAAAAAAAAAAHB1XjXhqG1c5u30c39hhneZzwtaCvwVm0u3icTU+YUswnHa7pL2s9HZdmnex2mOnq0Uxz9mXCpmxE+MVY+jntPoJbIbET6UJ4jCO8JW83YzOjR3Ru+B5Ez2jVdEOi9TZhRXFQXnd/vNSrjK+P4ylu7u4iGp41a1RLsS4G1pSnWpqa47ez0lcY6x1IrV35I7Glq7hUlHvV/V/wDicho28kezEQ87sc5660vH3K81daynJWHSrnOKpyhQTtCUVOVucnuaSfmW2/nfoLPK819nWcZFiaEoyfU8HtXDdKL8aMnzaaasn5+4+er6vMr6oxp/VOCw1FYb4MpRqyjGpJ1GnNyaV+Cvw7Enw9d/jXx+R0ZSXxfezav11XjZ2OjmOOw2oc4pShJbI9W1LkrQXWO9+C43TufX4y19+Wp/rMN952sQ/LsRg6NWTnQ62LTtT3yjt4qz3R4uy4ce83sDhsLmuOpJUHTpSnCLhulJWulLxn43H08DDI8RnlHEVHRnGNVqW9uVNJrct3Gfic7cvo4Epw+Za63x3Vqe26v+Ew/K/HtuTKZS/Ospx2WYNU8FFxkpppKS5O7lxm+/zkKybPNUUMxp0a9SV96U4NxfBrcuMeHJrky24TjNJp3T4prk0VPj/wDOFf1lP/dROK/FXWfV2ulXKnicPCqlxpytL9Gdlf6Gl6zuaJzaGdYKm3xlBdXP0x5P6VZm6sdlWf8AXUFJT2pRqJclvurJ96t2cmVPSxua9HWJqwVmpRdr/NkuPVzXnXavSvOkdY0IjWNHU6RcdPOsZSw9Pjtaj/rKjX2K3o4lp4LCU8BShCPKEYxXoirFbdG2QVsZUliqnHjLY3zlN33z+jivTfuLQIt2Rbs0c3zbCZJSlUqOyXZ2yfZFLvZU2U05a1xs61dxjSpuLnuklFRvanTu++3Hv49rNnU2W6j1Fi6ymrQoqUk+PVxhbcmu+UkvTfuS4Y9H+Twz7D4yk5OKl1HFK7W2U5fuOojSHURpC0Pj3J1/p6X6yP3lWdGOMwuDxVVznGCdNpOUlFN7o8Ls73ySYL8tP6qIXo/TVLU1acJTcdsN10k7+Ml2+kRp1IiNJ6rrp5zlVVpKtTbbskqkW23ySV+bIN0g6iz/ACDEQVKpthOF0tkH4ybUuLi33dpt5f0X4PL61Ooq0m4TjNJxXHa07fTYdKuA6/CwqdtOdn+jNWftUSI01cxpq7eOz94fLXiE/GdGMl+nNJLhy4SfIjnR7q7Ms6rVKdae57VKHixjaztJeKle+5c+4imYZ71uU4ejfj1k1L9GHFJ/rF6jPB4Sro3McNu5SjTcvMqi2z+q93qRO76ut31dzWmsM7wGNdKhU2pKCtshK85cecot/jJHV1/nub6ep4fq6lpS3Kb2xe5xUeNnFpcW+SREsqh4QZ1u5rrpT/u07uP+GKO90u/Mw/pqfZAfGDSNYhvYPN9SZnlUalOTlXc2rqMPmqTXzWtvLzFYRlmXwu6/h+tvyV+t393zfndnIt/o3/k6n+lP/EytKP8ALC/tn/vEx8U1+Ke4PMdU4TAYmdduNSPGm3GHBWXYltfHvRrdHmps4z2tUjVqb1GCaW2MbO6X4qRJ9ZfxDEfoMgPRL/GK39Wv8SOfhLn4S7WucXpPMmoVarjVpu3iQk5JX8aPLbx7OPDn334uJ1pprD4Z0KWGcqfb1jUbvym1ulu8/B+g6HSNklSdenUp0HVlJSU7RnJeLt2t7Gneza4vjbzEew+aZ9k1msFCHFJSeGldt8kpPjd91yYdREaQ4OFweZ03uhekpKVnKoqSlHtSlJx3c1dI2srqR07VU6+GdTk4qbcY/pLg4y83YfbVeb59mvV/CKbp7d2y9OUL327vnc7WXLkdqnq3WNOnCHwe8WlGClQm9yS4W7+CvwOnSRYbpWyafzqdSPoUZL7U/YdjNtX4TB4Hr438dNUlJWcpcUnbuVr+j0orfEvPMZ87L4+mOFnF+uNiyNUaUpZ3h6VKFoKnKFv6MF4skvo9bSOJiOiuYjoqnR1WdbMaLbu3Ubbfa2m2zr4i+us2tx6uLt3WpU+fnW939G5D4JSy3O4wpqyhKKivRSXrb9p9Y5/raE3NYZqbVnJYWW5rubtdnTuXZ1no3IcpwVSpTp7Zx2We+btecU+Dk1yfca+hNJZJnWE31ae6W+SvvmuCtbgpJHDz7P8AV+Ow8o1qUo03t3N0ZQStJNeM1ZcUj56dzzVeX0dtCnKUNzd1Rc1d8/GSGk6eqNJ09Vt5Pp7K8h3dTDbutu8aUr2vb5zfe+R0yCaRzzVWYYjbXpyjDY3d0nBbuFuLXp4E7K5VyH5+wuYZjleKqzo/PTnxUd1o7vGduVuHFs/QJTugv5Vn6Kv2nVfi6p8Ui0/0n4PGWjXXVy8tcYP09sfavOifU6lOsk000+Kad015mRDUfR5luc3lTtSqd8V4kn/Sj+9fTc4uich1Rk+KcJNwox4y/GhO/LZ53zbVmlz7CNIRMR8FhYvLsDj7dZThO17b4KVr87XTteyKUynEZPgcViuuS2OFWMFsU7Tc1t2x5JpXs7r0osDXGR59nU6UaMmoNSVTx9sFxVm0uLvd8k+RX2l9MU87xFajKTThTm4yXLfGcYpvhxjxfA6r6Oq+nqzz3TWAyWHHFqcrXVOMLvzX8e0fp+i5HFQxMnBWd5W2d7u7K30qysdOGnsw+Fzo00qk6bfdZ7ebtJ2t5nzPvnEdQwxdLrUlWXV9WkoJWUrU+EfE5953CyHwybLcFjZuNTEdRO9vHg7PvvLcrPv3Jekt7Run/iClNdaqqnJSUkuFrW73cqzVWB1JG1TEwSbe1SSppydr8dnF8FzZZfR/kVLKcJGV7yrKM2+5NXjFei/F9vqOLOL+iK9Lcr1aC/oSfra+47selLIIJeLV4LyY+8R7pHtjcxoU/wCjCP0znL91j6dJORZVk9Kk6VOMHKbTtfikh2RGnRD9Q5viNQV51Wna6jFdkY8dsb8r2Tfndy5cyzSMsrnVv87D3X6U4WXtZws107SxmTx2QSmqdGq7LjKUKaT9L23+kglbVNavl0MLZ3U+L74J7ox9O5+pIn1T66fcm3RNhdlCtPypqP1I3/4ywzi6Tyl5Lg6UH8626X6UuLX0Xt9B2iuVdp6gAIcgAAAAAAAAAAAAAAAAAAAAAAAAAAAAAAAAAAAAAAAAAAAAAAAAAAAAAAAAAAAAAAAAAAAAAAAAAAAAAAAAAAAAAAAAAAAACD6u3Uq8X3xOFKW8mmq8tnjKalFXcexdq7SDKZ9LsN4tjr9zditrWH0R8cXKcEmuzmfZcT7KmbJldD5Uszp1oqPbc3Ys1YUacXdI+6uiqVkS+0oUqq8aKfpMoqEFZJJdyPmpH3hhsRPlGT9CZXLvV82b+R0nUrx83E1o4TEydtsrvzMmel8mlgoylNeM+Fu5f9TPnyRFLdfVVltGktshfSTjsrpYRwqcZys6cVzTX43mS4p9/L0T3E4dU+K5EGzbQOEzfGqtKT2NLfC7vKS4Kz7Itc0vo58PB00nq8yI0nqqzJcVh8sc1VhLbVpuG6PCUYyfzop8Hyt6zv4bIdD4pfxua8047X7Y29TLWxuTZbmMFCdOMopWimvmrl4rXFfQRqv0YadrPgqkfNGfvJnW9DrehWeQ5ZlGYYicKtbq6aUnGd0tzUkorj3ptkl8EtF/nv7UPuO++ijIvLrfWh7h58k+S/lK3rh7g3o7pm0d0tyWrg6lCCpTU4QioKSd77El6LlM6nnis0zOr1UZKTltSV4y8SKg32WT2t3fZzLnyjKsPktGFKF9sb2b5u7bbdu1tmGNyPLcw6zdBXqQ2SlbxnHs4+b9y7kcxOjiJ0lVWXZtgNDxl1clWxE1aTi/wNPttf8AHa71w867csn0jnOs5SrVpuKkntlJXcn2WjwtBersXmleQdGmXZZLdVfWyT8VNWgl2XXa/Tw8z5k5SSJm3ZM27KWwObZ/0e1nTnG8G77W/FkvKhLsf/bXdZuRasynUC8SVpdtOXCa+jtXnjc6OZZZgs3puFSClF9j7H3p80/OiPae0HgNP15VFJz4WpqS4wv87j2t8k7KyuRMxKJmJd/OP4tW/q5/4WVJoHVGX6a67rN3j9Xbar/N33vxXlIuDH0JYqlUiucoSir8rtNK5BtMdG9PA9Z8JjTqX27NspPbbduvwjzvHv5CJjSSsxpOrc+VHT3/AMz6i94gWhdQ4LTtec6m60oOK2q7vui+9dxaPgNpr8hH1y+8eA2mvyEfXL7ydYTE1cv5UdPf/M+oveOxm8KWpMvntTtUpboXXG9t0OHpSPn4Daa/IR9cvvO5hsNRwcIwirRikku5Lkjnp8HM6fBQOlMu+NsZRhzW7dL9GPjS9aVifdLGW9ZSpVVzhJwfolxXqcfaTjC5PlmCluhRpwly3QhGLs/Olc2MThcPjIuM4xnF84ySknbiuD4HW91dTbrCsOiXAb6laq+yKgv7z3S9W1es2ul35mH9NT7IFhYTA4PAJqnCME3dqEVFN99klxPMZl2BzC3WU4Tty3xUrX52una9iN7rqje66o50b/ydT/Sn/iZWlH+WF/bP/eLxw2Fw+DjthGMIrlGCUVx58FwNZZHlKnv6mlvvu3dXHduvfdute9+NxFvUi3q0tZfxDEfoMgPRL/GK39Wv8SLWrUKWJi4yipRfBqSTTXnT4HwwmVZdl7bp0qcG+DcIRi2u5tJCJ6aIiekw4OqNc4DTl4Wc6tvmLglfk5S/crv0ECoYLOtc1FUr1FTpX8Vye2PnVOLfF979bZaWZadyrN6kJ1KalKHK/Jrua7Uudma2qNNUtSUFT3bNslKLUd1rJq1rrhZ94iYTEwgPSdPDRWFhGpv2Rmm3JSlbxEnJrtdmdrUGjMZn1GhUp1HvhSglCTtH5qfitcpPz8+HFWPlg+iXCUppzrOcU+MYw2X8190uHoLFjGMFZclwRMz6aJm3poqnKNe5vp6fVYuEpJcLv+Eiu+/Ka89+Pey0MHi6OPpxnF3jJKUXZq6fLg+Jr5pkmXZ0kqsFOzur816GuNn2rtN6MYwVlwS5HMy5mYVNiP8AOFf1kf8Adotog9XRuYzzX4Tup9XuUrXlvsoKPLbbmu8nBNp9E2n0RbpF/k6t6af+8iavRh/EP9ZP9x2dV5RiM8wlSlBxUpbbOTaXiyUnyTfZ3Hx0bkeK09hurm4uW6Urwbas7d6T7O4a9DXokAAOXAU9oL+VZ/637S4SHZDoT4jxTrdduvv8Xq9vznf5258vQdRPq7ifVMQAcuHzqYijR+dJL0tIq3o7lGeZ4hrinCrZr+tgTDWGkVqpU/H2ODlx27rqVuHNdw0pozC6X3SU3OclZya2pLnZK759t33HUaaO4mNFa4zA0cyzTERlWVBb6j3y5cJcucefpOfm2V4bB4mEI4mNWMtl6q5QvJp38Z/N58/UTqfRtVx+Mq1Kso9VOU5JU5Pf40rxveO3lz4m/wDJZkHlVfrx9073od70K+1HkuDyynFwxccQ3K22NrxVm93z5ejkXDpqcYYHDt8EqNNtvsWxEOzjoqoSgvg8rSvx66XDbZ8tsL3vYmWFyZPBQoVH/oo05ODa5RSdnwfrXpRzMubTHRVtDM8NnWbdfOW2lCalud7KMLRp+jc1H1m70mZ9l2bKhGlNT273LbyV9qXH6GSrLOj7A4PC1aMpOXWyV5pJSUYyvBK91wtx9L8x8sN0W5BQd5OpPzSkkv2Un7SdYTrDUzTX2DyPD06dK1SqqcI98INRS4vta8lfTYgFPKs6y+EMV1fi71JNxVrpppuHZFvk7W9l7GyPozy/LqjnUfW2b2Ra8VK/ByXa/Ny9JOJ04VE00mmrNNcGu63cRvRCN6I9EX03rvLM9SjJqnV8iT4Sf9GXb6OfpJUQ2PRzlNLFRqx4QT3Ok+Md3ZZ+Sue393AmRzOnwczp8AAEOQAAAAAAAAAAAAAAAAAAAAAAAAAAAAAAAAAAAAAAAAAAAAAAAAAAAAAAAAAAAAAAAAAAAAAAAAAAAAAAAAAAAAAAAAAAAABt4anG1yN5vo7CYxuUHsfrXq/6khw1eMeDNmcNxqw5bV61nRdWenRVtXLVlcnFu7XabGU5Y82qbeSXFvzEhznTs8wqboySfbc6uSZNRyiPfJ85d/8A0PUttMbuuvWWrjxuxp6vphMkwWEXCC9L4s2KmAw9RWcY+pGzc8uefNrT11Z9+XLo6fwFCe5R4+fikdGNLbySR9NwuJtafWU78vlKnZ8jOk2mZXPHKxyjeK8k0znH3xFXsPgZ8nqptIACtyAAAAAAAAAAAAAAAAAAAAAAAAAAAAAAAAAAAAAAAAAAAAAAAAAAAAAAAAAAAAAAAAAAAAAAAAAAAAAAAAAAAAAAAAAAAAAAAAAAAAAAAAAAAAAAAAAAAAAAAAAAAAAAAAAAAAAAAAAAAAAAAAAAAAAAAAAAAAAAAAAADxq57GdaHJgDVLyUqk+bMoVqlM8B1vSPssZ5jx4zzHytcHXEk1JVatQyjiakOZiDnekfX4Yu4wliJzMLI9JnJJq8SPQDhAAAAAAAAAAAAAAAAAAAAAAAAAAAAAAAAAAAAAAAAAAAAAAAAAAAAAAAAAAAAAAAAAAAAAAAAAAAAAAAAAAAAAAAAAAAAAAAAAAAAAAAAAAAAAAAAAAAAAAAAAAAAAAAAAAAAAAAAAAAAAAAAAAAAAAAAAAAAAAAAAAAAAAAAAAAAAAAAAAAAAAAAAAAAAAAAAAAAAAAAAAAAAAAAAAAAAAAAAAAAAAAAAAAAAAAAAAAAAAAAAAAAAAAAAAAAAAAAAAAAAAAAAAAAAAAAAAAAAAAAAAAAAAAAAAAAAAAAAAAK/8ADjM/Jp+qXvDw4zPyafql7xGQZt6X6V7r2T5UJN4cZn5NP1S94eHGZ+TT9UveIyBvSe69k+VCTeHGZ+TT9UveHhxmfk0/VL3iMgb0nuvZPlQk3hxmfk0/VL3h4cZn5NP1S94jIG9J7r2T5UJN4cZn5NP1S94eHGZ+TT9UveIyBvSe69k+VCTeHGZ+TT9UveHhxmfk0/VL3iMgb0nuvZPlQk3hxmfk0/VL3h4cZn5NP1S94jIG9J7r2T5UJN4cZn5NP1S94eHGZ+TT9UveIyBvSe69k+VCTeHGZ+TT9UveHhxmfk0/VL3iMgb0nuvZPlQk3hxmfk0/VL3h4cZn5NP1S94jIG9J7r2T5UJN4cZn5NP1S94eHGZ+TT9UveIyBvSe69k+VCTeHGZ+TT9UveHhxmfk0/VL3iMgb0nuvZPlQk3hxmfk0/VL3h4cZn5NP1S94jIG9J7r2T5UJN4cZn5NP1S94eHGZ+TT9UveIyBvSe69k+VCTeHGZ+TT9UveHhxmfk0/VL3iMgb0nuvZPlQk3hxmfk0/VL3h4cZn5NP1S94jIG9J7r2T5UJN4cZn5NP1S94eHGZ+TT9UveIyBvSe69k+VCTeHGZ+TT9UveHhxmfk0/VL3iMgb0nuvZPlQk3hxmfk0/VL3h4cZn5NP1S94jIG9J7r2T5UJN4cZn5NP1S94eHGZ+TT9UveIyBvSe69k+VCTeHGZ+TT9UveHhxmfk0/VL3iMgb0nuvZPlQk3hxmfk0/VL3h4cZn5NP1S94jIG9J7r2T5UJN4cZn5NP1S94eHGZ+TT9UveIyBvSe69k+VCTeHGZ+TT9UveHhxmfk0/VL3iMgb0nuvZPlQk3hxmfk0/VL3h4cZn5NP1S94jIG9J7r2T5UJN4cZn5NP1S94eHGZ+TT9UveIyBvSe69k+VCTeHGZ+TT9UveHhxmfk0/VL3iMgb0nuvZPlQk3hxmfk0/VL3h4cZn5NP1S94jIG9J7r2T5UJN4cZn5NP1S94eHGZ+TT9UveIyBvSe69k+VCTeHGZ+TT9UveHhxmfk0/VL3iMgb0nuvZPlQk3hxmfk0/VL3h4cZn5NP1S94jIG9J7r2T5UJN4cZn5NP1S94eHGZ+TT9UveIyBvSe69k+VCTeHGZ+TT9UveHhxmfk0/VL3iMgb0nuvZPlQk3hxmfk0/VL3h4cZn5NP1S94jIG9J7r2T5UJN4cZn5NP1S94eHGZ+TT9UveIyBvSe69k+VCTeHGZ+TT9UveHhxmfk0/VL3iMgb0nuvZPlQk3hxmfk0/VL3h4cZn5NP1S94jIG9J7r2T5UJN4cZn5NP1S94eHGZ+TT9UveIyBvSe69k+VCTeHGZ+TT9UveHhxmfk0/VL3iMgb0nuvZPlQk3hxmfk0/VL3h4cZn5NP1S94jIG9J7r2T5UJK9c5p5NP1S94+b1znXk0vqy98jwJ35J9lbJ8qEg8Oc78ml9WXvjw5zvyaX1Ze+R8DflHunZPlwkHhznfk0vqy98eHOd+TS+rL3yPgb8nunZPlwkHhznfk0vqy98eHOd+TS+rL3yPgb8nunZPlwkHhznfk0vqy98eHOd+TS+rL3yPgb8nunZPlwkHhznfk0vqy98eHOd+TS+rL3yPgb8nunZPlwkHhznfk0vqy98eHOd+TS+rL3yPgb8nunZPlwkHhznfk0vqy98eHOd+TS+rL3yPgb8nunZPlwkHhznfk0vqy98eHOd+TS+rL3yPgb8nunZPlwkHhznfk0vqy98eHOd+TS+rL3yPgb8nunZPlwkHhznfk0vqy98+kNc5t2xp/Vl7xGwRvye6tk+VCTeHGZ+TT9UveHhxmfk0/VL3iMgb0p917J8qEm8OMz8mn6pe8PDjM/Jp+qXvEZA3pPdeyfKhJvDjM/Jp+qXvDw4zPyafql7xGQN6T3XsnyoSbw4zPyafql7w8OMz8mn6pe8RkDek917J8qEm8OMz8mn6pe8PDjM/Jp+qXvEZA3pPdeyfKhJvDjM/Jp+qXvDw4zPyafql7xGQN6T3XsnyoSbw4zPyafql7w8OMz8mn6pe8RkDek917J8qEm8OMz8mn6pe8PDjM/Jp+qXvEZA3pPdeyfKhJvDjM/Jp+qXvDw4zPyafql7xGQN6T3XsnyoSbw4zPyafql7w8OMz8mn6pe8RkDek917J8qEm8OMz8mn6pe8PDjM/Jp+qXvEZA3pPdeyfKhJvDjM/Jp+qXvDw4zPyafql7xGQN6T3XsnyoSbw4zPyafql7w8OMz8mn6pe8RkDek917J8qEm8OMz8mn6pe8PDjM/Jp+qXvEZA3pPdeyfKhJvDjM/Jp+qXvDw4zPyafql7xGQN6T3XsnyoSbw4zPyafql7w8OMz8mn6pe8RkDek917J8qEm8OMz8mn6pe8CMgb0nuvZPlQAA5ekAAAAAAAAAAAAAAAAAAAAAAAAAAAAAAAAAAAAAAAAAAAAAAAAAAAAAAAAAAAAAAAAAAAAAAAAAAAAAAAAAAAAAAAAAAAAAAAAAAAAAAAAAAAAAAAAAAAAAAAAAAAAAAAAAAAAAAAAAAAAAAAAAAAAAAAAAAAAAAAAAAAAAAAAAAAAAAAAAAAAAAAAAAAAAAAAAAAAAAAAAAAAAAAAAAAAAAAAAAAAAAAAAAAAAAAAAAAAAAAAAAAAAAAAAAAAAAAAAAAAAAAAAAAAAAAAAAAAAAAAAAAAAAAAAAAAAAAAAAAAAAAAAAAAAAAAAAAAAAAAAAAAAAAAAAAAAAAAAAAAAAAAAAAAAAAAAAAAAAAAAAAAAAAAAAAAAAAAAAAAAAAAAAAAAAAAAAAAAAAAAAAAAAAAAAAAAAAAAAAAAAAAAAAAAAAAAAAAAAAAAAAAAAAAAAAAAAAAAAAAAAAAAAAAAAAAAAAAAAAAAAAAAAAAAAAAAAAAAAAAAAAAAAAAAAAAAAAAAAAAAAAAAAAAAAAAAAAAAAAAAAAAAAAAAAAAAAAAAAAAAAAAAAAAAAAAAAAAAAAAAAAAAAAAAAAAAAAAAAAAAAAAAAAAAAAAAAAAAAAAAAAAAAAAAAAAAAAAAAAAAAAAAAAAAAAAAAAAAAAAAAAAAAAAAAAAAAAAAAAAAAAAAAAAAAAAAAAAAAAAAAAAAAAAAAAAAAAAAAAAAAADc+K8V3e0fFeL7vaU8fH5KeNTyaYNz4rxXd7R8V4ru9o4+PyONTyaYNz4rxXd7R8V4ru9o4+PyONTyaYNz4rxXd7R8V4ru9o4+PyONTyaYNz4rxXd7R8V4ru9o4+PyONTyaYNz4rxXd7R8V4ru9o4+PyONTyaYNz4rxXd7R8V4ru9o4+PyONTyaYNz4rxXd7R8V4ru9o4+PyONTyaYNz4rxXd7R8V4ru9o4+PyONTyaYNz4rxXd7R8V4ru9o4+PyONTyaYNz4rxXd7R8V4ru9o4+PyONTyaYNz4rxXd7R8V4ru9o4+PyONTyaYNz4rxXd7R8V4ru9o4+PyONTyaYNz4rxXd7R8V4ru9o4+PyONTyaYNz4rxXd7R8V4ru9o4+PyONTyaYNz4rxXd7R8V4ru9o4+PyONTyaYNz4rxXd7R8V4ru9o4+PyONTyaYNz4rxXd7R8V4ru9o4+PyONTyaYNz4rxXd7R8V4ru9o4+PyONTyaYNz4rxXd7R8V4ru9o4+PyONTyaYNz4rxXd7R8V4ru9o4+PyONTyaYNz4rxXd7R8V4ru9o4+PyONTyaYNz4rxXd7R8V4ru9o4+PyONTyaYNz4rxXd7R8V4ru9o4+PyONTyaYNz4rxXd7R8V4ru9o4+PyONTyaYNz4rxXd7R8V4ru9o4+PyONTyaYNz4rxXd7R8V4ru9o4+PyONTyaYNz4rxXd7R8V4ru9o4+PyONTyaYNz4rxXd7R8V4ru9o4+PyONTyaYNz4rxXd7R8V4ru9o4+PyONTyaYNz4rxXd7R8V4ru9o4+PyONTyaYNz4rxXd7R8V4ru9o4+PyONTyaYNz4rxXd7R8V4ru9o4+PyONTyaYNz4rxXd7R8V4ru9o4+PyONTyaYNz4rxXd7R8V4ru9o4+PyONTyaYNz4rxXd7R8V4ru9o4+PyONTyaYNz4rxXd7R8V4ru9o4+PyONTyaYNz4rxXd7R8V4ru9o4+PyONTyaYNz4rxXd7R8V4ru9o4+PyONTyaYNz4rxXd7R8V4ru9o4+PyONTyaYNz4rxXd7R8V4ru9o4+PyONTyaYNz4rxXd7R8V4ru9o4+PyONTyaYNz4rxXd7R8V4ru9o4+PyONTyaYNz4rxXd7R8V4ru9o4+PyONTyaYNz4rxXd7R8V4ru9o4+PyONTyaYNz4rxXd7R8V4ru9o4+PyONTyaYNz4rxXd7R8V4ru9o4+PyONTyaYNz4rxXd7R8V4ru9o4+PyONTyaYNz4rxXd7R8V4ru9o4+PyONTyaYNz4rxXd7R8V4ru9o4+PyONTyaYNz4rxXd7R8V4ru9o4+PyONTyaYNz4rxXd7R8V4ru9o4+PyONTyaYNz4rxXd7R8V4ru9o4+PyONTyaYNz4rxXd7R8V4ru9o4+PyONTyaYNz4rxXd7R8V4ru9o4+PyONTyaYNz4rxXd7R8V4ru9o4+PyONTyaYNz4rxXd7R8V4ru9o4+PyONTyaYNz4rxXd7R8V4ru9o4+PyONTyaYNz4rxXd7R8V4ru9o4+PyONTyaYNz4rxXd7R8V4ru9o4+PyONTyaYNz4rxXd7R8V4ru9o4+PyONTyaYNz4rxXd7R8V4ru9o4+PyONTyaYNz4rxXd7R8V4ru9o4+PyONTyaYNz4rxXd7R8V4ru9o4+PyONTyaYNz4rxXd7R8V4ru9o4+PyONTyaYNz4rxXd7R8V4ru9o4+PyONTyaYNz4rxXd7R8V4ru9o4+PyONTyaYNz4rxXd7QOPj8jjU8kgBlZCyPBeQxBlZCyAxBlZCyAxBlZCyAxBlZCyAxBlZCyAxBlZCyAxBlZCyAxBlZCyAxBlZCyAxBlZCyAxBlZCyAxBlZCyAxBlZCyAxBlZCyAxBlZCyAxBlZCyAxBlZCyAxBlZCyAxBlZCyAxBlZCyAxBlZCyAxBlZCyAxBlZCyAxBlZCyAxBlZCyAxBlZCyAxBlZCyAxBlZCyAxBlZCyAxBlZCyAxBlZCyAxBlZCyAxBlZCyAxBlZCyAxBlZCyAxBlZCyAxBlZCyAxBlZCyAxBlZCyAxBlZCyAxBlZCyAxBlZCyAxBlZCyAxBlZCyAxBlZCyAxBlZCyAxBlZCyAxBlZCyAxBlZCyAxBlZCyAxBlZCyAxBlZCyAxBlZCyAxBlZCyAxBlZCyAxBlZCyAxBlZCyAxBlZCyAxBlZCyAxBlZCyAxBlZCyAxBlZCyAxBlZCyAxBlZCyAxBlZCyAxBlZCyAxBlZAAACQAAAAAAAAAAAAAAAAAAAAAAAAAAAAAAAAAAAAAAAAAAAAAAAAAAAAAAAAAAAAAAAAAAAAAAAAAAAAAAAAAAAAAAAAAAAAAAAAAAAAAAAAAAAAAAAAAAAAAAAAAAAAAAAAAAAAAAAAAAAAAAAAAAAAAAAAAAAAAAAAAAAAAAAAAAAAAAAAAAAAAAAAAAAAAAAAAAAAAAAAAAAAAAAAAAAAAAAAAAAAAAAAAAAAAAAAAAAAAAAAAAAAAAAAAAAAAAAAAAAAAAAAAAAAAAAAAAAAAAAAAAAAAAAAAAAAAAAAAAAAAAAAAAAAAAAAAAAAAAAAAAAAAAAAAAAAAAAAAAAAAAAAAAAAAAAAAAAAAAAAAAAAAAAAAAAAAAAAAAAAAAAAAAAAAAAAAAAAAAAAAAAAAAAAAAAAAAAAAAAAAAAAAAAAAAAAAAAAAAAAAAAAAAAAAAAAAAAAAAAAAAAAAAAAAAAAAAAAAAAAAAAAAAAAAAAAAAAAAAAAAAAAAAAAAAAAAAAAAAAAAAAAAAAAAAAAAAAAAAAAAAAAAAAAAAAAAAAAAAAAAAAAAAAAAAAAAAAAAAAAAAAAAAAAAAAAAAAAAAAAAAAAAAAAAAAAAAAAAAAAAAAAAAAAAAAAAAAAAAAAAAAAAAAAAAAAAAAAAAAAAAAAAAAAAAAAAAAAAAAAAAAAAAAAAAAAAAAAAAAAAAAAAAAAAAAAAAAAAAAAAAAAHHEr3QAAcSvcAAOJXuAAHEr3AADiV7gABxK9wAA4le4AAcSvcAAOJXuAAHEr3AADiV7gABxK9wAA4le4AAcSvcAAOJXuAAHEr3AADiV7gABxK9wAA4le4AAcSvcAAOJXuAAHEr3AADiV7gABxK9wAA4le4AAcSvcAAOJXuAAHEr3AADiV7gABxK9wAA4le4AAcSvcAAOJXuAAHEr3AADiV7gABxK9wAA4le4AAcSvcAAOJXuAAHEr3AADiV7gABxK9wAA4le4AAcSvcAAOJXuAAHEr3AADiV7gABxK9wAA4le4AAcSvcAAOJXuAAHEr3AADiV7gABxK9wAA4le4AAcSvcAAOJXuAAHEr3AADiV7gABxK9wAA4le4AAcSvcAAOJXuAAHEr3AADiV7gABxK9wAA4le4AAcSvcbQPAfO6qXoPANR6DwDUeg8A1HoPANR6DwDUeg8A1HoPANR6DwDUeg8A1HoPANR6DwDUeg8A1HoPANR6DwDUeg8A1HoPANR6DwDUeg8A1HoPANR6DwDUeg8A1HoPANR6DwDUeg8A1HoPANR6DwDUeg8A1HoPANR6DwDUeg8A1HoPANR6Dw0MTneV4T51WCfduTfqXE7pjvbpWJlzNoj1nR0BwI7U1rkVP8dv0Ql+9I+Ph5kv9P6v/AFNcez9qn/8AlP6K52jF5wlAI3DXGRz/ABpL0wf7rm/h9R5NieVWH0vb/iscX2PaK+uOY/KUxmxz6Wh1RwMYyjNXTuu9HplnWFr0HgI1HoPANR6DwDUeg8A1HoPANR6DwDUeg8A1HoPANR6DwDUeg8A1HoPANR6DwDUeg8A1HoPANR6DwDUeg8A1HoPANR6DwDUeg8A1HoPANR6DwDUeg8A1HoPANR6DwDUeg8A1HoPANR6DwDUeg8A1HoPANR6DwDUeg8A1HoPANQABAAAAAAAAAAAAAAAAAAAAAAAAAAAAAAAAAAAAAAAAAAAAAAAAAAAAAAAAAAAAAAAAAAAAAAAAAAAAAAAPHJRV2QnP9dRpXhQs321HyX6K7fS+HpNey7HlzW3aV1+/4KsualI1tKV5hmuCyuN6k1HuXa/QubIZmXSFVldUoWXlT4v6IrgvpbIZiMRWxUnKUnJvm27s+R9jsnsLDTScn25/Z4+Xbr26V6Q3sbnOY5j8+pKXmvaP1Vw9hogHuUx0rGla6MM2meszqAAscgAA2MLjsXgneE5R/RbRJcu19mGH4VEqi7/my9nD2ESBkz7Fgyx9ukT/AM/qtpmvX0suHKtR5bnHzZWl5EuEvuf0HWKJTcSXZFrjEYO0a15x5bvx4+nyl6ePpPl9t9gWrrbDOsdvi9TBt8T0v0+9ZAPjhcVQxsVKElKL5NH2PmLVmJmJjSXqRMT1gAByAAAAAAAAAAAAAAAAAAAAAAAAAAAAAAAAAAAAAAAAAAAAAAAAAAAAAAAAAAAAAAAAAAAAAAAAAAAAAAAAAAAAAAAAAAAAAAAAAAAAAAAAAAAAAAD0NAeCx6APAengAC9j26JHgPeAsQPAei6JHgMesiOtgNDVkBdC8QagFwQAB6B4D3gGgavAD3gB4D26HAk1eA9Z4QAAAAHoHgPeCPLok1LGFatTw8XKTSSV23ySM7pFYau1K81nsg/wcX9d9/oXZ6/R6Hs/Yb7RfdjpEess+0Z4x11+LHUurK2bNwheNL1Ofnfm83r80ZAP0PZ9nx4qxSkaQ+eyZLXmZmQAGhWAAAAAAAAAAAAAOrkefYvI53jxi/nQfJ/c/OWtlmZ4bN6anB3Xau2L7mu8pQ6mQ53XyOruXGL4Tj5S+9djPC9qeyq5om9I0vH7t2y7VNJ0n0XGD44PF0MdCM4u8ZK6f/faj78D4K1ZiZiY0mHvRMT1h4Dx1Io862JGhqyAUkxeISAXQAA9FwPAeb4nqkmAB60OBBq8B63FHm+BJqA9Tiw0B4ACAAPQPLA83xG5MnQegHpA8B7wF4kjwHvA8sQagPbDgB4D2wA8APeCA8Ac4oboEgA5xMXVgu0aGrKwMOvpnvXU32jSeyNWQPFODMuAS8ABAAAAAAAAAAAAAAAAAAAAAAAAAAAAAAAAAAAAAAAAAHoDJHznWjA1qmYwgbFHDwxVWMW7JuzZJvBHJEuN36ZW+yx6+xezZzRNtYiPvYs+0xSdNEM+NYHnxtEmq05pqmvmx+mb+8fEWl1+LH67+89H3JX5kM/PfTKFLNYmSzSBM/iLTHkx+u/eMPB3TMuSX6yXvET7Ej5kHPT4yisMdCZswqKZ3cZp7JaFOTjwaT47myN0moo8jbNi4MxGsTr2bMGffiejZfA+Uq8YmricW4G5keQ4zN2pSvGn3vnL0fec7LsOTLOlYTlz1pHWWKrxZkppmeqcvwmVygqb8Z843u/MzTjkudTXCnL6eBdk9m5YtNYjXTs4rtVJjWehKp1k0lzbSXpZv5rlmJyiKlJppu3DsZxZaY1NuTVN8Gn86K5fSTzU+W4rNMI4xXj+K0vPfjx5HrbP7IicV96v2vgyZNs0tXSeiJUK8J9p97o59DS2oaP4n7S+82pZTm2DjecGku26f2HkZvZuaus7s6NdNqpOnUrz2mVfBY+lS6xxe217/vt3HPr12SvTOpsPmUeqqWUkrceUkX+ztkxZJtW86T8HG05rV0mIRnIIxzeuoN24N8OfA++pcL8SVEr3UldXPhl7wmAzpQpu8ePJ8E3B3V/MbfSXUp06+F3O0ZXUn3K8b+xs9r3ZThTGnWJ9WLmZ3469GOWYHHZnBygrpd7tf0GlhfhGKq7F85u1n3krzLUGWafwyjSak9toKLT/ALzIloWrUzDHXfGylJvz8v3me3s3Dv46R17u42m+lrT07OrmOBxOVNbrceVjGm9yPOkTM3Rr04Lsjd/S+Bx8HmUpI8vb9i3L2ikdGvZ8+9WN6eruHwq4lUz5LFbkffT9PDY/EqM1dNOy864mPZtlnJetPTVdly7tZt6tGrmmw8p5nuJpj6Wlskt1ipxb4rdxb9C4s2Mrnp/O4N0owklwfiW+1I+gj2DX0341edz8+KEfGET5SxdSo7JNt9i4s23pypj8bVhTdqcGt0uyN1ey8/PgSmbyPSFNN2Uu98ZyfmKMPsbrM3ndrCy+2emkayi0clz6qrqnK3naT9TdzWqvGYF2nFx9J0KvSY93i01t874kgyvUeTaqjsaW5/iT5/Q/uNc+ztlvG7S2k/ep5nLHWYRejilM2b3PrnWmamV+PC7h2rtj96OeptRPndq2O+K27aHpYc0XjWH2ddI8+ERPvpihDH4jirqMW2n6keayqYbC1oxiknt424dvA0R7Ong8bX4+iudp+3uaCakZGth8NjZ0t6i9vefOnibmDJs966axpqvrkrPpL3EVth0amS4yFHrLq1t1u2xHsXUdSaS7Xb1k51bjYZRl82+yMV9nD6T2vZ+wUyY8lrR1j0Yto2i1bViFUaw1BKhT6qL8aS8d90e70y+z0kAPtisRUxc5SfNu/wD36D4n1mw7JXBjisevxeXnyze0yAA3KAAAAAAAAAAAAAAAAAAASnRufSy+fVyfiTfD+jL7pcn9BZmFweNxybhG6RRRcXR/reMIRjU5XtKXdLvfmf2nz+3ezMNslclukT6/i9DBtN4rNY+D4VsXKnU2vg72d+zsJPn2RxyuhvUm7WvfznI6S44DDdXUhJb5Ss0nzVrqRKdYVN+WVJf0YP8AaiU4/ZmOK5YmNdPSU22q0zSfREMp+EZnPbFXfsse5lDE5bU2zVnz8zR29GY7J8swXWb1ua8e/wA66/FS/wC7kNzXPK2eYlPvkoxXcr2SMmT2birWsa62ldXabzM9oSuplGNoUesdrWTtfjZmrh6m8kes8V8WYFpc3tivZf2FfZfmczJ7S9nxjmIpHwW7NtM2id6Umsa+Jqqmj4U8a5Griak67SXFt2S9J5GPBabRGjZbJERq7mR5NUzmMpbnFJ2XDmzgVcRXw1WUeL2tq65cCwliMFpHCRc3ZJcbc3J87I4VDpKyXF1FGNObcmkvFV3f6T6+fZeDdpWZ0t8XjxteTWZ9YcSGNkevFVKnJXfm4kw1jh8JHDSk0k1az5O77CJaf1BhsncnKN7rhbmjycvs2mPLFLW6T8Wuu02tSZiOr1ZPnmJ5U5fTw+0+i0zqDyP2l95LNN6jnqB1Hs2xjZJt3bb9hGNQa/zDLsTOnTjBxi7Xkndtc+Kf7j1Z9n7JWtbTrOrJzGaZmGviMHmGW26yLS7+z1n1o1lIluXY2hqnCNtWumpLuku4gFGo4trubXqPG9pbBXHu2rOsS27LtFraxPrDsboi6ZlgMnxmZxcotJLhxfNnNxMsRgpOMk013nnW2LLFYvNektMZ6TM116w6Dsj5Vq0ILmadOdfFO0U2+5GzLSue4zklH9J2+y7LNn9n5cmmlejnJtNK/FsZHgPjqUkpW2/TzNbGL4BWlBvkyS6O05i8h6zfJNy22234Wvc5Gd6NzfG4ipUjKFpO6TbTtZeax7+b2R/o13a/a+Lz6bX9udZ6PjGSkZGjWwuNytpVItdz7H6GbNGopo+WzYLUmYtGj1aXi2kwxxEtptSyTMY0t9k1a9k/Gt6DnYyptOxpnVGxqlUfDlGT+xnpezsOG+tcnTX0lm2nJeuk1cGOPaFTMWjoalw+X0cQtrVnxmk+XHj6yRU8XpfL4prZ6tz/AHs0Y/ZuObXickRuqrbTaIiYrrqhHw3ES5J+pjrce/xJepkznrbJaDslJ+iKX3GPh9lnkz9S+82RsGxx65VPMZvBEo18XTXGMl6UzZo4xTJVg9ZZNmM9jvFvgt6Vn5r8jn6oyCnhI9bTVkvnRXL0r95RtPsqm5N8Vt6IWY9rtvbto0cudZI161attbSdlzduHrOdPGXJ1WnHKcsk2v8ARt/TP/8AEy7D7OjJv706RELdo2ma6afFEsvweY5w/Ejdd/Jes6UtJ53STfivzKTv9hJE8RlWATow3SUE1HvbSbfnIbg9XavwU1KtSl1V/GbpuNk332+096PZez1iItEzPdgnaskzrEtSUsRCexpqV7WfO525aPzmqucV6ZP7jc15hYwpQrx4Si43feny9TsRifSLnW3ht+r/ANTLGw4MdrVvEz2WcfJaImvR2FojOfKh639xlHRObr8aHrf3HQ0Fn2a6gjUlVtti0o2VuPb6iP5zr/NaOKqQp22RltXi35c+PpNt9j2WtYtNJVVzZZnSJb2LyTHZUk5NNcrpmFPijVnqDH5skptcOPBWNqlyPkdtjHvzw40h6+Df3fterMAGBoAAAAAAAAAAAAAAAAAAAAAAAAAAAAAAAAAAAAAAAAD3meADXrUmzQr0as+cn62dStyMsHkOPzRXjZR5XZv2SmW87tOrPmtSvWzgPBrvPPgce8kz0JmMv9JH1M98A8w/Kx9TPX927X2Y+ZxIz8Fj3iODRJvALH/lY+pmcNC42H+kj6mRPs3auxzOFw6GGlHtN2MHBHtfBVsum4y5ruPrZNHh5t6LTFvWHoY92YiYZ5PVyqlUbrW4cY7uV+36SZ5fmWGzOm5U3eN2r2ty7vMVnmtC6JloaOzB2/pT/cfVextp1rOPT0iXk7bi0ne1V7HFV44hzb3OM7+NxvZ/9CW1ekOtDlSX0y/6EZjTj1k/0n9p19PfB4YuG5J3uuPe1wMmDacnF4dbbusrcmKu5FpjXR9ZdIuYX4Uor0tnsukHMor+Dj7Tb1xgKFKcJ2S3XTt5uX7yPVKdLYd7VtmfFeab+ujnFhx3rro7mB1vnWPvtw6lbntuYYrWeLx8XB01Bvg+LbXerWOtoKkoUaj75fYv+pFsRONbE1H/AE5faW7bmyVw0tvz9qHGClZvaN30Y1IpoleHjo6EFu6lcOO9q/034kcxVG6M8u0NUzjxpvbB93zmvuMnsfJfetFa72v7L9trGkTM6JLgMZo1Voqm6PWN+LtSvfzNG/n9fIKGz4R1fG+3rFf02NHLsp0rp6pCEVDrW7Jt7qjf2o6mcYbJ8w206yjLdfapc/PtfNP0H1+v2Z9P+nj/ABRfM56MqUJ7ervtdtitK/ZY+HRngNnW1PRBfa/3Gpn3R98Bi50W3FcXF8Wl5n2/TxNvTupMJlWF6uz3rc/M2+08m2aKZd7J9nSOn3tcU1rpXq7+L1NplTanKLkuDvBvl57GEM90rV7YfUa/cVjUoRqzv2tkqxOi/gWH6zfxsm424cfOU87lvFrVpExDvgUrpE29WxnlbL60/wAFa1uNuCuczIJujjKf6VvWhg8OrHxw0uoxFN/04/aeHs+fezxbTTq33x6Y9PXo3+lvC7lRl+kvsZJNN4aOnsti7cdjqO3a3xX7jn9KFJTwsH3T+1M80BnazSi6E+LjGyv2w5NfQfW70RkvX4zHR5Gn2YlFtLZ7muFryUbPrpcd/Lc3zvz7SQ4/o+x+aTc5105PzPh5l5iK51gKmR4mUF2O8X22fFeo8xmptRxXCpP6Gefiv1mmSs20X3r6WrOiTroua/037JjHoxr0pJxr2a4p24pnd6P8bj8dhG6rk5KbV53vaytz9JX8s91XTrTW+rZTkle9rJu1jbkxYqxE7iitrz03kvx+cZpl8HQm4zla3WLm0+9d5w6knCJrxqY6s901K75uSM8ZPgfJbZkvfJ9r8tXr4K1rWdEp0DQuqs/Oor7X+4iuoa7x2KqP+lZf3eH7ib6XjHA4Hd37pv6L/uRBsLH4RJt9rb9Z6u334eHBT7tWXBXeveUy0lnUK8VRnzStHua7vSjk6myd5VPdH5kvY+45/UTpSTXBrimbmc5zjMfTUZJWXHh2syzt2PJh4d4+1HpK3gWrfer6T6uTk1N4zFUl/TTf0cT6dNWcbI0aCfO9SfoXiw9b3eo3tCYfrsS5eRFv6XwK16Qc0ebZjXlfhGXVx9FPxfa039J9B7KxaYo++WDarfaRkAHsMgAAAAAAADKcJ0+atwT49zV0/pTujE/QWUaRyfVGVYVVYeMqMVGpHhOPofavM7orHVnRtm+mryiutpc98Fxiv6cea9KuvOgIWAAAAAAAAAABL+jjH5fhMYo1lF06kXG87WjJcYvj6HH6SIGUJum012O5zaNYmEw/RNbFaDo83h/Un9hIcTVyz4Punt6nanxXi7ezh3ESyrTOk8vo061TbLfCM1Kq+HjJS4R5dvcS+pWy90Ly29U4rmvF2u1uD7ORTT0nXR1MdkchidDVeXU/Qkv3ETybL8Jj8zXV/wAHGTmvRHivovYkWa9HuW4tb6HiN8bJ3g/R3fQcbS+JpaZr1FVi7228Oaa4+08rPfdyY5vERGvq044+zbd6z2TzN88yfLmo1pJN8UpRcuHK/BM561DpSfJw/Vv3SC6mxcc3rufZwSv3I6On9HLNqbm5bbOy4XuV8/kyWtFKxLrgVrETadHbzrG5HiKX4Pbuvw2q3pIzltedHE02km9yST5ceH7xRwfUya52bXq4HwmuoqxfdJP1NHiRtE3z1mY06x6N04t3HPXVOdU6VxWqJQTqKFOPYld37+4w050f5Xp2pvTc52snJK0e9pd58+kWvmtHCJ0HNSc0n1d77XF93HuPvoP4fUy+Kq7lO809993Ftp8ePafZxFd6ejxtZ09X11RpzEahUbVdqjxUbeK33t8ys8Xg6mBk4SVpLg0dro3raiwmJlCrGp1ck346dlJWtZvv4nvSSvg2Kg1+ND12djy9u2etojJ6Tq04MkxO6l+QYeGn8BufNpzf08kVniKaxMnJ82239PElOdY3P8TgYylBKnaLbT4tcNra8/Aw03pmhnWF61zak9ySXJWM20Y8mSa1pGkVj4rcdq11meuspHomk6ODfnlJr1JfuITTg3OT87+03Mt1bicNR6pJcLpS7eIwkE2eb7S2ms1x0j/bDVs2KdbTPxbWX51isnlw4xfOP3eck+P+K9QUHK6TSun2xdu0jFWjGR8HRijLs/tO1aTjtG9E91mTZYtaLROks8izV5POTtuurH2zPXmZ0/mQivTd/vSNSPUwObmlaidbPt2aNKVnSEZNnp6z6rC0bmmOzXDOdRpvc0rJLgku4hL6Rc4w+IlfbKnuaUWreLfh4y/eTPT+3A5apf0JT9d2VBOvTufSbRnyVjFpPXR5uOlZm65s3jQznBOa8jfHvVlcg+XVt5M8imquWxv+Tl6uJX+WVlc8v23TWMd9Osw1bDbTehvydOdSKfJySfoud/WGS4HCUYyhBRaklw7rPn6iKYyTUk/OT/V6VXBSfdtftX3nPs/HWdnzRp1TtEzGSk6q5pQ3IwqUK1Tgk2/MjLKMTCNaF1dbo3X0lqZtmuByGG+St2Ky4vzDZNii8Wva+kQnNnmsxERrqq+np3N5ceqn9Vns8urYV2nFxf8ASTRJKvSTL8Wlw88uPsRI8Fi8FqzDt2700+cZf98jTOx4ckWjHk+1Crj3rpNq9FW4vDxiWll1R5ngFfi3TafpSt+4rDNYSwdSUHzi2vUWTo+W7Ax/v/4mT7Mi0cWluyNqmPszCrLy3Fk6spyxWWeLx8WD4dytcrqNtxNdO6twmHh1VZ2S4Rk+Vu5nGwZqxbJjnpvJz1nSto+CP6c6Q8RlVNU6kd8Y8E72kl3edG/jtfPUEepp0XepaN272v22R3qumdI4x7k4q/kTsvVexnQelNKXcXFS9O6b9HP2WPWrW8dLZI3WWZrPpXqx17Ujhsv2vm3CK9Ks/wBx5gNN6co4WFScFbYpSlJvtXFvjYguq9RVc/muFoR+av3vzk+jF1co/wBT9iOaZa3tktEa6QWrNYrGvq+NHW2mcuWymntXkQsv3H0wOfaY1FPq9i3Pj48Er+hrtIVofT2HzupPffbFdjtxfIVcvoZLmkIwbajOFr81fmrlcZ8ulZtEbszo6mlesRPV28+yqnk9VKPzZK683ehRd0dTX0bKk/PJew4+Dd4ny3tXFWmW8R6PW2S8zSNX3AB47YAAAAAAAAAAAAAAAAAAAAe8CdJRrDwADSTWO4ABpJrHcAA0k1juAAaSax3AANJNY7gAGkmsdwADSTWO4AeSkok6T2N6O7GrxR9MJn+PyyG2KTXNXXK5pVsYoGlPMUbdmnNSdadFGWKW6T1dWpq7PpcnFf3T4+FGofL/AGY/ccz4dfsPPhk+5no8fa5+Ms3Dw9odVan1D5f7MfuPpT1Nnz5z/Zj9xxvhdTuPPhs+4icu2d5NzB2h2JV6+Lluk7tmwji0sZVfYzfo4iUjy82HJ/laGul6aaRLDMuRKNCyUsNJd037URnHLdE72gJvq6q/pL7D2vYf+cx90sW3f46olKLhXmv6T+09jUeHrQl3Si/U0Z5rJUMXVX9NmtjK9NNMzTFq59dPisiYmmmqd65oqthlLyZJ+vh+8gTrXiWBn9WnXy5y/oRf2FXLFQbsel7SxTbLWYj1iGXZrxFZ6rT0rFYPA7v0pfRxt9hBsD+Fm33tv1k4zerHJ8ua5Wgo/S+H3kFyqtBnPtjWK46RHpDrY5jW1u8uhjJOKPMDnOe45KhSaTs7SfBpekyxMoyRIdJZnllRKmo2qJNvhzt23Mnsamt5ibbv/a3bbREa6aoHRwGM0rmFKVfir7nKN5c7q/fc6OvM6wucTpdU21FNt2aV3a1r+gmmd6wyrJKmyopXsnwjdWZ8cu1jkGcTUEuMuCUorj5j6a+Ouk44vpq8yLTrFphD6Gp81lQ6tyurW3P51u652sm0hh8xw6lve535cl6Ua2sMsw+V1U4qymm7dia5nDw+c4zKnupyt5ux+lHixaa5Zrmjfj0bZjWu9SdG/g9J5lRxsITj4l9zkuMXFcefZ6CS65zHqIwprnJ3foXL1nc07mVbNsPGpKG1vs7Hbt+ki+sNM4/E1XWg9ysrx7Ypd3eettGDdwXjHHqy0vreJt8HNwL8U59Z7KsX3SX2mzgZuKNTGNb16T47Z6zGWHs5Jjc9Uw6Ro78D6JRfsZzOjvIK2DTrz4Jxain3PnJ+buO3rf8AiL9MCPV9V4zM6KgoqHCzs+fm8x9dtOfHjvN7dZ0jR4+OtrRux6Pp4T5dSx1Sc47otKEXa9tvbbznQq9I+R4blCbfcor7yG4fKK+YTUYq7fq+kneXaeyfSdN1alnJLjOXG3miv+2V7FmzXibT0r3TnpSvT4u5k2aSzanvdOdPjwVRWbXY7efzkdzDpDwuV1XCdGpFptJtJKSvzXmZ29PZ/S1DCU4xcYqTir83wTv7TUo5lkmrFUpSSbjKUXGXPxXbdF/vR69p1iN23WWWI69YcfGazwea0nGMHx8qxGMZNSOpm+mKmRyvG7pvk+1eZ/ecbEpnxu18Sc0cSOsPXw7kUndlYNb/AMpln+rXt/8AxIVlcSZ6gcllvDshD9xXmW49xNPtelp3IiPhCvY7RG9+KTWRpZi4qJ7DEykaWPrbj5/HhtvRGj0rXjT1SXRiWX4avWa4K7+iEW2fn6pUlVbb4ttt+l8z9C5xF5NklVdroyX01OH/ABH54P0nZabtKV7Q+byW1tMgANKsAAAAAAAB+ntC/wAm4X+qiSEj2hf5Nwv9VEkIFfas6Ksrzy86NqNXnwX4OT88Vyfnj6mUrnmns007U2VoOL7HzjJd8Zcn9q7bH6rNXMMtwWbU3CrCM4PnGSuvT5muxrigPyUC1dWdD+Iwt54VucebpSfjr9GXKS8z4/pFW1aVShJxknFrg1JWafc0+IGAAAAAAAAJrQy7NMXgKde+6nF9Xa93Gzslbu5ciws21PluKy3q4NubhCO3a1Zq17u1uzvOT0aahwmS5bN1LtLENKyvzhB/uZJ6fSHp2q7WkvTBWPOyVpE3iL6by6sz0nTXRDtO5/meUK0XdeTLil6O47GRZTHUdWpKpNp8+HN3/cju6qy3BYjD9dBJWSd1wUov/wDEgsMVUocYtprk0eFn3sWStb/bq300tWZr9mXU1HpDMsA7wTnDzfOXpX70TSo1prAJfjRjb0zl/wBTS0XqPHZw5QnG+xJ71237Gu/0G/q3I8RntJKErOL3WfKXmbPYphpGO98Uf5Qx2vM2iLT6ILlsnU4nwzDhI+mGo4jAycZqzXNM+GOe5nx1KWjL1j4vZtMbnqsnPc/o6dwyqyi5LxVaNr+N6TzS2o6WqKDqRi4pScbPjys+z0nubZJR1DhFSlJpNQd1xfCz7T3TOnaGmKDpxk5Lc5XlZO7SXZ6D9ArvdO2j5+dEfyXpIwudYpUVSkm21uck1wTfL6DldJVCWJxWHiuclb1yR3Mj6OssyTEKrGc3JXspWtxTXYr9px9f1MXDHYd0k5TjFtJK9+Pd9BnzxO517rKT16JtjsHljw6pVWlBpR4y23227U0+xcjLJMDlmApbaFtl3yk5K/bxbZWmpMBq3U+1yotbVwS4Lj28XzJf0eZRjslwsoVY7ZObdrp8GkuxvuOsd9Zn7OiLV0j1eVdNaZgpSi0ubuqjfH0Ns4FDZA42G0bqGnNt0na7fOPf6TedKvh3Z8GuaZ8p7Wpa0xO5uvV2O0RE/a1beIxCibmVZLis4i5J7Y9jfaz55Np+tm8ryuqa5vyvMiQZ/ntHJqfV07b7WSX4q7zrY/Z9K0nLm9PhHdGbaLTbcp6o7lWnq2ZVKkXLbsdnbjx8y7jqVejrB1vnVZfQkvvIvhq2Ow7coykm+bT4s1aVXNMyxNODqT4zivnPldXNOxZdn1ivC691WamTrO/0Wv8AFWFp4dUX8xRUOdnb0nA8AdMdz/WP7yQ46vl6206jj491GMu23P7Su9SdH9TBN1KF3Dm4X4x9HmPoc+kRMxTe0efT19dFh0MHgcNR6pcIbdtr9jVufMh+c5DlmU7XTfFv5t7/APUhuCoVO9ndw2HaPmdv9o1vWacP83p7Ps81mJ3mjjVxJ7mt8Rll++nF/YyCZjHaTuraeVr+pXsSO/ZX/jzfgja/8qfirTJ6aniKd/Lj9qJ30i0pyoQduClx+lcCD4SEoyuuad19BZOB1BlmaUttWybVpKfJ/S+BdseSlq5MUzuzKvNExNbeqrY1KW0nPRs5NVu68fXxOjLSOmJfT3TdvtNqeYZPp6ltp2v2Ri7tvz/9S/Z9nrgmclrxpCvJl34isQrvWDUsZVt3/uRYOkvweXx9E3+0ytcwc8RNyfNtt/SWfgYrBZcv6q/rVznYr705r/dKc0aRSFaYeKlJ+kmuB0vp7GUouTu2uPj2s/QmQzDwudPAabxWfqW2Sjttxd+083YrzxJiKb2rTmiN2PtaJJR0No/EuyipPzVZN+pSPXo3R2ElZpRfc6sk/VuIz0eYargswrQlzjCUX6VJEoz7QGEzyu6rqSi2krJK3BWPp41tSJikavMnpP8Aki2rcpyfAuHUtcb3SluS7uPEl38FlD/qX9hEs+0tHInG09ylfmrNWPis0zXG044dS8WVo2sr2v387HkY8+5kyVmukz00hrtTerWYnXRJujrBLLsHKpL8duX92Ksv3kNy2pLN8xjLyqif0X4E71VWhkmAVOPNpU16LcWcehoSpQpRqU6jdSylw4Lv4M15621rFY13Osqscx1mZ01dLXElUdNel/uORhY7Imi54mtLx23JcOPP0HSpqyPkfaGacl7W001exs1IpWI1ZAA83SWnejuAAaSax3AANJNY7gAGkmsdwADSTWO4ABpJrHcAA0k1juAAaSax3Q/4zxnlsfGeM8tmkD9Z5XD8uP0fiHObR82f1lu/GeM8tj4zxnls0gOVw/Lj9DnM/wA2f1lu/GeM8tj4zxnls0gOVw/Lj9DnM/zZ/WW78Z4zy2PjPGeWzSA5XD8uP0Oc2j5s/rLd+M8Z5bHxnjPLZpAcrh+XH6HOZ/mz+st34zxnlsfGeM8tmkByuH5cfoc5n+bP6y3fjPGeWx8Z4zy2aQHK4flx+hzm0fNn9ZbvxnjPLY+M8Z5bNIDlcPy4/Q5zaPmz+st340xflswqZnjH+OzVPJK4jZcPy4/QjbM/zZ/WU40diMjq0pOvOO9Sf8JJLh2WT4Ehnn+jsN+PS+hJ/YmVDLD7j5PBXOowY49Kw9jH7byRWtfXRb3h3pOjykv7sH9x8pdJWm49svoiVN8CiZfA4nfDr2RPtvKtX5T9Pf0/q/8AUfKdp1eX9Qqn4HA9+BxG5Xsj31lWzHpK09Ltl9Uh2qNTUs1rJ0rqKVm7WuyMLCRR9Y0lE5thpPSa6qM3tbNeNItp+DbqZjjJL5zJF0f59RwFWoqs7KSVnJ2V1e/Hl2kVsYOnciuDHX0pEM+H2jmpaJm8z+Mu9nC+P80caVRKM2luXLhFXt3kll0ZRqc8TP6q+8reMKlGScW01ya4NGzWzfOavOtU+syJwUnruw9LD7UiNZvrMz96xn0cwnFReKquK7OFvUML0Y5bhpxl1tR2adnts7dnIrB4zNH/AKWp9eX3nnwrNPytT68vvJ4NezRHtfHH+39146iyGlqKkoOcopS3Xjbja/B37OJEsT0e/F9OUoYiXBN+Mlbh3tMrz4Vmn5Wp9eX3n3jjsylFp1JtPmnJu4nBSfWurjL7WpMT9mY/N9PjDFtfOZ0dGZjUw2Pp7pcJXi7+dcPakciEGj5zhKLuuDXaIwY49KxDysW35YvEzeZj8Vg9Iuks1zqrTnRW7xdsldJ87p8fScLTGgtS4PE0qk0lGMk3eSvZeZDCdIee4GKXiztyc07+tNGUOk7PHNNxhtTV4xXNdvFscKOz3q+0MEzFt6YTvVumK2odm2ps2buy972KlyvA5hmmKVHc/ntNrsUX4z9h3NTa5xmcNdU5042akr8ZN+g0dHZ3T07WlOUdylG11zXG/b39pHBpPWaxMqsu30nJXS0xEesp9r3OFp7BKnTdpTWyNuaiub+hEa0j0iYjCpQxF5R5Kf4y9PevPzOHqbOKmoq+9q0Vwin2L/qc6nRiiyKQx7R7VvvzNJ6QkGpM8oYvEOVFtRsr2VrvtdjhTxmJqSV5PmjLYj5zp3K+Xxeu5DB7xzTbe35/Va+vaso4B2fbAqvD4zEwXzmbOJzHH42CjOcpRXJN8FbkasIWOrYKT61iV+1e0r3trS01j8Ul0nq2nkjn1ict1rSXNW7PQzhaq1JmGoKl7tQXzY93nfnPjsR8qlJMmMdNNNOiqPaWfpE3notDoxhKjgW32zk/Yl+4qqpjcbhsVOcJOLVSTTX6TJFlGq8xyai6cVGzvZtcVc4CpKTuOHXs27R7T1rSK2nWPVPqvSHSxeEcZQbquNuXi38q/tsQSWMxT/GZnsQ6tEWw456zWJYb+0s9tPtzGiwdL61y+tRVHENJpbby+bJed9/pOjHMND5d4ylSv5vGfqVyqJYfcY/BExOKk6dG7H7ay1rEeqa6s1lgcyhGNG9077rW4d3eRrI1i82xVKG52lJX9C4v7DS6hI6Gn80lkOIVTapcGrPuduXn4ETgx+u7GqrH7RyWyRa+SYhMulzMHh8Gqa/HfH9GNn9tiiSwdZZ3V1G5Sa2qMGoq9/OyviZjR9HsW0xl4kx6agAIbwAAAAAAAH6e0L/JuF/qokhI9oX+TcL/AFUSQgAD5169HCxcpSUYpXcpOyS723wA+hBOknL9KVKDniHGFXa+rlHhUk7eKrJNyjfndNLzHC1Z0w0qF4YRbnydWS8VfoxfP0y4eZlQY7H4vM5udScpyfOUnd//AIeZcgNcAAAAAAAFlaLyXE57lWJhD56rRlG/a1FXX0o1qXRzq2b+Yl6ZI09F6mzLTtOXV2alK7jJXV0kr8LMkVfpOz+fKMF51F/vY4cT1mHkZttwxe0TaYmFjPJMRicvVByUZ9XGLlzs1a5UOpctxuna/V9Zvuk01w58LWJHjekjFYzC7FGUatleatbztdvEh9DG1/hEas71GpRk9zvezvYcGs9ZrqzbT7QxzuxW0x963shw8NJ5fvqPxtrqT77tcF9HIrrJNf5vga8pSbnCcm5QfZfye63cdLVmsfj+nGEIuMecr9vcuHYRSlQijutIj4Mu1+0+sRjt0j4pxq3VeWZrSh1d997t2s4rtTIPUxuLnL5z5n16tI+ThtdzicGP13I1Yp9pZrWi03mFp6+xeKwGWrZJxl+DV07Psvx+gw0Tj3HKt057pJVG3KV2uLtdvj2Ii2qNWrP6Eaag42abba7FbgRanTnCLV3Z9l+B3FIell9qxFp3ftRolHRU8di8ZOUpylGMJcHJtXk1b2Jm7qvU1XJs1U0t2ymotPh85N8/pOHpjP8AEaalPbFSU0r3duXLic/Mq9TNa0qkucnf0eYbkdleT2p/p1itvtJZW6W8VFcKEfpm/dJppfUNfO8I60oqLvLgn2RKYqYeDRKsn1csqwbo7G341nfh43f6LkzVOy+1Z1txLfB9YdK+ZTbXVQ597I9js9x+PqSm5NOTvZckaFGjFM2NkUc2x0t611edl9o5pnpeYSLB68zTB4dU0ldKyn2pejlcj3w3G1ZNuTbfFtnm1HthbFSYiJrqptt+ef8AfL7yzDFwXzmdro8jicfjrttqEZN+l8F9vsI5U5Ei0TqHB6edTen4+2zSvyvw9pxy+OPSkQ2bBtl9+OJknT8TpVzGtUxVOCfCEL8O+T/6I29HdIFXD2p4h3XKNR815pebzkZz3GrOcROp2N8L87JWX2Gi6CLNyOyy/tO8ZJtE9NVmax065QdejK1leUVykuba8/2kDo5njPLY+Ncy6nqt72eT+6/O3mNWnHaVctin1pH6Kdr9o3vOtLTX8zG47FzfzmWrVqzp5Le/H4OuPnaKnqw3Egr6txlfCKhtSSio7r8Wl5jqMNI9KxC3ZPaM1rk37zMzHRwMLisUvxmfWdfFS/GZ8qUNp9SOXxeEPPttufX/AMk/q+LlivKZ9YVsVH8ZntxzJ5fH4Qjns/zJ/V8adTGYurCCk/Gkl62W1rjFSyrL3FPi1GCfqv8AYVdleMWWYiFTbu2u9jt6w1StRKEYxcYx4u/Nv6O4RhpHpWIetg2/dw31vM2n0ReOPxUV85lsdGtOt8EcpP583b0Ky+25U7p8Cc4fWWDwOXKlBNVFBx5cLvm7/TcRhpHWtYhOw7dMTacmTXp6TKWZLpGjk+Kq1+tlJ1L3TSsnJ7nxX3HL1NpTUmaYh1KOJ6uNklDdJclbs4cSq6WLzOm+FWovROX3nRpal1Dh+Vaf0u/2nUUhrn2tjnpNXbx2i9bS4yn1lv6d37T5ZB8Y6XxKqYmnUUEmr7bpN8ndcPaYYbpD1FhubjL9KK/dZm/jukLF5nQlTlTinJWunw48+DRxwaa67sOLbdi01reYmPh8HN1lqeWf1lsbUIqyvwu3zdjY0nrPF5H4s7zp93bF+bzeYjtOkj6dWizh1110ePPtLNvb2+62dahnmdeU4Xgnbh28O36TXWaYzy2aWxHvIrnZsM+tI/RTfbs8zM8Sf1bvxpi/LY+M8X5bNIEcrh+XH6OOc2j5s/rLd+M8Z5bHxnjPLZpAcrh+XH6HObR82f1lu/GeM8tj4zxnls0gOVw/Lj9DnM/zZ/WW78Z4zy2PjPGeWzSA5XD8uP0Ocz/Nn9ZbvxnjPLY+M8Z5bNIDlcPy4/Q5zP8ANn9ZbvxnjPLY+M8Z5bNIDlcPy4/Q5zP82f1lu/GeM8tj4zxnls0gOVw/Lj9DnNo+bP6y3fjPGeWwaQHK4flx+hzmf5s/rIADQygAAAAAAAAAAAAAAAAAAAAAAAAuAAAAA9ueAD08uAAAACx7Y8AHrPAAPRZHgAbYmLpQMgDWWPVxPVCKPQDWTaj3keABcAAAAAPTwALIWQAAAAAAAG1AAYVKcZprvViEtOLJyRHNaPUVZed3X08Tiz6P2Fl+1kp36/o0wAcPqgAAAAAAAH6e0L/JuF/qokhIbp7Pct0/lOGnWmoLqo2vzk7cox5t+grfVnSxmWcXhQvRp8t3+kkvSvm+iPHzgWVqvpFyfTF436yr+Tg+T/py5R9HF+YpDUuss41TL8JK0E/Fpx4QX0dr88rv0HAbcjwAAAAAAAAAAZU4Oo0lzbt6wi06RMpVlFJQox89362bjpQYpwVNJdyS9RkXQ/Oc+SbXvbvMseriNkTIBVrLzaj21gAh7c8sgAG1DgADUsj2yR4ADCigAFkgAAAADmebUegDFQSMgAAAA94HlkAA4AAAAAG1M82I9ANXjimebEZAGrxJI9sgAavNkQoRR6AagAAAAAAAAAAAAAAAAAAAAAAAAAAAAAAAAAAAAAAAAAAAAAAAAAAAAAAAAAAAAAAAAAAAAAAAAAAAAAAAAAAAAAAAAAAAAAAAAAAAAAcXUGG3RUu7g/Q+X/fnO0YVqUa8WnyasRMNWyZ+FkpfshAPpXozw8nF80z5lT9BraJiJj0kAAdAAAAAD618VXxNt0m9qUY3fKK5JdyPkAAAAAAAAAAAAA6mR4brql+yPH6XyOWuJLsswnwOml2vi/T3fQdVh5PtbaeHimI9bdG4ACx8QAAAAAAAAAAAAAAAAAAAAAAAAAAAAAAAAAAAAAAAAAAAAAAAAAAAAAAAAAAAAAAAAAAAAAAAAAAAAAAAAAAAAAAAAAAAAAAAAAAAAAAAAAAAAAAAAAAAAAAAAAAAAAAAAAAAAAAAAAAAAAAAAAAAAAAAA5Gd4DrlvXNc/Ov+hHCdEazfLPgz3R+a/Y/uOLQ+n9j7fHTDefw/+OUADh9MAAAAAAAAAAAAAAAAAG3gMDPHSt2Lm+7/AKhXkyVpWbWnSIbeSYDrpbnyXLzv/oSQwpU4UUkuCRmWxGj4PbdrnNebfD4AAJYgAAAAAAAAAAAAAAAAAAAAAAAAAAAAAAAAAAAAAAAAAAAAAAAAAAAAAAAAAAAAAAAAAAAAAAAAAAAAAAAAAAAAAAAAAAAAAAAAAAAAAAAAAAAAAAAAAAAAAAAAAAAAAAAAAAAAAAAAAAAAAAAAAAAAAAAA8lGM1Z8Uz0AidOqM5nlMsL40eMfav+hyydczjY/I41OMOD7ux+juOJq+o2D2vHSmWfz/APqPAzq0qlB2as/OYHD6StomNYnUAASAAAAAAAAA9ScjsYHI51OM+C7u1+nuJiGbaNqx4o1vbRo4DL6uOfDgu1/99pKsPh6eFjZLh/3xM6dOFJWSsl2IyLIjR8bt3tC+edPSsfAABLzQAAAAAAAAAAAAAAAAAAAAAAAAAAAAAAAAAAAAAAAAAAAAAAAAAAAAAAAAAAAAAAAAAAAAAAAAAAAAAB7YWA8B7YWA8B7YWA8B7YWA8B7YWA8B7YWA8B7YWA8B7YWA8B7YWA8B7YWA8B7YWA8B7YWA8B7YWA8B7YWA8B7YWA8B7YWA8B7YWA8B7YWA8B7YWA8B7YWA8B7YWA8B7YWA8B7YWA8B7YWA8B7YWA8B7YWA8B7YWA8B7YWA8B7YWA8B7YWA8B7YWA+NfDUcSrSV/wDvvOPidP8AkP6Jfed6wsRMNez7bmxf426dvghtbAYrD84v08160axO7HxqYTD1ucU/Sjnde1i9vT/vx/ohQJZLJ8BL8X1N/eY/EeB7n62Ruy2R7c2fxn+/mioJXHJcBH8X2v7zYp4DC0uUV6huuL+3cPwpMojRw1ev82LfoX7zp4fIK0/nO3mXF/cSKx7Y6irzs3tvNbpSN3/lq4XAYfB/NXHvfF+v7jZPbCx08W+S151tOsvAe2Fg4eA9sLAeA9sLAeA9sLAeA9sLAeA9sLAeA9sLAeA9sLAeA9sLAeA9sLAeA9sLAeA9sLAeA9sLAeA9sLAeA9sLAeA9sLAeA9sLAeA9sLAeA9sLAeA9sLAeA9sLAeA9sLAeA9sLAeA9sLAeA9sLAeA9sLAeA9sLAeA9sLAeA9sLAeA9sLAeA9sAPnvG8xB6/Ax+L6flMPgy3jeYgcDH4nKYfBlvG8xA4GPxOUw+DLeN5iBwMficph8GW8bzEDgY/E5TD4Mt43mIHAx+JymHwZbxvMQOBj8TlMPgy3jeYgcDH4nKYfBlvG8xA4GPxOUw+DLeN5iBwMficph8GW8bzEDgY/E5TD4Mt43mIHAx+JymHwZbxvMQOBj8TlMPgy3jeYgcDH4nKYfBlvG8xA4GPxOUw+DLeN5iBwMficph8GW8bzEDgY/E5TD4Mt43mIHAx+JymHwZbxvMQOBj8TlMPgy3jeYgcDH4nKYfBlvG8xA4GPxOUw+DLeN5iBwMficph8GW8bzEDgY/E5TD4Mt43mIHAx+JymHwZbxvMQOBj8TlMPgy3jeYgcDH4nKYfBlvG8xA4GPxOUw+DLeN5iBwMficph8GW8bzEDgY/E5TD4Mt43mIHAx+JymHwZbxvMQOBj8TlMPgy3jeYgcDH4nKYfBlvG8xA4GPxOUw+DLeN5iBwMficph8GW8bzEDgY/E5TD4Mt43mIHAx+JymHwZbxvMQOBj8TlMPgy3jeYgcDH4nKYfBlvG8xA4GPxOUw+DLeN5iBwMficph8GW8bzEDgY/E5TD4Mt43mIHAx+JymHwZbxvMQOBj8TlMPgy3jeYgcDH4nKYfBlvG8xA4GPxOUw+DLeN5iBwMficph8GW8bzEDgY/E5TD4Mt43mIHAx+JymHwZbxvMQOBj8TlMPgy3jeYgcDH4nKYfBlvG8xA4GPxOUw+DLeN5iBwMficph8GW8bzEDgY/E5TD4Mt43mIHAx+JymHwZbxvMQOBj8TlMPgy3jeYgcDH4nKYfBlvG8xA4GPxOUw+DLeN5iBwMficph8GW8bzEDgY/E5TD4Mt43mIHAx+JymHwZbxvMQOBj8TlMPgy3jeYgcDH4nKYfBlvG8xA4GPxOUw+DLeN5iBwMficph8GW8bzEDgY/E5TD4Mt43mIHAx+JymHwZbxvMQOBj8TlMPgy3npgBwMficph8AAFzUAAAAAAAAAAAAAAAAAAAAAAAAAAAAAAAAAAAAAAAAAAAAAAAAAAAAAAAAAAAAAAAAAAAAAAAAAAAAAAAAAAAAAAAAAAAAAAAAAAAAAAAAAAAAAAAAAAAAAAAAAAAAAAAAAAAAAAAAAAAAAAAAAAAAAAAAAAAAAAAAAAAAAAAAAAAAAAAAAAAAAAAAAAAAAAAAAAAAAAAAAAAAAAAAAAAAAAAAAAAAAAAAAAAAAAAAAAAAAAAAAAAAAAAAAAAAAAAAAAAAAAAAAAAAAAAAAAAAAAAAAAAAAAAAAAAAAAAAAAAAAAAAAAAAAAAAAAAAAAAAAAAAAAAAAAAAAAAAAAAAAAAAAAAAAAAAAAAAAAAAAAAAAAAAAAAAAAAAAAAAAAAAAAAAAAAAAAAAAAAAAAAAAAAAAAAAAAAAAAAAAAAAAAAAAAAAAAAAAAAAAAAAAAAAAAAAAAAAAAAAAAAAAAAAAAAAAAAAAAAAAAAAAAAAAAAAAAAAAAAAAAAAAAAAAAAAAAAAAAAAAAAAAAAAAAAAAAAAAAAAAAAAAAAAAAAAAAAAAAAAAAAAAAAAAAAAAAAAAAAAAAAAAAAAAAAAAAAAAAAAAAAAAAAAAAAAAAAAAAAAAAAAAAAAAAAAAAAAAAAAAAAAAAAAAAAAAAAAAAAAAAAAAAAAAAAAAAAAAAAAAAAAAAAAAAAAAAAAAAAAAAAAAAAAAAAAAAAAAAAAAAAAAAAAAAAAAAAAAAAAAAAAAAAAAAAAAAAAAAAAAAAAAAAAAAAAAAAAAAAAAAAAAAAAAAAAAAAAAAAAAAAAAAAAAAAAAAAAAAAAAAAAAAAAAAAAAAAAAAAAAAAAAAAAAAAAAAAAAAAAAAAAAAAAAAAAAAAAAAAAAAAAAAAAAAAAAAAAAAAAAAAA+nUyHUyNiwsZOJZ6vK0a/UyHUyNiwsOJY5WjX6mQ6mRsWFhxLHK0a/UyHUyNiwsOJY5WjX6mQ6mRsWFhxLHK0a/UyHUyNiwsOJY5WjX6mQ6mRsWFhxLHK0a/UyHUyNiwsOJY5WjX6mQ6mRsWFhxLHK0a/UyHUyNiwsOJY5WjX6mQ6mRsWFhxLHK0a/UyHUyNiwsOJY5WjX6mQ6mRsWFhxLHK0a/UyHUyNiwsOJY5WjX6mQ6mRsWFhxLHK0a/UyHUyNiwsOJY5WjX6mQ6mRsWFhxLHK0a/UyHUyNiwsOJY5WjX6mQ6mRsWFhxLHK0a/UyHUyNiwsOJY5WjX6mQ6mRsWFhxLHK0a/UyHUyNiwsOJY5WjX6mQ6mRsWFhxLHK0a/UyHUyNiwsOJY5WjX6mQ6mRsWFhxLHK0a/UyHUyNiwsOJY5WjX6mQ6mRsWFhxLHK0a/UyHUyNiwsOJY5WjX6mQ6mRsWFhxLHK0a/UyHUyNiwsOJY5WjX6mQ6mRsWFhxLHK0a/UyHUyNiwsOJY5WjX6mQ6mRsWFhxLHK0a/UyHUyNiwsOJY5WjX6mQ6mRsWFhxLHK0a/UyHUyNiwsOJY5WjX6mQ6mRsWFhxLHK0a/UyHUyNiwsOJY5WjX6mQ6mRsWFhxLHK0a/UyHUyNiwsOJY5WjX6mQ6mRsWFhxLHK0a/UyHUyNiwsOJY5WjX6mQ6mRsWFhxLHK0a/UyHUyNiwsOJY5WjX6mQ6mRsWFhxLHK0a/UyHUyNiwsOJY5WjX6mQ6mRsWFhxLHK0a/UyHUyNiwsOJY5WjX6mQ6mRsWFhxLHK0a/UyHUyNiwsOJY5WjX6mQ6mRsWFhxLHK0a/UyHUyNiwsOJY5WjX6mQ6mRsWFhxLHK0a/UyHUyNiwsOJY5WjX6mQ6mRsWFhxLHK0a/UyHUyNiwsOJY5WjX6mQ6mRsWFhxLHK0a/UyHUyNiwsOJY5WjX6mQ6mRsWFhxLHK0a/UyHUyNiwsOJY5WjX6mQ6mRsWFhxLHK0a/UyHUyNiwsOJY5WjX6mQ6mRsWFhxLHK0a/UyHUyNiwsOJY5WjX6mQ6mRsWFhxLHK0a/UyHUyNiwsOJY5WjX6mQ6mRsWFhxLHK0a/UyBsWA4ljlaPQAVtYAAAAAAAAAAAAAAAAAAAAAAAAAAAAAAAAAAAAAAAAAAAAAAAAAAAAAAAAAAAAAAAAAAAAAAAAAAAAAAAAAAAAAAAAAAAAAAAAAAAAAAAAAAAAAAAAAAAAAAAAAAAAAAAAAAAAAAAAAAAAAAAAAAAAAAAAAAAAAAAAAAAAAAAAAAAAAAAAAAAAAAAAAAAAAAAAAAAAAAAAAAAAAAAAAAAAAAAAAAAAAAAAAAAAAAAAAAAAAAAAAAAAAAAAAAAAAAAAAAAAAAAAAAAAAAAAAAAAAAAAAAAAAAAAAAAAAAAAAAAAAAAAAAAAAAAAAAAAAAAAAAAAAAAAAAAAAAAAAAAAAAAAAAAAAAAAAAAAAAAAAAAAAAAAAAAAAAAAAAAAAAAAAAAAAAAAAAAAAAAAAAAAAAAAAAAAAAAAAAAAAAAAAAAAAAAAAAAAAAAAAAAAAAAAAAAAAAAAAAAAAAAAAAAAAAAAAAAAAAAAAAAAAAAAAAAAAAAAAAAAAAAAAAAAAAAAAAAAAAAAAAAAAAAAAAAAAAAAAAAAAAAAAAAAAAAAAAAAAAAAAAAAAAAAAAAAAAAAAAAAAAAAAAAAAAAAAAAAAAAAAAAAAAAAAAAAAAAAAAAAAAAAAAAAAAAAAAAAAAAAAAAAAAAAAAAAAAAAAAAAAAAAAAAAAAAAAAAAAAAAAAAAAAAAAAAAAAAAAAAAAAAAAAAAAAAAAAAAAAAAAAAAAAAAAAAAAAAAAAAAAAAAAAAAAAAAAAAAAAAAAAAAAAAAAAAAAAAAAAAAAAAAAAAAAAAAAAAAAAAAAAAAAAAAAAAAAAAAAAAAAAAAAAAAAAAAAAAAAAAAAAAAAAAAAAAAAAAAAAAAAAAAAAAAAAAAAAAAAAAAAAAAAAAAAAAAAAAAAAAAAAACXfJ1m/l0vrS9wfJ1m/l0vrS9ws8GHjX7uNVYfJ1m/l0vrS9wfJ1m/l0vrS9ws8DjX7mqsPk6zfy6X1pe4Pk6zfy6X1pe4WeBxr9zVWHydZv5dL60vcHydZv5dL60vcLPA41+5qrD5Os38ul9aXuD5Os38ul9aXuFngca/c1Vh8nWb+XS+tL3B8nWb+XS+tL3CzwONfuaqw+TrN/LpfWl7g+TrN/LpfWl7hZ4HGv3NVYfJ1m/l0vrS9wfJ1m/l0vrS9ws8DjX7mqsPk6zfy6X1pe4Pk6zfy6X1pe4WeBxr9zVWHydZv5dL60vcHydZv5dL60vcLPA41+5qrD5Os38ul9aXuD5Os38ul9aXuFngca/c1Vh8nWb+XS+tL3B8nWb+XS+tL3CzwONfuaqw+TrN/LpfWl7g+TrN/LpfWl7hZ4HGv3NVYfJ1m/l0vrS9wfJ1m/l0vrS9ws8DjX7mqsPk6zfy6X1pe4Pk6zfy6X1pe4WeBxr9zVWHydZv5dL60vcHydZv5dL60vcLPA41+5qrD5Os38ul9aXuD5Os38ul9aXuFngca/c1Vh8nWb+XS+tL3B8nWb+XS+tL3CzwONfuaqw+TrN/LpfWl7g+TrN/LpfWl7hZ4HGv3NVYfJ1m/l0vrS9wfJ1m/l0vrS9ws8DjX7mqsPk6zfy6X1pe4Pk6zfy6X1pe4WeBxr9zVWHydZv5dL60vcHydZv5dL60vcLPA41+5qrD5Os38ul9aXuD5Os38ul9aXuFngca/c1Vh8nWb+XS+tL3B8nWb+XS+tL3CzwONfuaqw+TrN/LpfWl7g+TrN/LpfWl7hZ4HGv3NVYfJ1m/l0vrS9wfJ1m/l0vrS9ws8DjX7mqsPk6zfy6X1pe4Pk6zfy6X1pe4WeBxr9zVWHydZv5dL60vcHydZv5dL60vcLPA41+5qrD5Os38ul9aXuD5Os38ul9aXuFngca/c1Vh8nWb+XS+tL3B8nWb+XS+tL3CzwONfuaqw+TrN/LpfWl7g+TrN/LpfWl7hZ4HGv3NVYfJ1m/l0vrS9wfJ1m/l0vrS9ws8DjX7mqsPk6zfy6X1pe4Pk6zfy6X1pe4WeBxr9zVWHydZv5dL60vcHydZv5dL60vcLPA41+5qrD5Os38ul9aXuD5Os38ul9aXuFngca/c1Vh8nWb+XS+tL3B8nWb+XS+tL3CzwONfuaqw+TrN/LpfWl7g+TrN/LpfWl7hZ4HGv3NVYfJ1m/l0vrS9wfJ1m/l0vrS9ws8DjX7mqsPk6zfy6X1pe4Pk6zfy6X1pe4WeBxr9zVWHydZv5dL60vcHydZv5dL60vcLPA41+5qrD5Os38ul9aXuD5Os38ul9aXuFngca/c1Vh8nWb+XS+tL3B8nWb+XS+tL3CzwONfuaqw+TrN/LpfWl7g+TrN/LpfWl7hZ4HGv3NVYfJ1m/l0vrS9wfJ1m/l0vrS9ws8DjX7mqsPk6zfy6X1pe4Pk6zfy6X1pe4WeBxr9zVWHydZv5dL60vcHydZv5dL60vcLPA41+5qrD5Os38ul9aXuD5Os38ul9aXuFngca/c1Vh8nWb+XS+tL3B8nWb+XS+tL3CzwONfuaqw+TrN/LpfWl7g+TrN/LpfWl7hZ4HGv3NVYfJ1m/l0vrS9wfJ1m/l0vrS9ws8DjX7mqsPk6zfy6X1pe4Pk6zfy6X1pe4WeBxr9zVWHydZv5dL60vcHydZv5dL60vcLPA41+5qrD5Os38ul9aXuD5Os38ul9aXuFngca/c1Vh8nWb+XS+tL3B8nWb+XS+tL3CzwONfuaqw+TrN/LpfWl7g+TrN/LpfWl7hZ4HGv3NVYfJ1m/l0vrS9wfJ1m/l0vrS9ws8DjX7mqsPk6zfy6X1pe4Pk6zfy6X1pe4WeBxr9zVWHydZv5dL60vcHydZv5dL60vcLPA41+5qrD5Os38ul9aXuD5Os38ul9aXuFngca/c1Vh8nWb+XS+tL3B8nWb+XS+tL3CzwONfuaqw+TrN/LpfWl7g+TrN/LpfWl7hZ4HGv3NVYfJ1m/l0vrS9wfJ1m/l0vrS9ws8DjX7mqsPk6zfy6X1pe4Pk6zfy6X1pe4WeBxr9zVWHydZv5dL60vcHydZv5dL60vcLPA41+5qrD5Os38ul9aXuD5Os38ul9aXuFngca/c1Vh8nWb+XS+tL3B8nWb+XS+tL3CzwONfuaqw+TrN/LpfWl7g+TrN/LpfWl7hZ4HGv3NVYfJ1m/l0vrS9wFngca/c1kABSgAAAAAAAAAAAAAAAAAAAAAAAAAAAAAAAAAAAAAAAAAAAAAAAAAAAAAAAAAAAAAAAAAAAAAAAAAAAAAAAAAAAAAAAAAAAAAAAAAAAAAAAAAAAAAAAAAAAAAAAAAAAAAAAAAAAAAAAAAAAAAAAAAAAAAAAAAAAAAAAAAAAAAAAAAAAAAAAAAAAAAAAAAAAAAAAAAAAAAAAAAAAAAAAAAAAAAAAAAAAAAAAAAAAAAAAAAAAAAAAAAAAAAAAAAAAAAAAAAAAAAAAAAAAAAAAAAAAAAAAAAAAAAAAAAAAAAAAAAAAAAAAAAAAAAAAAAAAAAAAAAAAAAAAAAAAAAAAAAAAAAAAAAAAAAAAAAAAAAAAAAAAAAAAAANDO85wOnsPUrVZbYU47pP7El2tvgl2sDXzPVWQZLVjTrV6dKclujGpNRur2vd8OatzOvzPyDXerukjHVcbRoOoqdSLSe3q6cYeNTg9zSaSV5d/FvmWJ0VdJus9YZlGlVcZUlGcqjhTitqUWovcu+Vlw5gX0D8qa+yfpA0IoTq4+bVWclCNLFVnJW4u6koqyulwZ9850r0lZFl/wAMnj5dXspz2xxVfrLVXFRVnFRunNX8bv5gfqQFddCONxuY5RCdWpOpJ1KvjVJOcrKVkrybdlYo/pHp4XF6ixMKtd0KTnHdV2SqbPwMWvwcfGd3ZcOV7gfrUH4p1Flmnstpxlh8weJm5WcPg9WjtjZvdum7PikrLjx8xZtTo1xGd0cLXeZQw6q4XC7ac2182hTg38+N7uN+C7QP0SD8c5XkWLzPM54RY/bGDqL4RKbUH1fC6W+z3PgvG85Z2leinEYXGUKkc0hW6qpCpKnBuTlGEk2rKo+D5XaAvg5OUaoyLP5SVCvTquKvJU5qTSfC7samea60zpuoqdevGnNxUlGV77W2k+CfamfnzoK1RkmmMRiZYirGkp04qLlfi1Jt8kwP1IcbNtW5BkVSNOtXhTnJJxjN2bTbiml52miu8f8A5Q2l8FVnBUq01F2U4KG2a7JK8k7PzoqDpK1/l2tMfQr04VIxpwhFqe3c3GpKbtZtcpdrA/XgKZ/8SOmfyGI9VP3yY0NbVdS5PWxeEpz3qFTqoSjum5wuktkW73fYgJqD8xZl0w9KOTKLrUuqUr7XVw0qe63O2617X7DpZbq/pc1fal1U6cK0JbayoTpRV4OUJKuuEU2laSfG/DmB+iwfkDVk+kPRteFGtja7nOKmlTxVWXBycV2ri3Fkx+TXpk/PJ/7bVA/RwKP0boTpPyvH0KmIxU50YybqReKqTTW1r5j4Pi1zLwA4mE1hp7H4h0IV4SrJyi6ad5JwvvVv6Nnc7Z+QNL63wmlc5r4qcJVFKVeyg0nepNu93w5XLR/8SmS/mtb60ALuBSP/AIlMl/Na31oD/wASmS/mtb60ALuORnOqci09KCr16dJzvt6yW29rX9V1zOfU13lGEy2GNqvq6c6cZxi2nNuSvGCXbJ+b08j8w6gr6p6T62IxkaMpU6KV0rONGmruMUn85rjKW1N8W2kgP2Dh8RRxcIyjJSjJKUZRd1JPimnyafeaOc5/lOnoRlXqwpRlLanN2TlZu3qTPzVprWfS3qdTWGrqSpJOS/8AK09sex2movarc0rIj+aZ5rHpQnRotOvUoQqtqG3xvGcpT8W0OEdsFbnZWu5cQ/X+Bx2EzOnGpTnGcJcYzg1KL7ODXDmjYPyXpPWfSdmTjhcLW404bY0msPTajDhZdYo3atxV2+bfaXN0aQ6To4ip8Y36rq/Eu6D/AAm6P5LxuV+fACzgCu+lDpQwehqLhBqeKmvEhzUE/wAefmXYvxn5rtBIsbrzS2XV3RqYmnGqmk4SdmnJJpd13dcLkiPxpHTmsMJQhmlpNddv3y4zvdSVVxa+ZKXC7+xo/SnR10kZbrygrNQrxX4Wlfj+lHvg/ZyfZcJuAAAAAAAAAAAAAAAAAAAAAAAAAAAAAAAAAAAAAAAAAAAAAAAAAAAAAAAAAAAAAAAAAAAAAAAAAAAAAAAAAAAAAAAAAAAAAAAAAAAAAAAAAAAAAAAAAAAAAAAAAAAAAAAAAABWXTfpOvqPLpTjUcfgynWcG3sqRjFuV0vx0l4r87XbdWaRnpEltynHf2at7YNAfk6hT1LgcrdaGInHDTryw8qMKs47punvk3TX4NxceDbd3ysb8sBqno6lhZwrSSxUKdeMMPVqR3xunGE0lG7e61uPNnJnk+LWVRxHXfg3inS6i7spqnv6y19vLxb2v5zsZzkmM03Vy2dbEdbGpCjWjdyaowvB7OLdlFd1lwA71LDZ70xZj/5qpCgoJqNKUlCS4tKFKlJ75SlJWlJp8uPJI1Y590k9Jingk1UUbOpBRpUlFQkkry8XhGVuCfrPn8Yaq1rnFbG4KlKpKnNOHBNQhZwpXUuF2o3t33ZoaFx2uMLjK7wUN1dxl1q2xlZb05cJcF41uQH6f6P9MT0dl1HDyalKKk5tct85OUkvMr2T7bH5z6QcTg8v1JiKlah19KM47qW5wU70YpeMk2rNp/QXloLE66zLCYn4bHZW4qj4sYcHDg/E7pdpUDn0krH/AAL4zXwi9ur6yrzcOs+f1Wz5vHn5uYER1Znum85pRjhsu+CzU9zmqsqm6NmttnFW4tO/mJP0k4dYmhkUHw3YSlF96uqaZhpLG9KGtKtWnRxs1KlxlvquK5uPC0X2o813lmpcprZfHG1etrdZJqSm5+I50tqu0uTT4WA+mI6PNLUM6WX7sS5NxXW76dvGpdb83q78OXM6fQvl1PJ9RYujFtxpQxNNN82oVoRTduF3Y2p4iljNb33K0ZqN20uMMLta9O5Wt3mXRd/nVmHpxn/8REC1dVdGGmdZV1Vrxm5qCgts3FbU21wXnkygehrRGSa1r4iOIUmqcIyjtk48XJp8iyekrXGv8vx7w2Cpbl1cJKVOi6k05Xvdu8Ek0+cSmuj7ROca5q1adGrGkoxTquUpJSi3ZLbFeNx7HZAXVjc36GNMzeHqUqLnSUYNyw3Wt2irN1FB7na13fmVH0kZto7MsfQng4QjQjCCqKFHqk5KpJyvDar+K1xtx5Ej6U+ifD6Ry/D1qfjShaniZrdablZQntcmopNbbLndE00D0edG2scBSrLDeNbbVSr1vFqxVpq3WcE/nLzNAYeGfQd+Rof7E/8AllvZXl+X5ZSUaNOFOnzUacVCPjcW9qsuJ+Vaul8j1Znyw2Cp7cPGSjOSnOd4U+Napuk27PjGNnZ+L3n61jGMEkuS4AUT/lL/AMDgv0632QLb0V/JmC/s1D/dRKk/yl/4HBfp1vsgW3or+TMF/ZqH+6iB+eukzMsJi9UQ6ySjSozw0ZyfJQjtqT5cfxmi7Plb0H+eU/VP3Tm530J6U1BiKlao62+pJylaokrvsS28kcjHdAOi8NSnJOveMZS/hF2JvyQLAyHWmndUSlHD1o1ZRW6SipcE3a/FI62Pr/BaVSXkwlL1Jv8Acfnv/JqhfEYx91OmvXKX3F4ZpnOncRCrRqYmlHdGdOa66EZRunGS4vhJX7VwYH5j6IMdo7AV68sf1Ti6aVNVqXWrc5XbS2ys0lz85b3hN0H+Tg/9j/8AtHP+Sjom/OV/tdMfJR0TfnK/2umB0PCboP8AJwf+x/8A2jay7NehvN6sKVOnhJTm1GMVhErt8ld00vWcen0SdFNVpLEXbaSSxUG23ySXeyvtO5Hg8m1ZToUr7KVeSjud34tNyd36UwL81hoDT+qcJGjUiqUKSvTlTSh1KXPavmqNlZpq3qVqW1DXzXQmJp1suxFOvg6e2n1VCcakabn+JWjBu8qzi2qj4yfBWsj9D55/Fa/9VU/wMo//ACZ0msf6cN/7wHIzTR+qctxbr4LASjHEUU6lKrGFSNOVXcqtJRbS2vhwa4J28XktPS+TdK+jnUeHwex1HeTdOnJ2XKKbldRV+RG9M5fPU2IrRqZisIoXalWqNKV5NWV5x4o3tV6bp6dw/WU83p4mW6Mero1bys73lwqSdlbuA8zzKekDLsQ8wrYXq5U2pynshGG6+1TcYvndrj2vi+0vrop1dmGp8sdfEzjujUqJysoRUIKLu+xWu22yJYqrUraKvJtt0o3bd2//ADC7Tr/5PyUsn/19X7IgcDX3T5h8OpUsB48+TrteJHs8SL+c/wCk+HcpEI0DpjKc5zFPMq766U42w1SNTras5JSi6kttlFpp7b3fbZc70090T6U05iZ14U905Tcob+MaN+ynHkrdjd2uSaKgxy+Ea1Vvzin+zRjf7AP0hPC4epDY4xcHHa4NLbttbbt5WtwsflXUmnsvweOlUyivKc6TnOVGnGoqtDY7TcJOKU4Ju1k27eUr2/WB+aehz/OPE+jE/wC9iBINEf5QVCrtp46O2XLrqcbxf6dNcU/PC68yL0hNTSa5PiRfMOjnS2ZYuniZUY9bCW+8eCnJcnOPKTTs0+d0rtrgSoAAAAAAAAAAAAAAAAAAAAAAAAAAAAAAAAAAAAAAAAAAAAAAAAAAAAAAAAAAAAAAAAAAAAAAAAAAAAAAAAAAAAAAAAAAAAAAAAAAAAAAAAAAAAAAAAAAAAAAAAAAAAAAAAAQ/pVxdPBZNjG3a9JwXpm1Be2RMCrenHIdTahwdOGGjvgqilVhF/hJdkLLk4xbblx7n2MD894rSCwuUUsbvd6mIlRVPbwsoye7dfvg1axsas0Z4KxwMoTdWWJowrKLgvFlLa1BLju4u3Fce4/QWfdGVCvkEcHGO+rQp76W2W2+Is3J8Wo2m5zXjcOPmuq6yXou6RM9xWEeMtClhurjFynTk1SptNQjGm223a15eltgfDT9Hpd0tGccPg1TjOe+SVKn86yXC74JW4LkuNiJaEzDW+DxleWChuruMutW2MrLenLg+C8a3I/YpQ/Qvp/OsqzbGzq0KtOEoVFGVSlOEZN1otWlJJO648OwCYdGmZ9IWPq1lmFPZBRj1fiRjeV+PzfMU7mersJk+q6mJl41OnXcJW42iqfUSa79vF27bH6hzCGLqUqiptRqOElCUleKnZ7W0uNk7XKQ0F0IRxNHFfGEH1lSbhBqXjR2tt1Yy4/Pb4X5pcVxArvo/wBDVukHFYlQxDo7PH3KDluUpO3KUbEizPVuV6IofAoUo4zFUqk4rEYnDpdXKUr2hCe6badrck+D8Y6mJ6BNVZJUcsFjUk++U6E7dibhuTt9Bz10R9KdPEdf18XWtbrXiJOpZKy8eS3ckB8so6DNSZ7hKmIqzdPEzl1lOnU5yveUnUlzjObd13fjc/F7fRLq3GZfj3g8VhF8JblHr40oquvxpddJJOUXa/WX48G917nzeiOm388f+0v7j5YTow6Vq2JhUqYqUb7YTqQxU+sVLcnJJri7cWl3gfok/OX+Tb/GsZ/Vw/xsm3ShlfSNVr0nl06nVuntqRjUpxSkm7SvUad5J80+w5PRv0Yar0lhMZPfGjiqsFGiltqKDjeXjPjDxm7cL7efHkBa2p/iWeEqxxUoRozi4zdSSirPub7e1W43tY/HXhBjdMyxVHCYmToVbwcknHrIJ8HZ8Ytrg2rOza5FjYDoh19riqqmOrSpxvzqy6ypbujTT2xXpa9DLeyTok0dk2HlR6hVN6tUnV8acvRLhts+K2Ws+PMCL9AmU6cwOEdSnWhVxFRLrkuEqSXKntfjWT5ytaT5XSRZmo88oaawtWvOMpxpR3SjTScmrpcLtLhe748rlIal/wAn/Mstn1uX1ndO6pzlsqR/Qqqyfct1vSy0dF5Dm9TK1SzCcq06sZKpGbV4wmrdXvjaTduLk23duz4ID8+dKnShh+kJUYwoypxpObTlNNy3qK+alZW2+UzqZPqTpezenRp0KdVUqUKcFspKnGUYJRV601zaXG0voP0PlOkdO5F/A4elTflRgt317bn9LO0B5Fto5WqMTTwWBxM27KNGq235oMrfpW0hrnOsXTqYGpUjHqts1DEOktylJp23K7ala/mRAq/RX0t5xHq61aUoO11Wxcpw+mN5cvQB2P8AJnpNyx0vNQXr61/uO7n/APk/YTPcVWrvFSi6tSdRxVJNR3ycrX3cbX5k06NtB0dAYR092+pOW+rNKycrWSiue2K5X58XwvZTICiP/DRgvzyf6le+P/DRgvzyf6le+XuUv0oaa6Scbj1UwE63VSpQ3KGJVKKqJyTWyVSPYou6XaB88r/ydsHldelVWLk+rqQqW6pK+ySla+7tsRDQMlnGratRO6VbFzTXJxtUhH2SRnU0X034+LhOpW2vg92LhZrz7ajbXmLD6JeieroZzrVpRlXnHYlC7jTg2m+LSvKVld24Wsr3AsbPP4rX/qqn+BlIf5MvLH//AON/75eOcwnVw1ZJNt05pJcW24uyS72U9/k85FnGSLG9fQq0d3Ubetpyp7rdde25K9rq9uV0BSWSy0rGvW+GrEON3s+C9Xu3bnfd1nC1u42dRS6PnR/8osaqu5fxnqer28d3zHuvysfrGWgtHyd3gsN+op+6czUPRzpzFYSvGjg8NGq6U+qkqFNNVNr2cXG3O3MCCVv8yf8AVR//AIhHb/yfP5H/ANfU+yJWstC9MeYYf4NKDjQ4Lq+toRppJ7vmwle1+Nki8OjbSFXROXwoTkpTvKc3H5u6XYr8bJJK/bz4ASTMcxwmUUp1aklGEIuUpPkkv++C7T849FEa2s9RVcW09sHVrcezrL06cX50pcP0Sa9MejdbatrUYUJqWHk0nTvsVOa476j5yj3NcuSV3dzrQWh8BoPCqlDxpy8arUas5z/dFcors9LdwlJ+aehz/OPE+jE/72J+lijujXo/1Rp/Oq+IrUdlKar7Z9ZTlffNSj4sZOXFLtXAC8QAAAAAAAAAAAAAAAAAAAAAAAAAAAAAAAAAAAAAAAAAAAAAAAAAAAAAAAAAAAAAAAAAAAAAAAAAAAAAAAAAAAAAAAAAAAAAAAAAAAAAAAAAAAAAAAAAAAAAAAAAAAAAAAAAAAAAAAAAAAAAAAAAAAAAAAAAAAAAAAAAAAAAAAAAAAAAAAAAAAAAAAAAAAAAAAAAAAAAAAAAAAAAAAAAAAAAAAAAAAAAAAAAAAAAAAAAAAAAAAAAAAAAAAAAAAAAAAAAAAAAAAAAAAAAAAAAAAAAAAAAAAAAAAAAAAAAAAAAAAAAAAAAAAAAAAAAAAAAAAAAAAAAAAAAAAAAAAAAAAAAAAAAAAAAAAAAAAAAAAAAAAAAAAAAAAAAAAAAAAAAAAAAAAAAAAAAAAAAAAAAAAAAAAAAAAAAAAAAAAAAAAAAAAAAAAAAAAAAAAAAAAAAAAAAAAAAAAAAAAAAAAAAAAAAAAAAAAAAAAAAAAAAAAAAAAAAAAAAAAAAAAAAAAAAAAAAAAAAAAAAAAAAAAAAAAAAAAAAAAAAAAAAAAAAAAAAAAAAAAAAAAAAAAAAAAAAAAAAAAAAAAAAAAAAAAAAAAAAAAAAAAAAAAAAAAAAAAAAAAAAAAAAAAAAAAAAAAAAAAAAAAAAAAAAAAAAAAAAAAAAAAAAAAAAAAAAAAAAAjuqNY4DSssPGcZzniKqpU4U0nJt24vc0tqbSb86AkQI7U1lgI5lHBKM5VXT62UoqOynHj85uW674cov5y+iRAAAAAAAA8lKME2+CXFsD0HF0xqnK9X0OtoOThucLyi4vdG1+fNcVxXD2m3nWb4TIMPUrVL7Ka3S2xcmlyvZcfuA3waOTZvhM+w9OtSd4VIqUW+Ds+xrsa5NdjN4AD51q9HDK8pKKuleTSV27JXfa20ku05motS5dpanGpWbUZVI01tW57p328O7hzA64PnWxFHD23SUbtRW5pXk+SV+bfYjjap1Zl+kqdOdVTfWVY0YRppSk5zvbg2uHDjxA7oAAA4fhrpT88w3+0U/eN/Ls5yvN03RrU6qjbd1VSM9t+V9rdr27QN0Gnm2aYTJKFStUe2FOLlJ+Zdy7W+SXazX09n+C1PhoV6V+rnfbuVnwbi+HpTA6gBpZhm+W5Tt62rCnvltj1klHdJ8oq/N+ZAboPji8XQwFOU5vbCEXKUnyUYq7f0I1MjzzLtR0I1qE1OnK9pJNcm0007NNNcmgOiDGc4002+CSu/QjRybPMs1DS6yhUVSF3HdHldc1x7rgdABtI83RA9B5uiN0QPQebohNMD0A4mm9V5TqyNSVCTkqdSVKTcWluj3Pk0007p8muQHbBq5lmFDKqNSrO+ynGU5bU5PbFXbsuLsl2Gtp/P8BqfDQr0XenO9rqz4Nxaa7GmmB0wD5169HDRcpSUYrm5NJL0t8APoDk6k1Jl2lMPKvWbVOLim4rc/GaS4Lzs6E8VQpRUpSUU7WcmkryaUVd9rbSS7WB9gcTVeqsv0dhnWrbnHdGFoJOTcnZWTaXDi3x5J8zswlvSdmrq9nzXpAyAOLqfVOV6QodbXbUXKMEordKUpcko83ZJt27EwO0DGnNVEnxV0nZqzV+9d586uLw1B2lOMX3OST9oH2Bq/GWB/KQ+uvvPtRxFHEfNkpW8lp/YB9AAABp5rmWGyahUq1G1CnFzk0rtRirvhzZhkmc4PUGHp1qTbp1FeLas2rtcnx7AN8AAAcnA6nyXMsRVoU6sZVaNusgnxj2eh25O19r4Ox1XKKA9Bjvh3ob4d6AyB4mmcvNNTZFkclGtiKVKTV0qtSMG1yuk2uAHVBHPlB0b+e4b9fD3joYvUeR4BQdTEUYKa3Qc6sI7498btXXFcUB0wcPw10p+eYb/aKfvH1w2q9OY2ahDFUJyk7RjCtCUm+5JSu36AOuDl6izulpvC1a8oTnGnHdKNNJy23V2lJpeKuL48kzh5l0j5NlmGwmIcajo4qUIxnFRtTc1ddZeStbjfbe1n9ITAAAADSzPNsuyWnvrVIU4XUd1SSjG75K74cQN0HxrYqlQpud7xUXK643SV+HfwObpjU2Xauw6rUd2xuUVuW13i7PgB2AAAB5OcaabbslxbfJIj2k9ZZbrONWdGNTZTm6e+cUoza7YNNtq1nxS5r6AkQAAAAAAAAAAAAAAAAAAAAAAAAAAA4up9VZVpCjGpXk4xlONNbYuTcpXa8VcXwTfA7MXuQHoOFm+r8oyPE4ehUbjPENxpeK9ra4WcuSd2lbzo7oAA+fX0XPbuW627bdbtt7XtztfhcD6A49LU2W1sdPCJvroUlVktvi7G0vncr3kuB1I4ijOTipJySTcU1uSd7Nrmk7O3eB9AcLDasy/F4+rg4qbq0qcak3ZbEpWst177vGTtbkd0ADVx+ZYDKobqtSFON7bqk1CN3yV5NK7tyOb4a6U/PMN/tFP3gO4D50K9HExjKMlKMkpRlFpxkmrpprg01yaOHqHWeTaYq0KdWT34ieynGKu27pXfcrySu/vAkAAAAAAAAAAAAAAAAAAAAAAAAAAAAAAVDh8TS1VqKvXk/wDy+WUnBN/N65qW+Xd4tp37tsSwdZ6hp6VwFeu+dOD2p9s34sF9Mmil8ThsXprTtGhG7xeaVU3f5zVVpu/b83ZF9zkwJj0PYernU8ZmNReNiqrjTvzjRpuyXrSj/cRaNaEqkZJOzaaT7m1z+g0chyehkGFo0IfNpQjBeey4v0yd2zogVD8k2tP57xH1an/PHyTa0/nvEfVqf88sPGax0xl85QqYvDwnHhKM60Iyi+dnFu6+k+Hh9o789wv+0U/eAgfyTa0/nvEfVqf88fJNrT+e8R9Wp/zyeeH2jvz3C/7RT94++E1lpjMJxhTxeHnOTtGMK0JSk+5RTu/oA69CEqUYpu7SSbfa0uf0kF6YtTrTOVVbO1St+Bp9/jp73/djud++xPj8sdLWdYrXdWtWpv8A8pg5Rowl2VKlR+NKPp28/JUfKAtvDZhiei7AYOhTwVfFN025vDwclGo7Snusn86U3a/YjSxvShmOYUp055NjnGcZQkuqlxjJNNfM7mT3UNbM8Pl9WVBpVo0XKndbk5RjutZ8ONrK5o9HGpZ6syyhWk7zcdtR2SvUg9snZcFutusu8CrOj3Vuf6IwaoSy3HVUpylF/B5R2qXHbyd+N3fhzZYml9f5jqLEKlPL8Vh04yfWVoSjBW7LuKV32cSSalziGnsHXrv/AEVOc0u9peKvpdkcPouzPPM6yylWxUlKpU3ST2qL2XtBtRsrytuulyaAx6SMdo6OGVDH1FCNbd1b2yclKFvHi4xdpQ3rnzvbirlQam1jldbKcPQljo4qrSxdOW9U6kZdRDdZycl40krXfPs8a13dGttW6e0pCDxEd8pXVKmqe+c5cLqPCy7ObXYU1rzJ88zOhRxuIpxw6eIpU8PhYpLZCbbc6rSu5y2rh2LsXICR4vUui9TZpCriMfCrRpOPwbDRpVVFVXwcql42k0+X7kmpedI+eY3MM6wtOjh54qOBtXq06X5WfGnd2dtloS5cbtHaw+p8zyas8Pi8vh109/waph4J0a8knKMLtXg+HFy5cW9q4kf6J6ec5Nm9aOK4Vsbhli2nwcX1rSi0+TSb4fi8uwDrYnpkz7B1adKeU1o1Kt+rg6vjT28ZWXV8bFm5VjcRmWGhUnTdKc4XlTk7yg3+K3ZcV6CA5vbNNU4OH5thatZ+mpup/vi/UWZPk/QBRXRHo7SWZZO6+JoU5uM6rlOd7qEOPfySuSHoTwGHy/A4jFNKlDEVp1Ixfixp0YNxirvgkvG491iE5LWzGlo2v1UW26k1NrnGk5R6x27Vbg+5NvsLAx3R/g9aYTAxp4qpHBQpQvSp2SrJJbG3zUue7de3Yk7sDh5nmGI6Z8WsPR3LL6E1LEVuK6+S4qEfN3fWf4t/vOriOhjFy8WUssxE7rbeTwlV81bnsl3dq5cV43zxOB6TNDYOo6Usvhh6EJzUIRqbtkbvtgk5vtbfF82fbJpdKOrsLSqSngJUK8U5QnCe505c047HG9vPYC18Dj8JmlONSnOM4SV4yg7pr0oq3p0+Zl/9sh9hJ9JdHGX6MxNapQqVVSqJWw7k3ThK93JceLsklu4rjxd+EY6dPmZf/bIfYBbM4xmmmrp8GnyaKZ0rHEdG2eVMFaTwuLvVw9k2qcu1ehW2PzKDfaXOY7IN3srrhfts+av57IDVzaap4eq+6nN/ssrvoBjtyaHnq1X7Uv3E01pjFgMtxc/Jw9Zr07JW9bsRroSwksJkmGvwcnUn9DqSt60kwJVqXTWXasw7o1k3BuLajLa7xd1xIR8gehfIq/rZFkYz+Dn+jL7GUD0V9FmndX5dGtWdXe5zi9lTarRdlwsB8dM9Fmmc1zjMMPOM+qw6p9WlNppySbu+3tPOlHot0zpalhXRjNSq4mFKW6bl4klK9r9vBcTLRHRbp3UWOzKEut6rD1o0qTjUs205qd3bjbajzX/Rdp3I8Tl1Gj1reJxChNSqbvwacFNrhwa38wJ58gehfIq/rZEr0jojJdEwnHDqSVRqUt0nLilZcytNb9Dmlsgy7E1qbrb6dNyjuq3V13qxZHR228pwX9npf4EBr9Jmp1pPLK9VO03Hq6X9ZPgmv0VeX0EX09isT0ZZRg4wwlbFSqp1Kiw8XJxlNKfjWT4Wkop/0SvemTPMVrSrXVJ/+Wy9RU5fizrVKkabt32u0vNGT7UXxhPh3xXDqWlV+Cx6ttXW/qltuu1XsBC6nSxmtZNPJ8c00006UrNPg18wiXR7qbPNC0KtL4tx9SEqsqlNdRNdWnw23s78Em+C437yzOivVmI1hlsKlR3qxlOnVskvHi7rgrJXjKLtYlWaZhRymhUqz+bThKcvRFOT+wCGae6RsyzzE06UstxdCM916tWnJQhaLlxbilxtZcebR1de4/SmHwrp46SjSrXgrqT8ZcU04ptSja6ZzeiXPM/1Jl/X4mSk51J9XaKj+Di9vG1r+MpJPuS5nX1lqfT+laKnieKbahHZvlOVvmxVrX9LS84FG6m1VlCyKthFj44qaqw6j8HUjNUYzi0pSkkm0l9HLjwJHnOqNFaoxdKWIzCEsJRjGUMNGlVW+slxdV7bSiuxfRZcd/C6R8uzrUOX1MZWpLC0oSgsNhlFKb3zUXUrOyd7PhHs83408wuo8wyGvGjjcDBqq7Yavhqe6nNv5lOaa3RlyV36bWTYHK6WM4xGZY/BYajQniVQccXVpUubSaVNN2dlZu/DlJG5jemPPsunTjUymtCVWWympVbOcuHCK6vi+KOJ0fQz7K8+VTFrZUx9CtJU3wcHCacYf3YUuH9FolWsf/zPUOU0l/oo168l3K1ot/3qdkBN8lzmtj8JGtXpPDO05Tp1ZcaajKSvKTS4NLdy5MqeeHn0z42VXrp0MHhXtw84NRnVrJpuqt3JKys7cOFrPda7K1GniIuMknGSaaaumnwaa7mfn/K9E6KxmOzeNanCKoSgqEetlSUVsm3ZRlG/GMed/aB0cpw2a1M7jRoZjiq1HDNTxU69a9NyvdUYpWTbtaV/P5PGXdKWltI4vC18XiaSlUp0HGnLrJx4rc6UUoyUW3OfauNypI6S0c9M/Cdsfhexu/XS3X6/Z/Bb9vzf6PnLAz7TuExU8HUx+Kk8I+ohQwsYO0q8ocFPbdyXB8Wu210vnBhoPod0hmGW4apiMNuq1KanJurVjfc3KPixmorxWuSNnoNwmGwkcxVNWprG1IQV27QivFV3duya4tn31blGAzfNqeG+GY6hOtR3Rp4eooYdQhuTur8G9j4KNuRN9KaUyvRuGVGgmopuTcneU5O15SfBXdkuCSskBH+kvIs/xlOniMHVnGvhm5xpJvZWj+NFw5OVr2703HtVvpp7pHw+o8tniadKU6tKP4TDQu6iqLnFKzbT5xduK86dpucrJMPkUOslh1S8ecpVJUtr3VL+Nucfxk78HyAqfV/Sbm2Z4DE05ZVjKSnRnF1KlOShBOLW6TcErLm+Jr6D6SM1yfLcPSjleMrRhCyqU6cnCfjN3i1Bq3HvLM6SpqGUY3+oqL1xsfLoujsybBf1MX67sDW0R0irWVevSeGqYedFRco1uEvGvZONk1yvxJpVqwoxbfBJNt+ZcWVbob/OLOP9T9hZWafwFX+rn/hYFa5zpnB6/nQzDLa6p14zUXV2yjGpGL2yUotKTcVdcVaS8V8LNSTVPRpp/WlSFTEqUpwgoXhJwVrtvxePa32nF6Bv5Fpf1lX/ABsjOlMBrHW88ZJZnWoRpYqrSjBQU1ti7rjuja17WAkfyB6F8ir+tZy9SdCOi8swWJqwhU3U6FWcb1W1uhCUo3XpR8NY6a1rpTA1sR8b1p9Uk9nVKO68lH529259xNMRia+N07Kc25SnlrlKT5ylLDXk3523cDU6Ev5Cwn+u/wB/VIt0kyw0NQYLfhpYqPwapehGnGo5calnsl4r28+PKxKehL+QsJ/rv9/VMdX6R1Pjszw+Lwk8OpUaUqdsRvs3Nyu7QXdLv5gQPW9fJJZfiNmSVcPLZwrSwlKCpu64ucXuXddE6zBaJwmW4Krj4U3FUaNOEqlN1LSlSUtqUU2rqDfK3A0c/wBP9KepMNUoVKmXqFSO2Tgq6la6fBtNdncfDpPwM8Bl+VUpWbhjcHCVuKbjTnF2v2O3agIDLNei+tninajHBQw1kupnsnWcu2ChuulLm1bxS0NIT6K86xH/AJOnQdamusThQlCUUmo7lKUUuckuDN7O85eW5vgcLGlRdPERrubdPx11cJSjtaairtcbxf0HKyqlTo6rxKikl8AjwSsv4SmBZOKw1HGQlCSvGcXGSfJxkrNfSmUXp7JKmZ5fmeUT41cLOU8Pfm4t9ZTa9MrN+aZfJU2vP/6OzrA49cKdb/yuIfZaXzJP0c/7iAk3RZqV6nyujOTvUgupq3576fC788ltl9JMypdMvwL1DisK+FLGx+E0e5VFdziuzj4/0RiW0AKE6Y9UYXM8xw2FcKlWjh5xrYmNGO+UpdkLXS4Rdnd/jeYu/M8TDC0pN1IUm01GdS22Mmntdm0nbna/EgfR1k2S6Mp1ZVMXQq4ivUlOrV62PjcXtSu79rk/O33IDl5j02ZRiKFSKweOW6EopuhFJXi1x/CckRXot6Ucu0tlsKM8NiqjU6j3UaUZQe6V+Dc07rt4FzZzqDJZ4aslXotunOyVWHkvzkG6Ds4yvB5PTjOtThLrKvCdSMXxk+xu4H3+XPJ/zPH/AKiP/MLOoVo4iEZcUpJOz5q6vx85oeEWR/nFH9bD7zcwuMwuOjeE4zV7XhJSV+664X4gUn0k9JFDP92FoVHDDKUY4zGRjKUYxk7dXDam3u5cPncuW5nIp0+gemkusrf/ALzx8/CNvUTHpmyjLsmyOtGlTjTUq0JyUVa8pVLyb879i4Lgjr4OfSp1cLRy222NryxF7WVr+LzArm3QP5db/wDefuFugf8AKVv/AN5+4s3f0r+Tlv1sR7pp5rPpS6irujl23q57tssRe213teNr25XA90FovQcuqxmDU3beoTlOpb8anPxJ+lrivOSvVWmqGrMM6M6lSmnKMt1GSjPxeNrtNWfbwIp0GfyHh/0q3+9mWMBUXyJaf6zZ8Pxe/bu2dfDdtvbdt2XtdNXPv8g+UfnmN/XR9w7mtOi7K9WVOujOpQxMUttelJ34K0bxvyX9Fp+cj2Vah6RdIYinh8XQeMpzkoU8RQ+dxfDfyjwXPft7XukB9fkHyj88xv66PuEVjpeOi9SZfRp169SE4yqS66pu42qq3BJW8Vc0foAp3U76zWGXLuw0n7MU/wBwFxFVVegXT9aTfwnGcW3wqwtx4/ky1QBU/wAgOnvzrG/rof8ALD6AtOr/AOKxn66H/LLYKQzatqTpSzPFYJVlh8LhpWqqnffVV7cX23s+Daiu1SAhGotNadlX+DZdVxmLxLdm1Wg6NO3NykqavbtakoryuwvHov0dj9FYJ061TrKk6jqStdqDcYx2Jvi7bb3sufr7WmNJZLpCj1eHpqC/GlznN98pc2/YuxI7YEb1rp3NNTUIwoYueElGopupTTblFRktnizg7NyT59nIgvyTa0/nvEfVqf8APLZxOJoYOEpzkoxinKUpNKMUuLbb4JLvZwvD7R357hf9op+8BA/km1p/PeI+rU/54+SbWn894j6tT/nk88PtHfnuF/2in7w8PtHfnuF/2in7wHA0joHUmnsSqlbM62JgoyXVVFNRba4PjVkuHoLBOflee5Rnak6FanVUbKTpVIz235X2t2vbtNLWGp8Jo/B1K8/xV4se2c3whFel8+5XfYBXurq9PWWocHg006eFviKyvzmkpRjbzeJ9EmdfM+lDNcvr1KayrG1FCc4KcKcnGajJpSi9vzZWuvMVz0UYPNaGfRqYh/hcRhamJd+aVWV1fuule3Yml2FmdIuq820jicBNSSw1St1WITir+Nba9z4pJbpcLfN84Ff9IOo831xSoxWWY+jUpVY1IVVQlJxtzSW1c+D580iXQ6W86SV8oxzduL6mSu++2wtQrnpQ1ZnGS1cDQwslGviK6XGKmurVou6fY3NO6s7RfFASnSeoMRqSg6k8PVwzU3Hq68XGbSSe6zS4O9voK41/nWkHjY1aWOjhcdh5qE5OnUlGcE7Tp1IxjaSSvbjx5XXBxuNXRWepdb4OriJ4XBYaOJxl2puVO1Ki+TlUm0r283B8r34MIhDpD07HPsTiI4mEYTwKpU6sqdSUOu3QaTglvsrN29pJOjHH6Sw3X1PhaxOLlCVbFVnGcbU42uo7opKnC64Lnw4JJKMNyvTeoNOZziIUeqxOI+CRrVFXVoTlKrTdSNNKyj5ML2SXdyO/nub5nrzB/BsLhJYetOrGhjN9Pb1ELb2t6S3Rlt5rs4NLdG4cfRGrdR4Wti8XDLK+I+GVN0akXtSpwcowgvElfbybvxsu4memOlfNtS4nqll1WKjV6qtU6zcqMr2e5dWuKtxVzo9DWPeKyWgpcJUuspS82ycrJ+iLiaPQnH4ThcViPznGV6sf0bpL27gPn09RjPK6afJ4qin6pnF6VtGaUyTBwhQwtOOIxNanQotJ3Tk7t8+5Wv2XR2+nj+TKf9qo/ZMw1NPrdTZeq/i0Y0qjw7fzamId1JN9jS22v2qPeBKM1z7JOjPL6aqz8WlThSpx5zqOEVFKK7W7cXyXN2K/yjo9x3SRGvjMfenUrw24WCb/APLQT3Qlbhxvbg+acm7buHSzfonzTEYirilXjiMT1ieHWMT6mlTvezjFO8o/i2iorna/E5meai6V9P4nCUJ1ME54qUoU3CM3GLhtvvbiml46tZPtAkGite4jB1fgOYPq8VTtGFSXCGJjyjKMnw3P9r03Sswq+egtSaw3QzR4WdNQfVSwu+NanUbjZqUoJbbXundN2un2TjS+Ry03hadF1Z1nBNdZVbcndtrm3ZJcEuxIDsAAAAAAAAAAAAAAAAAAAAAAAAAACG9KenZ6nyrEU433xj1sEu2VPxrf3leP0laagzmpmuWZXmsONTB1IxrxXddQqcOSvKKt5pl+lK6dyihlmYZnlVThRxUJV6HmU1aSj548Lf1YFyYTFUcbThOLvGcVKLXbGSun9KZ9ituhfNq9bBTwtX+GwVSVCa7dqb2P0K0orzRJjqXVGVaSo9bXk4w3KF1Fy8Z3a4RTfYwORmvRdozO606tXDKdSbvKTnUV3a3JTS7OxGn8jXR/+aR/WVffNT5dNAfl5fqanuj5dNAfl5fqanugbfyNdH/5pH9ZV9828r6LdF5LWhVpYZQqQd4y6yo7P0ObXrRyfl00B+Xl+pqe6Pl00B+Xl+pqe6BYxTnTDkGXabyGdOjHbF4iM2u+U5yk/tsu5JLsLI0vqzJ9Y0pVMPNzhGbg24yj4yUZNWkk+UlxIV0/fyNL+tpfawLLw6vCP6K+wqbool4N5jmWXvgoVOvor+hKyfqjKly85YeI1Rp/J9sK2Jo0p7IvbVqwhKzXB2k07Oz4kWliej15msd8PoKqqfVbViaSg1xV2r3bs1224IDm9NuLrY+lhcDTfj4yvFPttTg0235lJxfoiyzsDgqGXUoU4K0acYwiu6MUkl6kUrlep8g1BqStiauJowo4Wn1WHdSrGKnJ3Upw3NKS41OMexx8xa+F1lpfHTjCGLw85ydoxhXpylJ9yipXb9AHO1hmee5bKk6GAji7KUnOVanS6lqy4Oafzk3xXIrPKNa9IWrMWsXRwc54aEZUlQhioQpyqLnNyklvtfnGNuC48He6s4yzDZ1h6lKo2oVIuMtsnF7Xz8ZcV5+/k+BSOJ1JjujGrTw+DxUMfTctscI47q1Pm2lVpK179kuP9HmwJfl/SVqCeZYfCYjL1QnWUpJ/CY1XGCUm5bYx5eK1xa7T59KM5acxmX5gr7KNR0a9vyVZWu/NHxvpaOD0ZZ3hMfmtepjXOGY1LwhRqU5RjTpRV9sG79i4uVuCdr3bezrrUlfpGr/FmCtOLaeKxFt1OnGMk7J8nZpcVzdortaDrdGEpakxuYZg/mVaioUL/kqVk2vNK0fpTLOnyfoKd0RqWt0cVlluOtCKbeFxFttOpCUm7SfJO75vk+D7G7im04v0AVd0D0aeIyRRkk4yqVk0+TTsmn6Tl6Bw+o8Vl+Iw2ExEaMsLj61KM5wVROirvbaSavule5yOjXJNW5vk9D4Hi1hkqldVE4KW67jtabTaa8bk12HWxdDHdGmEp5fhHOtjsZOc3WcWoxcrRnUu7rxUuHF24yfYmHmrMm6RVl2KlUzKjVpRpVesjChBOUYpqcdyjwfBrnwZhozJekWpl2GlSzGlSpSpw6uE6EG4p8Ix3ON2+znxJDj9J4TRGncXSTvJ0KsqtR86lWULN8e92SXdbt5/PKdIYbWmnMHSlJwkqMJ0qkW7wqRT2y4c1x4r1Wdmglmk8u1Rl8anwzEwxDbjscKcae1K+5NJK9+BCOnT5mX/ANsh9h3OjTUmeZhGrhsXTksRhWoTqWeyqn82W7luas35Sal2u0T6fcXjZywFKlSlOo6zqQtFuLlCyjDhzbvdrsQFtZznmWaeourXqRpwXbJ833Jc232JK7OZozWWB1vQnVpRlGEakqa3qzltUXut3Pd3/wDSA5L0V5tqiqsTm1V1Zc4YaLtTprnZ7eH92HPtlIkWr+kjTfR9TVKCjOqltp4ajZbe5StwgvNa77EwOL0+amp5Zl6w6lapiZJc+VOLUpt9yb2x8933FiaawGGyvB4enTkpQhSpxjKLupJRXjJ9u7n9JWGlejfG6uqVcZmsd1StBwp0Hw6mm1wdvxZJPxVzjxk/GfDR09nuYdEGNWBxcnLB1G3hq8uUE3yb7I3dpL8V+NyYF2Yz+Dn+jL7GU/0WahwultNSrz5U51ml5Ut1oRXnk7It/FNSpS/Rf2FG9GehsNrPKcG6tSXVUcRWnOirbKvHhu7eD9PByXC9wPlpfRGsckwtHMMNNyxNZupXw03aFanUluj3Wkk93Hir8GmrS++pKee9IecS+CTjTll1JNS+dB4lu8qalwXGzhdq3iO64lxaiwuaYvCVYYacaVZwapzkrqL+jk7cE+O18bO1jl6A0bQ0Rg40k91ST31qnbOo+fnsuSv2cebYEGzPXtHV2R4+FSPVYqjSlGvRfBpppOUU+O1v6r4PsbnnR1/JGB/s9L/Ajg9KOQ5LhcBjsT1cFWnh+qdTk2rqy7rvgr83ZLsO90dK2U4H+zUf8CAh/SvkGW5BkOOVKCj1taFaffKc8RTb+hckuxFh6d/ieH/qaX+CJD+nD+QsT6aP++pndy/UmRZLhcNGtiKNKToUmlVqwg2tiV0pNO3DmBCNBy8F8/zHBvhCtbE0V2ceMkvrtf3Df6cM1rUcBDDU/wCFxlWFGK7XG6cvob2xf6RtY7EdHmPzGjjXj6CrUYOEduKpKLT3fOV7vhOS59voIlX1PkGpdSwqTxFGOGwVL8HOdWEYVK0ubi27OzlzXkL6QuHI8po5FhqNGHzaVOMF59qs36XzZyNYY7OcCqToYGOMak5PdVhT6pxVoyTmnxe6SuuK+k2aOttKYmUYxxmGlKTUYxjXptybdkklK7bfBJHWx+DpZjSnTldRnFxltk4ytJWdpKzT86Ao7Ca26QdYYyFehg5uhhnKnUo08VCMKlXt3VGlGaj4tlGLS7/GJRHpN1LhsbhcPiMu6l4iajF/CY1GoprdPbGL+anfi1fj5yKZjm9bolnGlgsZDFQc7LAzj1lWLk7vbUpK6bvynb0SPvobP6OZZ3Uq5gp0cZL8FhaE6clCnTd/my7ZO7V2kneTTd7RCT9L9OrlPwLHwV3g666y3Pqatoz+xL+8fDQGIhrHN8dj1xpQjHC4eXlRVpVGvS0mvNI1ukPV1bVdR5ZgUqlSp4uIq86dGmn46vyuvxn2cleT4aekc5r9Edf4BjGvg85OWGxSjtg9z8aM+7i+N34r5+K00F1FBQjouWZ5z8N6nd1kep65q99kt22/n2+wvuM4TV0001dNPhbvv3FP9H+W5fqiOa4qVGFRVcTVVFzpqb2wj4rjdN8dy5dqAr+MdB+DX+g+HbH2rrt3Xd3O+z2Fg5vpfONeYvCU26uHw+Fw1OpGvT4OdeajbZLvglz5xs+9X42K05hMt0g5VMPGnXUOMqlJRqpvEWV20pptNfQTJ9H2ZZuoVI5ljKKlTptU6VRqELQirRV/Nf0gQHMtB4yhn+Gw/wAPxcpTw85qu6r66CXWeJGd7qL28V52W5pLR2K0xObljMTid6SSxNRzULO943fBvtKlzLQ2Po6gwtD4fipSnh5zVd1H1sEus8SMr8IvbxXnZaWmtD4/IK/WSx+KxC2tdXXm5Q49tr812AbnSBqRaTy6vWvaSjtp+epPxYepu78yZAtI9GGOq5RhoxxVbC1JuWIqyotxlN1EtkZWkn4sVHg+2570p08RqzNcvwCjLqnLr6rs9slG90nyvGCkvTNFh6p1hkei6O+vNRVvEhHjObXZGP7+S7WgKW6TNF5ppjBq+Z4uvKtUjShQnOTjUcnxTW93SS7Vzt3nz6PNIZznsa1CWZYvDVsLN05UIVJbYwXCMoeOvF4NcFbl3olukMozjpCx0MxxcOro0/4nQfrVR+xp/jOzVlFX6PSBo7OMPiY5jgP4zTVqtLsxFNdlu2Vla3akrWcVcOdQ6D8bhqk6kc0xUalS2+cW1OduW6Snd287LJ+B1MvwPVucqjhQ2OpPjKbjT2ucnxe6VrvjzI3ozpUyHViUJPqMQuE6FV7ZblzUW7bvR85dqRL80/gKv9XP/CwK/wCgb+RaX9ZV/wAbIp0b6+0xpOWYQxFZU5SxtaUU4TlePBXvGLXNMlfQN/ItL+sq/wCNk6np/JajbdCk2+LbpQu36gKq6SOlHRme5ViaVHEKdScYqMerqK7U4vnKCXJPmyWR/wA2f/8AWf8A/KSd6eyKP/w9H9VD7jma6xODy3KcXdxhH4NVhFcErunKMIpcuLaSSA4vQl/IWE/13+/qnEzzQ+gqua06FShVlWxSq13ONaagmt05XW5Wu72SVju9CsJU8iwl1bhVf0OvUa9adyE6xxue4rP518JHrXl1Cn1tNfjqcpOpBd8nCo/q8LtWYcfLNI6Cw+bZhQxU40qVJ0eoVXEun86F52k5Jy7O+xN870Zg8dgMFTy7bVpU8fTrtxrKa2R6xVGpylxs2lZNvzEa0LjdI62zfMataFKUaioSpRxUYbk1BxqJRlfimknt83mJxqJanwHV4XLMPQpUpRbeIvFQo3b3WpJW3cbp2le74cGBHtVasyXA6mwvWzUYYejOMp84wq11JRjJr5vitO75X49pKsvyLMVn9bF7U8PPBxpwqKUXunvhK21Pdaybvax9NN9G2TZNhKtKr/5iVd7sRUq8XVl396UW248bp8b3OdpPS2f6JxjpU68amXyUpRjVl+FoS7IRfam36LX4J/OCxip+l6ctRYjA5bDnXqqrVtzjRp3u/p8dr9EthtIpPTWc0cZis1zipxpUYyoYa/Jxgly/Tey3nnJAb7gtXanhGP8AA5bS4tdtWfJX58Lr6j7y3SuOhfJa2By916nGtjJyxE2+bUm9n0NXn/eLHA5OotNZTquj1WIhvp7lLbulHxlezvFp9r7SI1ehbo6oxbeGskm2+vrcEuL/ANIWHKSiuJUPSJ0iRzpPL8v/AA+Ir3pznTd4U4PhPx1wbtwbTtFXu7gRzoe6NdL6rwNStiKG5uvNU/wlSNqajCy8WSTs3Li+Jhqbo40pl2fZfhoUbUa0JupDrKj3NKdvGcty5L5rRdGjdN0tJYGjh4u/Vx8aXlTk3KcvQ5N27lYr3XdelhNS5TKTUY7Jq7dld70lfzuSX0gd75Eejz81/wDXrf8AMJVp3TOUaToulh4dXByc9u6UvGaSbvJt/irtN/EY7CYSDlKcYxiruUpJJJc22Vz0J47H5vhcVWnOco1MVVdJTk2ow4PxU3wV5NWXcBMtW6ay3VmFlRruSptqTcJKLWx35tNW7z8+4nO9I0cwVGOOxiw0E1OvLFVZbpL8WlGnCV12Xdk+LXBLdZuYaY1pryvOGLmsNgozaVHDyvPERT4OU/JfnS/R7TR1PovKtGS+EYLFUcFUUUpUa811FdJcE4ybkpPvSbfPg22BH/jDor/nbH/rcR/yjyeN6KZpp5tjmnwadTEWa/VH2o/5QOFhh5OeB3VYva3Ta6hvv3tOSv2Kzv3n1yfBfKlKM8bjcPGldSWCwlSMX3rrJX3383HzOIFmdHeH0/hcvpLBzlUw957JTupN75bucYvhK6+aSk1cty7BZVSjTpQjCnFWjGCskv8Arzv28zha70nX1jhVShXnQe+MnODfGPFSi4qUbpp8m+aQGefa+0tpm/XYinGS/ET31PqRvL1ogNfpsx+eScMuwNWu+XWVE1BPvajfh+lOJ2tPdB+jMjs5U3iJ+VXe6P6tWhb9JMnGKxuUaepx3zpUKd1GO+UaULu7UVe0b8HwQFX5fpXpS1HWp1cXi44enCcJ9RR432tS2yUGotO1vGnL0DNY9drLCf0MJL/DXX/EWFV1tpSgrvGYZL+vp+8VjpPM6WttUV8TRvKhQodWqlmlJu0Vz4+M3NrzK4F2AGM5wppttJLi2+CS9IGRT3Rv/nBnP6a/xyLXeZ4BK/WQt371b7SouifF0M0zvN6tN7qcprbJcnec7NPue1td6AucAAa2PwGGzSlOnUjuhUi4Tjdq8ZKzV1Z8V3MhvyNdH/5pH9ZV9829R9J+lNKV3Rr1XGooqVlTnLhLlximjk/LpoD8vL9TU90Db+Rro/8AzSP6yr74+Rro/wDzSP6yr75qfLpoD8vL9TU90fLpoD8vL9TU90CV6c0hkOklNYakqam05WlKV3G9vnN8rvkbGe5Dl2pKXV1o7ob4Tt54SUl9DtZrtTaIZ8umgPy8v1NT3SxKdSNWKa5NJr0MCrGktXr+wf8AEzv9LeRfH+UYmKV5Qj10O13peM7edx3L6Tgz4avX9g/4mTGprnRlVNPG4VpqzXwinxT5/jAfPo7z7wlyzDVW7ydNRn+nDxJ+txb+khGRrwx1Pia/OlgKaoU+7rXeMvNwbq+qJtZdneiOjTLK8cNjKdZxU6kIPEU6k5VGkoxjGPY2lwS4cX3mp0QZxpjTuWxdXGYdVq85VqqnXpqScuEVJOV01FJtPk2wLfKn1T0h6j0a603lcIwlVcI1vhNO9aXGNOTpxi6jcoxT280uHCxZGV59k+d7uor0q2227qqkZ7b3tfa3a9na/OzI30g6UyjPoU6tXESw0sO99KtvShCXB3cJ+I+S7n5wIfpTNulTJKMlVy+piZzm576mMpxspcoRg77Yruv6uCUw6Otc4jXFOvKVBUeqq9W0qnWKUkry8ZRS4cOV+wqfG9KGt69DE0KO3Fxgtrx2GozTjF8JNxsob7cmrJc1fmrD0DqHRGn8nUqNa1Gj/CzqRcZurLjK8XznLsjG/CyVwINmeo59G9TOMJZ3xD67CWXN4jxJ2/Qvw79j5lxaGyHwYy7DUOUoU1vt5cvGqftSZTGNyvVnSvVlmNKKpRw+34FTnFOVbq57m23w4tPn4t/FXJstTQXSHgNaU3F/gsTT4VqEuEoyXBuKfFxv9MeT84cLp4/kyn/aqP2TNrpuw8VlMqy4VMPVo1aUu2M+sjDh9E/YjV6eP5Mp/wBqo/ZM+eoejXVerK0418ffCOq5qjGmlLYpNxg5JRu0uF3fvswOnnOD11mMlWoY+lh6M4U3GFSjCW1yjG/jyjfxpPgr9tiuta5PrvD5jlca2Np1Ks6tRUJxoRiqUl1W5uKjaV7x4O/IkWNp4jpWx3weMZU8uwc0qracXXqw4KnZ8dq7uxcXxcbbvSQqcM4yKKsrVavBdi/ApcO7gBtLT/So3b40oXSTa+DU7pO9nbbydmWHltLF0aNNVZKdRQiqk0tqnNJKUlFcEpO7suRXPSHp7NskrrM8Fd1acUsRR4uNeiufDvilxS9K4rxp/kObQz3DUqyhKCqQUtlRbZRv2NP2Pk1xXMDogAAAAAAAAAAAAAAAAAAAAAAAAAAQjWWjcfnOMwWKw8oQq4ab3dY2lOjL50bxjJ3+cl+kybgCE4TRuPyzO6mLpSgqFeko16bclPrI/NnFbXH8Vc5LnL6Zfi8FhMfHbUhGcb3tOKkr99ndX4n3AHK8Gcg/NqH6mH3DwZyD82ofqYfcdUAcrwZyD82ofqYfcPBnIPzah+ph9x1QBr4PAYPL4tU4Qgm7tQiopvleySV+CI/r/R/hzg3h+t6q84y37N/zezbujz9JKABG820FpjPpqdehCrNRUN0r32x5Lg/OzR+SfQn5nT/a+8mQAhvyT6E/M6f7X3mxgOjbR2V1YVKeFhGcGpRkt101yfMlQAies9A4HW7p9bVrQhDduhSntjUTtwkndcLc7X48zd03orTuko2w9GMG1Zz+dOXpm7y+i9jvgDkai07gtSUKlOd4ucJQVSHCpBS57Zc7OyvHlJcHdHx0ppHKNGUFSoRsucpPjOpLypS7X5uS7EjugDiao0plGsKDpV4blzjJcJwl5UZdj9j5O6N/Lctw2U0IUoK0KcFCN3d2irK77WbgAi+gNH+A2DWH63rbTlLfs2fO7Nu6XL0kncYtp24rl5j0AVxnPQxkOfYipVqVsTapN1JUlViqV27tKOy6V/OT/A4LDZbShTpxUYQioRiuSjFWS9hsAAYyhCTTaXDivM7W4fQ7GQA+dejDERlF8pJp2bTs1Z8VxXpRCdIdE+mtITdSMXVq3bVWtaUo3f4q5J/0ub7ydAAcvPNOZRqWEY16UakYzU4qXZKPL6Hya5NcHc6gA+cqMJRceStbhwsrW4HG0jpPAaLwqoUpTlBSlK9RpyvJ3fGMYr2HdAA0c4yujneHqUZuSjUg4NwdpRurXi7NKS5p25m8AKuh0D6Yk11lbF1Yp32VaycX9WEX6mizcPh6OEhGEUoxilGMVyUUrJLzJH0AEe1xpfwzwNXDdZ1fWbPH277bJxn83dG99tuZ8cX0f6czaFFYijGtKlShSU5XXixXcnwu7sk4AhvyT6E/M6f7X3j5J9CfmdP9r7yZACJYXow0VgpxnDC04yhJSi1uupRd0+fY0fbWeicLrWFOFSrWpxjJuSoz29ZFqzjJcYtcFxauuNuZJwBG9M6C01pFfgKMYytZ1JeNUf8AfldpPuVl5jqZxk2EzunKE1ZuMoqceFSG5OLcJ84uz7OfJ3R0ABG9G6IyfQ9Dq6MeLs51JcZ1Gu1vuXZFcF677+odO5XqihKjXgpwl64vslF81Jd6OqAOLgtL5fgMAsJHcqSpOldSanaSak9y5Sd27rl2Gel9O4PSmEpYenfbTVrvnJttyk/O22zrgCBZr0TZLnmInVrVsTOMp73Qdb8BfuUFG9vRInkYxgklwS4JI9AEWxujvhmbUMb1tuqoypdVsvu3b/G37uFt/La+XMlIAHjimQvE9F2ncfmMsZVUqs2o2p1JbqcZR/GUX9FovxU7u3dNQASSAAET1P0baW1bOM61Fb0098HslJJ32ya+cny48UuTRJa+GjVpSguCcXFWXBJq3Lzdx9wBGdBaR8CMFHD9Z1u2U5b9my+53tt3S5ekkwAHI1NpzL9WYadCtfZPa3tdpJxkpKz49q9RB6HQFoWk03CrLzSquz+rZ+plngD44TCYfAU4whFRhBKMYxVlGKVkkvMcrINK5bpueIlTUt2IqurUcnue59l3x2p3aT5XZ2wBFM96NdH6kk5VsNBzfFzhenJvvcoOLb/SuR+XQNoN/wCiqL/XT+8ssAVl8gmhPydT9bI++C6D9EYCrCcac90JRmt1STV4tNXXauHIsYAcjVOCzPMsHXp0JRjVqQcIym2ox3cG7pN3SbasudiCZl0X5hWyjCYClUpxhGcJYqTck52e6ezxXe8m2t1uUfotIAfOhQpYaMYxVoxSjFLkklZL6D6AAR7WekcJrXDOjUnOC3Rlupuz4c01yaabVpJpcH2HultFZBo2ntw9JRb+dN+NUn+lN8foXBdiRIAAI7qzQ+Q61hGOIp7tjbhKMnGUb87Ndjsrp8ORIgBV8egLQsX82q/M6r/crliZXlWBySjClSgoU4K0Yx5Jc/S2+bb4t8WbgAhOqOjuWqMRvljcVSpuKTo0arjC65ys7pXVrrb5+0+OV9Dmh8rd/g/Wy7ZV5Opf0xb2fsk8AGvSwOEoQ2RhGMOWxRSjbu2pWIvm3RXojObueEppvtpXpO/f4jjf6SYACC6c6Kcj0riY1aNSulFSSpSq3pXatfbZNtXdrtrtJ0AAORqPTWV6soOjXjug2pWUnF3jyd1xOuAK6p9BmgIP+Ak/TWqfukiaZNkWVaep9XQpRpQ52grXfe3zb87dzogAa+PwVHMqVSnPjGpCUJfoyTi/YzYAFTR/yeNFr8bEP/WR9wnul9JZLo6j1eHhti3eTbcpSffKT4vzLkuw7gAAADRxWSZVjpbp0aU5ct06cZOy5cWrnw8Gcg/NqH6mH3HVAHK8Gcg/NqH6mH3DwZyD82ofqYfcdUAcrwZyD82ofqYfcdRJRPQBFJaL3Zv8O63/AEHUdVs8992/d7Nv0nw+SfQn5nT/AGvvJkAIb8k+hPzOn+194+SfQn5nT/a+8mQA42Q6UyLS+/4PRjS37d+2/jbb7b3b5bn6yLYnod05meLnXryrV90nKNOrVbpwu77UvnWv2OVrcLFhADWwGX4LK6ahShGnCPKMIqMV9C4EX1L0a5BqmtRnUUlGlKUnSg9tOrKVuM4rt4cZKzkuDbViYgDCjRpYeKjFKMYpJJKySXBJJcEkR3F6D0/jMfSxjp2r07+NF2U3banNdrjfg/XeytJQBF9eaP8ADbDRo9b1W2rCru2b77L8Lbo8787koAA52dZNh87w9WjJyiqiacqbUZrl4ydn4ysuLREdOdEGntO4mOI3161WHzJYiop7ODV0lGPHi7XvbsJ+AAAAAAAAAAAAAAAAAAAAAAAAAAAAHjaR6RvpC/knHf2at/gkBI1JSNbD5lgcXOcIVISnTtvjGScoXvbclxV7PmRHoe/kTB/oT/3kyIa6p1ejXNaWY00+oxD6rFwjyu/x7d7S3L+lF+UBc58IYzC1JuCnFzSu4KS3JcOLjzS4r1ozw9elioRlFqUZJSi1xTTV015mipdKLfq3M33UIL2Yf7gLeBjOO9Ncrrn3FZfJJmn874/9dL3gLPB+ftV6Xz3T2Py/DxzPGyWKnOMpOvO8FFw4q0rfjvmSDUPRvm+S4PEVlm2PbpUatRJ1pWbhBySfjcnYC4QUdobQud6ry+jiJ5pjoSqKTcY15tK05RVryvxUUyb6c6PcfkOJhVlmOLrqO69KtUcqct0XHim2uF7rzoCdHPlneWRxKw7qRVZw3qm34zhxV0u35r5G/KSirspbRecYXH4zNM3q36mn+ApNK7VOG1yaXnSg/wC9IC6jnZdn+VZtUqwpVYznRe2rGLu4Sd1Z+e8WvoK/+X/Q3lVf1T+8gOB6StM5Vn1XF05yWHr0kq0HTludTvjFcOcU22186QH6PBV3y/6G8qr+qf3ll/C6Eae9tRht3uUnZKNrttvgklzb5AfY0cqznLs8p76NSNSKk47o8ty5r0orvIMbT0zmFSMMdh6uBrb6jVXFQdShVbu4xbk3KM278X3tu68eJaLz/F4XJZU8NiMNSrTxVVOVevCDpU5NXqRi+bXZ61cC/wA5mR6gyvUlJ1KE+sgpOG5Jpbo814yT4X5rgQbM8yy7Qen6jo4jr3GMqcavWdY516vC6abSs5OW1Pgl64tobpT01o3LqNCVDFXhFupJUVt3yblN3c1wTdk32JAXqCI6N6RMp1xKaowrR2RUm6sFFNSbS2tSd+Ro616Ust0dX6h0a9StKl1kFShGUeLnFXvNS5wd7Rdl3gS/AZxlmaOapVYVHTltqKE1Jwldq0kndPg+fcbp+dujPpBy7Q2EqKvhsZKrUqzq1Zwoxcey3jSnF8Em3dc2y2sTr/L/AInlj4qSh1cpQjUspOW5whFpNrxpJLg3wAkWBzfLczc1Tqwm6cnCooSUnCSbTjJJ3T4Pn3G6fnnoy6Qsu0dhJRqYXGVK1WpKrVqQopxk5fNs3NNqyT5c2ywMl6ZclzvF0sOsPiqc6rai61OEY8E22/wjduHYmBYxoYnO8swdenRlUjGrUTdOm3400udl/wB9po6t1blejMM61aVlyhFcZVJ2uoxXe7c3wXNlV4HRmuNRSqZnKs8Pipwl1FBQjJxpW8SG6fCDl+jfi27XaQXiaGYZ1lmVSpxq1IwdWWympOznLh4q73xRWWl8u1pqPCqq8zxNKSvGdOpgqalGcfnJeUu5x58uDulz6OQam6TsY8Z1k8JTwzdPCKdJOpKSuqlSVOXCLbXFtO3BL5t2F2Ap3SuA17n/AF0amYYihVozcJwlhacoPtjKFWyjJNWfDl6Gm7L07lmZ5TSca+JliZuTaqSpxptRaSUdseHBpu/nA64IfLpU0NB2eMpXXp+48+VbQv55S9v3ASHOc7y3T9J1a81TpppOUr2u+C5JvibSxeHcYy3K0rbW3bdu+alftfYimOmHXelc/wApqU6OJhUqOdNqMb3dpq/Z2I3c/wA/6ONYZfSpVcZCE4Qg6c4uSlSqKKV1w49zXb5nZoLgBXHR3rXA1aNPD1sdRxGIcnGDpqV5RXzbtpbpWV27Lz3d25DrTXGW6FpU6lWFSaqT6uKoxjKW6zlylKPDh2MDs/HGW9f1PWw67bu6reus29+y+63nsbp+c9P6+w2DzjGY2thcXLrYqnQUKKbhTVk9yckk2oR+a3zlx77i0dr7Kta06s6catNUZbZ9fGMWna75Sly7b2A73xtl3X9T1sOt27+q3Lft8rZztw52Nw/OWmukXAUM1xuOqUMTV638FQdCkpxjSi7cXKUbOShDgv6XeTbEdPuQYRXnhcbFcryowSv6XUAtcx6yF7XV7XtfjZdtu7iISU0n3q5W/SNovNq1WOPwU5RxdGNnC7ca1Nc4bXwv/R5S9NmBZR8sTiaGChKc5KMIpylKTtGMUrttvgku85ul81xudYSlVq0ZUKk43lTlzT7+9J80pWa7UaXSD/JOO/s1b/dyA7mBx2EzOnGpTnGcJfNnBqUXZ24NcHxRsEI6H/5Ewf6E/wDeTJuANDLc7yzOXU6qpGp1cnCex32yXNPz8CD9IGuMXTqfAMEt+Nqqza5YeElxnKXJOzuu7m+xSh+K0fqzozo0VRxlZ0J1fw7oYaE5UpTSSnsd5zTdle90uzkgL3NDC51luOrVKUKkZVKVusgneUL8rrsuV/mr1Xoai68sXWxza6unQWFjFdZU4QlOUPGjGL7+b4c2RWeiNdaKwVTE08VN1qso1cVSpUqcpcW3NqUrubgm/FVle9gL5BW+B0trHMKUKkc3rJTipJTwdOEkmr2cXZp+Zkv1JqCjpXCyrThUqKO1ONGKlNuTUbqLaXbd8QOya+Ox2EyynKpUnGEIq8pTaUUuXFvgVp8u2S/meO/UQ/5hz8b03aW1BQq0nhcZOE4ypz20YOykrNcKnB8QLawGPwmaU41KclOE1eMou6a8xsn536MekqGi8E6Fahi6lqkpU3ToK0Yy4uPGa7by+l8ya/Ltkv5njv1EP+YBaZ81XpOW3ct1t2263Wbsnbna65nB0frDCazpTnClWpKEtjVeChJuyd0lKXDiRzXnR/jMxrLGYKo6WNppW4+JWivxJJ8L9nHg+Uu9BYp8sTiKWEhKcnaMYuUn3Rirt9/BIieZ65paOweHqY9bKlS0ZRopzip2u0vo9Nnwu+biOedOei8fha9OMqu6dKpCN6TSvKLS4372BaGT51l2oKMatGaqU5XSkk0ntbT5pPg00b5+f+jDpb0rpTLKVCtKoqkXUb203JeNOUlxv3NFm6U6UNNazrulQc3NQc3ug4ranGL4+mSAmYAAAAAc7Nc9yvI9nXVIw6yapw3fjTfFJeo6JRWdYjUnSHmyrYKFGpRy+e2Drt9VOs+MpLa024tRtZ8LRfaBepoZvnWW5DT6ytUjThdLdJ2V3yX0lWZprbpM07iMJCvSwVsRWjSiqSqym7uKk1epZWUlxfLgb/8AlAz25Pbvr0l/if7gLSi1JHpAtVad1PhsVTxeCquU0o06uGqzao1Kd+cb8ISje7a9K43U55Hc0r8+2zvx9PD7APQVZ0sZzqLCYvLaGGxDoPEzqQlJRjLjekotppvhufJo8+TzpBrfOzma/RofdNAWoCq/klz2v/CZxjJfoylBere0eS6CcnxX8Li8bV71KtGz9cG/aBacZwnyafoMm7HA0lo/LNFUXSoOexy32nLdaTSTtwVr2XBGer9NUtW4SpQlOUN1nGcG04yXGLaTW5X5xfPzOzQdwFaaIxmos3pYnAY6FWNSjHq/hVO8VUhJWi41LfwlrNNcWuLs07xvVOjo6Wqxk/jKrhtvj1qOMcp05X7aO2+xLi5J/wDULvBQONXR9SpwdLH5hialT+Do4fESnVk+5x23j/es+5M7OhOjrVEMXDE161ajTi90MNOvKvOXDh1kuEO29kvUBcprYXMMFjXNQnGbhLbNRkpOErJ7ZW5Oz5M2So8xyTNdB51DEYWlKph8ZLZiKVON9k+L6xLklznd8F464XQFuAh2d9KejdOV50a1fZUhbdHqqsrboqS4xg4u6knwZz/lu6PPzr/0K3/LAlq1FlMsW8N1i69Q3unZ32d97be3vOofnyl0kaUjqSWK678A8L1an1dT5/i8Nu3f2c7WLj0xrbT2sus+DVes6vbv8ScLb92358Y3vtfICQAAAAABjOcKSbbSS4tvgku9syNDOsowef4epRqq8KkXGS9PJp9jTs0+xgb0ZRmrrinxTXac/Os+yrTtPrK9SNODkoqUuW58l/36SE9GdPU+ROvgsRCU6eH/AIviX82dN/Nhfm2lblfbxi7WjfSzrA9KGoKE6NbD5dKnNWkt9b6Gnfg0+Ka5MC04TjNJp3T4prk0c6GoMpqYqWHVWPXxipunfxlF9v8A07LrvRTOnc46R9K1qWWQhhalSNF1FKpOpJRp3dk5Jq1rWSUeCaRv6Y0r0naYqV6kaeCqVq83OpVqzqOb7dqtZKK7kvsVgukHE0xU1JVpS+GRoxqb3tWHcnHZZWb3cd1930WK+17oPNMPRxmKWZYtKMataFGNWSpxsnJQXjfNXLguQFuApro/6OMtx2GwmOrYnEyqWhX8esurjKL3dsb7VbjeXItzL8xwWa01UpTjUhK9pwalF2bi7NcHZpoD5ZdnOW5vv6qpGp1cnCex32yXOL7n5jeKp6E1f4zffjqn/ftLKWa5fKu6PWQ61RU3T3LfsbspbeduHMDanUhTtdpXdld833ekyIzrjRmF1rh1CU5U5wlvo1INp06i5Ssmr/b3NMjr19Do+oUaOZVXPEODlvo03KLipOMbvheXDi7K/tYTvLM4y3OouVGrCrGMnBypyUkpJJtXXC6uhm2b5fkVGVWtNU6cbbpS5Lc1FettIofRPSZpnS2Mx73T+DV6qq0YqnLdGUk3PhayXGy4/io6vStnuI1lUwuDwtKVe6hi69OLUG6dk4QcnwjdSu78rw5gXZh69LFQjKLvGSUotdqaun9KPoVnDW+v6aSWSySXBJYuHBL+4T3JMZjcww9OdWl1NSSvKk5Kex3atuSSffyA+2YZjgsqpupVnGnCNt05yUYq7UVdvgrtpH1oYijioRlCSlGSTjKLTjJPimmuDT7Gj899JnSbhdc4T4Ph6OJt10euk6Sa2wu2o7ZyvK+12duXnJtlPTLpyM8Ph44bF098qdCn1lKEYq7UI3fWXsrq9k+HYBZOPx+DyunKpVnGEI23Tm1GKu0ldvguLSPrQr0cVFSjJSjJJxlFpxknxTTXBp96Kd6fM+j1eHwa3SdaaqVY0lun1NN9ke9u7V/J7Dfw3TXkWEhGEcFjlGMVGKVCPBRVkv4TsSAtcEV0Tr3LddxqypQqw6qShJVoxi7tN8FGUuVuN7EqAAAAAAAAAAAAAAAAAAAAAABG+kL+Scd/Zq3+CRJCN9IX8k47+zVv8EgOX0PfyJg/0J/7yZLswy3BZtTcKsI1INpuM0pRbi1JXT4cGkyI9D38iYP9Cf8AvJnbwuscix2NlhYVVOtGDnJR4qKjKMWnLlu8b5q4rjewHbhCNNJJWS4JLgkvQVJ0eNY3UOcVFxUXCnfzpuNv/SZZ2dZthsiw9WtUdoU4Sm/oXL0t8F5yuOgfBVZ4Kvip234vETqO3dFtf4nP6ALWKUxuCz3Vmocdh447E4enSp0pxjRqSUeNOjdKO5JXcm+HaXWVTpr/ADszT+oo/wC7oAQzU2hs0oZxl+HeYYmrOoqso1ZybnRUVubh43Ddsd+K5Hd1n0e5xk+X4mrLNcXUjClNunOb2zurbZeNylezNPNMJn2vM5xWJwVXY8BCNKjJ8Y1aicnUhflZ7qifNPxb2TutnXWrcz1LlFDDyoSo4rGV40Oqlw4U5rfNL5yg5KK8Zd/NK7DLRPRnnONy7DTjmeLoxnTjNUqcmoQU/GsluXDjfkd3oZxuZ4iOOhWr1K7o4qVKMqs3J7Y8O1u17Xsj7dHmsK2HmsuxcVSxVCKhC3CFelFWjKHZfauS581azUdXoZ/hM1/t1X7WBudMGp6+XYaOFoXeJxj6qnGPNQk9s5ea99qfnb7Gc3/J5pulldVPsxVRP6KdInVbR+WYnMoY2SvVhS6qKfJcW9/6VpOPobIV0A/ydX/tlb/BSA72mtZ4rNM0x2DqwhB0NsqW29503zk79tpU3wXC75k22xKj10/BXP8ALsXyhXTw1Z9nF2i39dP+4Wjm2ZUMnw9WrP5tOEpy9EU37bARDK9a43Ns7xGDhTg6NCmnOpx3Ko1Hxee3nK1rfiyJnj6WEr0pxq7erlGUZqfzXBq0k78LNN3K16Dsrr/BK2LqL8LjK06rduOxSaX0OTm15miwc+q0KGFrOdOVaKpy3UoR3yqRtxjGPa5crAUzm2X6S1TVeEyzB0JzfCri+rvRw8XzcXynPybcL8r8bRrRC0/kuDjPF5cq1DrasJ4tRU3TaaSUqa8ZQS/Gv22VyT5p0nRyLDLC5fl+Jw1eVnShUwyXBO85KF5SnKyfFp97fA6+C6S8t09hNs8sxsIKN6slgoUqUpNJTk47lBKT7wIV0gZjhXUo/A6UY4DByo4qcoRtTqzq1IxTiu21nH070+Rb3SxmFPBZLi5X+dTUF5+slGC/xHmaYHBa1yKUaFPZCthlKjTcVHbZKdKO2N0rNR5citK+pI9IOByjBJ3qVKkfhK7Yww3Ce5f00t69HYBc+kMA8ry/C03zhQpRfpUFf23IFmv+eGE/sUvtrlrpWKR11leYZzqjDU6OIlhpvB3VWMd7SUq7a23XPlzAtPWX8m4z+zV/93IqLKNL5hqrJsphKcIYOm51cU5S2yahObjz4bbXT48G0+w62o9AaxwuDxEpZxVqRjRqylB0ElOKhJuLfWOykla9iS9E+Go4zIcLCcVKMqdSMotXTi6k0013MCa4HFYTG0oTpyjKnKKcJQd4uPZa3CxV+s3v1NlK7oVX+zP7jDSVPM+jnM3gHGdTCYjdUws0nLqXznGT7Iq9m3ybjLhukNUPrNW5Yu6hVl+ziPdAtTFYLC45JThGaUlJKSUkpRd4yV+1PimUDOnlONzrM1iaOLrxjUh1awirS2XT3blTkrbuFr9zP0KUFgsZHCZ5mt8wjgb1KfGUaT63hLh+FT+b/R7+PYBvfFOhv5vzX9Xi/fHxTob+b81/V4v3zsfHFP8A/SOn9TCe6Pjin/8ApHT+phPdAiNGnlOCzvLFh6OLoRlOpvji1VjvtHxdqqSd0uN7d6P0KUFisXHF57lVswjjrTq8YxpLqvFXD8El87+l3cC/QI5PROjLu+Dwt+29Clf/AAmPgTon8zwn6il7pxM86G9JahxFStVjUc6jvLbUaV7JcFbzFZ9H3RZpnUeJzKFVTccPiZUqe2bVoKVRK/e/FXECcdKejNM0MnxU6OGw9OcIwkp0qMIyVqkG7Sirq6un5mdjR2kNJZnl2EqSweGcp4ejKTdCm25OEdzb28Xe/E+WM6Pcq05k+OoYZStVpVZ2nLc3NU/F4/3UfToZzD4wyXC98FOm/wC5OSX7NgJHg9H6Zy6cZ08Jh4TjxjOFGEZRfLhJRuvoIH04fweX/wBupfZItYqTp6pVK9DAxjLa3jKaUkruLcZJSt5uYFtlCZBlmeZ1hs9pYVxVSpjqkG5ycfEcp70nZ8WuHHsbJZ8nGt/56rf7Ov8Amml0H4ethJZnCU3UlHGSjKbVnOS3Jya42cmr2uBPNF4TJ8rwkKFCpCpHD/gpuDT/AAi4z3W5Sbk215yC/wCURU2ZTDz4mmv2Kj/cfLU2AxvRpmUcbh4SnhsTOMMXQpptqcn4tSMV2yb4f0rr8fhn0/2xGAwi8rGUuas+NOquT49vaBZ2ZYjE5fh6kqdN1Zwg3CmnZzklwjeztufC9is/lb1Fg8VhaWIy2VBYitClGUq9/nSjGTS6vjt3p2ui2io+l/8AlHI/7Yv95hwJVrPV2f6cqQjQwFTFqUW5SpycVB3ttdoS58+ZAtV9Iur8fgcTCeUVqUJ0akZVJVG1TjKLTk11S4RXHmi7yN9IP8k47+zVv93ICp9Aa/1XlGW4enSyqrXhGMlGrGo1Gd5yd0uqlyba5vkWFpHWupNQYjq6+W1cLDY5dZObkrpq0bOnHi7vt7DPof8A5Ewf6E/95Mm4ES6QsLh6GW46rGKVR4acXUSSm4xUnFbudk22lcqbS2A0nisFQlVwWZVKjgnOpShiZU5y7XFxntafmLf6R/5Ixv8AZ6v+FlZaMzSnRy/DL49hQtTj+BcMK3T/AKN5rfw/pcQPr8U6G/m/Nf1eL98fFOhv5vzX9Xi/fOx8cU//ANI6f1MJ7o+OKf8A+kdP6mE90DX6DakZTzNRVRQjidsIVd2+EE57YyUm5KUVZNPjfmW+U/0HzVStmr6zrb4tvrVZKrd1PHtHxfH+d4vDjwLgAFFdBuqchyzC4p1sRRpSniZSUatWMJOLhDjaTTte6v6S4NT5pTyXBYiq+VOlOX0qLsvS3ZFUdEfRtpvNcqpVcRh41J1JTkpSvfYpOMeTXDxbr0gWV4faO/PcN/tFP3jYwWsNM5nUUKeKoVJyvthCtCUnZXdop3dkm+Bx/kn0J+Z0/wBr7yvZabyrIdXYKnh6UacFh5zlGN7bnDEK/Fv+igL0KpzfVeruj/HSliY/CcFXqWhOlC06DlwjDaufdZvxuad7otY4Gr9W5To2hGrXvslUjBKK3Pc7tO1/xdrfDjw4Ad2LVRJ9/HirP1PivpOVqiK+A4r+orf7uRH9T9G+A1hWVaWIxVJ7Ix20aihGyu7uLg3u48eJU3SPojCaclQw+GxOMrYrES2xp1K6cVTfByklBOzfBXdrKTfICyegyKeR4f8ASrf72ZYySRUeA6CsnwNKnGWMxcZNWap1owg52vLZFwvbm7cXbmdbLehzLMsrU6qxeNk6c4TUZ14uMnCSklJbFeLtZq/FAWOAAAAAhnSRT1PjcPChg42defVVat7dTTablL6Umty4rkuLVolhcFpevCOW0MTXweJws705O9KVapbxqm12VSMrvhdO3zfF529UqQpJttJJXbbskl2tlH66xuE6WsRDC4KlGo6ck6mOaeyjG/GMJqzlfu5S7E/nRDPQtHPNb5q6uKqQqwy9Towq0lthVrSunNck2o8W0kuELLtcX6XdD4bT6w9KjWxVerU62o4VqvWJU6MHKUlHauNr2fmZbeIzbSnQ7gIUnL5sXtpqzrVpvnK39J85OyXLuRzej/Ic2zzE1cyxsNlSrDq8PQf+hoPvT7ZedX4ybtusg0NPdF+RahwtGvDGY+1WEZfxlcG140fmc4u6foLJ09kdHTmHjRjOpUUd1pVpb5vdJy4ysr2vZcORVkMZmPQrXnGcJVcsqzcqc4eNLCyk+MWvJ83bzXG6dsZPnWXZ/RjVo1I1KcuUo+bmmuaa7U+KAqjpoo4/EZjk8aM1Cq6tVU5yV1GW6hZtNNNLusdXwd6X/wCcsP8AqI/8s+HSH/5nP8lh2xnVn9Hiv/22bus9eanyrNKeDwmHpVpToKqusltfzqikruUY2ShfiB8fB3pf/nLD/qI/8seDvS//ADlh/wBRH/lnnhD0xfzdh/18f+afDGas6W8BTnUnl+HUYRlOT66LtGKbbsqt+CXYBINM5P0iYPERlisZSrUbSvCFKMJNteK7qCfB+c2tW6vzjTtSMaWAq4mLhuc6crKLu1tfivjZX59ps9H2psRrDLqOInGMJVOsvGF9q2VJwVr3fFRJBjP4Of6MvsYET0/rBayyqpiYwdK8KyUd25pwTV9ySKv0Hgskz3AU6uJzfE0q0nPdD4wjTtaclHxJ3krpJ8XxJP0Rf5ty9GJ/4iE9HmfdF+By6lHF0qcq6c97lhpVG05ycfHUWn4tu3hyA19Paa0ks4xsHmFSlTpxg6WIhi6cJ1XNRdROta0uLd9v0nbzeGByLMMsWFzOviFVxVONWMsaqy276dk4wtwldp7uDOHkmedGtLNsbOpSg8NKNLqIvDOUYtRjvtT23jd35pXN3Os20LmWZZT8Apwg1jKfWbKDpXTnT23bir9voAvnUWZY7KMNUqUqLxFSO3bRjLa53kou0rO1k3Ll2EHyDpRzbMcxo4Svl8sNKrGc051tz2xjOV9vVxum4NcyzCqM/wD87sv/ALJU+zEASHpAzzDaShTrywca9N1FGvUSi5UoPgpWabl3Lil2XV0d7LsNp7NqUKtKnRnCaUoyjCNmn9HrT5cjp4rDUMbCUJxUoyTjKMldSTVmmu5kR0JoSehniIxrynQnPdSoyX8Eu3xubb5d1knzbAiFHLsD4XTh1cNvwNPbsW2/i8bWtctvDYLCYO+yEYX57YqN7cr27rlW0P8APCf9iX/CWyBwMVrjSmCnKE8XQjOLcZRlWgpRkuDTTd00fL5QtG/nuG/Xw+852YdEmhs1qzq1MNunUk5zl1tVXlJ3bsppK77ka3yKdHn5p/61b/mAdr5QtG/nuG/Xw+8fKFo389w36+H3nF+RTo8/NP8A1q3/ADB8inR5+af+tW/5gHa+ULRv57hv18PvMtX6gzTT1KE6GEni5SntcKctrjGze6+2XC6S5dpw/kU6PPzT/wBat/zCepWAhPR/r/Ea1niYTwzw88PKEZRlU3u89901sjZx2efn2EHx+MqZnnuPo1szrYOlSVJ01HERpRblTg5JKfDtvwO30Yfytnn9op/bWIti8Vk+F1FmXX4KpjE40NsaWGjiHB9XC7al82/K/aB04aR0lTruss9qKtKOx1PhlHe48PFcuduC4eY5OuZ0dP4KdXD53XrVU4KNP4ZCd1KSUnth43BO/A73xxon+YcT/wDsun95E+knMdMYjLqio5TXws90LVqmBhRjHx1ddYndblw8/ID9DYGUp0oN8W4xb9SKX6SMF0hZRgcVUq5hTlQleHVKhBSlGpLaoKWy97S53vzZc+X/AMDT/Qj9iKc6XMa9V1a2Gg70sFhquKxDXLreraoQv3x3bmu3j3AfTo5yHX9bCYOSx1NYVqDdB0INuju8anv2bryV1e/bzN/o5qvR2ZYvLZPxLvEYW/5OXGUV6PtjNnC0ZqzPNC4fBSxL6zAYilTjCcY2eFna22VuLjLnd8+zk07L11i8tyHB18W4Q62nRlCnUcVvvO6hFS5pOUlwQFcdDOqsvwGFzSpOSUadeVeT741E9tu9twsl2tkk6JssxeZPEZlXVquMl+DT/wBHh4vxEvNKy9KjF9pCejvJaOlMbhaFaCdPMcCpSjUV4yrKUqijJPhwhws1za7T9A0aVPDxUYpKMUkkuCSXBJLuQEG1/jdZZFOnicKo1qFOLVfDbfHkm7ualxbcUuS+bztJN2+XSFmkc207iKqhKCqUIyUai2zjulGya7+JNM3zTD5Jh6tad9lKEqkrcXaKbaS4cXbhx5ld9KWoMJnOm6talfZWVLZuW12daF+HoTA2tI9Imjcvy/CU54ulGUMPRhJOXFSjTipL0po0MPoLWWl6tWrhK1CrVxE5yrVcYpqW26dKMVBNcLy3ck+FkklbmdJWl8lyzJaGzD0oVHPCwc40oRm27bryS3cbcePEl+d9IWZZRiJ045bjKyg7KpSptwnwTvF289gIZqTV/SlpmpSpylgalatLbTo0Y1JVJf0rPalFd7a9jtdNDrHGO751lutyvbifnrQer8XRxWMxMsvxeKrzrSh1kIObo01a1HlaMo9qXZZF85JmVXN8PCpKlOi5pt06qtOHFq0l38LgVv0A/wARxX9tq/7ukfTpe/jWT/2+n/igQrot0nqLPsPiJ0MwqYWCxVSLpwpKalJRg3O++PFppWt2GzrDTGf5BjcqdfHzxaljaSjGdPZsanBtp75XvyAnGS5DVyvOMRi8ZVpKpXkqGDgp/wCjSvZJ2e6ySdlz3eUiyCKdIGjKGtcI4X21YPfQqLg4VFy4rjaVrO3p5pGr0Z6nzPUOFlHEU5wr0JujVcotRnKPDcn81vh4yXJ8eTQEc6FPGnmj78bP7ZP95bBU/QX49PMJd+NqfYn+8tgAAAAAAAAAAAAAAAAAAAAAAEQ6Ucww+W5PjHJ2UqMqa88qi2RXrkS8+GNwWFzKnKnUipwmnGUZK6afY0B+dtEQ1/rTAUcLQ/8AK4SmpRniOO6reUpNRfBv51rQsu+XYW1p3R2kujChKfixsvwmIrNb35r9ifZGPPzsmdGjSw0VGKUYxSSjFWSS4JJLgkiuNSdEq1dmDrYjE1Z4dJOGHTsoy5SSfJRfmW53tdWQETzTNsy6cMSsPh1Knl9Oadas1Z1WuKST7fJj2fOlySWWMpY/oMxinTUqmW15JThdydCfmb7bcm/nrxXxSZdOW5ZgcnpRp0oRpwirRjFWS/6vtb4sxzbKsFnlCdKrFSpzi4yi+79zXNNcnxA+uAx+FzSlCpTkpwmlKMo8U0/+/oKalgs1zHUGdQw9RUq0sLRUJyTaTdOhflxTaulLjt52di09K6Yy/R+FhQo7tkbu83eUpPjKT7OPckl5jnZZov4uzbFY3rb/AAinCHVbLbNkacb79zvfq+W1Wv5uIbWidJ4XReDp0IcWvGqT7alR/Ol+5dySRF9NaQzvHZtXx2OUVKDdLC04y3QhT8tPzptK6Tu5NpcLWSAI7qTRWTapqUJ1YvfQmpwnB7ZcHfa5Ljtbs+HFdjXEhvQzxnmv9uq/azbzHo71ZjK1WUc3r06c5ylGmqd9kZNtRU+sT8VOydkSPQ+isDobDulCUpuc3UqVJ/OnNpK/mSS5fbcCTFU9ATSy6v8A2yt/gpFrFYaZ6KFSyyrhMZJSVTEyr/gJy5WgopuUU73i7q3dxAkfSBouhrzCxoup1bjUjUjNLc4uN07K65qTXPuZFumbMMSsFh8FCW6tjKlOlfk3GLjuk0uScnG/mbM//D/ofurfrf8AoP8Aw/6H7q363/oBYuVZfhsnoUqUOEacIwj6IpJfYbpVv/h/0P3Vv1v/AEJxTyD4twHwfD1JUttJ06VR2lKDS8Vu6s7PnwAg2p9NZ7pzHVcyo1qNRuG2VPGWgoU1x20611GPLhut23cru8Gz7pRw/SV8Hws7YKhUmnialSe6MtjvshNLbZtJ7pWV7X4Lxp5guhrDYyaqY/FVsbNO6jOTjST80E27eZSSfcTnF6XyHH4dUJ0KbopWjT2JRj+jb5r88bMDn6g1ZkGhsDGpKUerjFRowg03UsrQjDvVrceSXFlI6bq5toLFxzPE4ZRw+MdRS2JuWGVWalGW3sUuxdsbrg7J2fhuiXATzB4ivUdanT2rC4eSSp0IxStHauDUWvFVl3y3Mn2NwOFzKnKnUipwmnGUZK6afY0AwOOwuZU41KclOE1eMou6afcyndZ5/lmmdU4atXnspxwdnLbKVnKVdLhFOXF+YneidAYXQ0q6pVakqVSSlClN3jSXbbvbb+dzsknfm8cz0Bh82zaljZzjKNOi6PUSpKSlxqNS3OVlbrOWx8ufcEc1L0w6DzDBYmnDE3nOhVhFdTWV5ShKMVd00ldvm3Y7nQ9/ImD/AEJ/7yZ2800hkuY0KtNUaUHUpzgpqlC8d0XHcuC4q9+ZnpLT0NKYKlh1NzVNNbmtrd5OXK78q3MDtFR46cMbrGhZ36rBtSt+K31r4/RVXrRsT6Is6lJ2zfGpNu0VUnwXdfrOwkWiujfKdFSqVIynVrVOE61Z3m1e7S7k2k3zb4XfBAdbU+aZ3lNKMsNhfhU3K0odbGltjZvdukmnxSVvOVnqfUWoMNh69WtkdKC2S3VpYihKUW1ZS+ZubTaslxb5FztNldYjozx2oq27H4yeIpxluhh6cFRpcOW9Jtyft87QEI0JW1NRy+j/APk0MVuUpKvUrUYyqRlJyj4s4uSSTSV3yRuaoxuoVgsRfI6VBdVUvWjXoOVJbX46UYKV48/Fdy7qVKnQioxSSSSSSsklwSS7kaGocp+PsJXobtnW05091t23fFxvtur2vyugKg0Rmup8PgsNKnksKzUIuOI+EUYzqf0+Md6b87uWrpfNc7zanKWJwvwWSlaMOtjV3Rsnu3RSS4tq3mPtpjJPBvB0aG/f1UFDft27rdu27t6Ls6wEWxnSTovAtqWMo3XNRmpv1RuU/oPpO0zpjE5nOpKclXxUqlLq4OTnBzqNPja19y4OzLgp9G2jKc5S+B0ZSlJybnDfdt3b8e65newmWZfgP4OnCH6EIx+xARTSXSLh9aVpU4YXEU4Km59ZXpqMJWlGO1WbV3uva/JMinRLV8FMdjstnw21HWoXfzqckr2v/R2Oy/pdzLhIF0gdHHhZOlXo1Xh8VR+ZVV+Mee2VuPC7s13tWdwPdSapzTCZ1l+Fotbasas68XFPxErxd+cWurmk7248b8Dg9PGIpYShgZSdoxxlOUnzslGTbsuPJdh1NC9HeaZJi6mLxmI+EYiUOri1fbCHC9r24uyXBJLjzudrXWiY62hh4up1ao141nenvU1FNbLbo2vfnx9AHL+W3o8/Ov8A0K//ACzidCWMoZhPNKkHeE8ZOcXZq8ZOUouzs1dPk1csjwdyP83o/qofccnR2iqGj5YpxnuWIrOtt2KKp3b8VWbuley5ASkqTpwq06ry2lfxp4ym1HtaXit29M0js6j6Ns1zzFVKsMyxVCM9v4KlOShG0VF2tNLi1flzbMdO9EeX5Rio4mtiK2LrQ+ZKvK6i+x2d22r8LysudrgWIU5014zD4DG5NOclGMMU5yb7IxnQcn6Ei4yE6w6NMr1risPVrTm4UVJOkn4k7u64848fnW+cklwsBxsh6RM71vj4LCUGsFTlLrq9VbXU8VpKF+Vm07K8nwvtV05X0g/yTjv7NW/3cju4TB4bL6cYU4xhCKtGMUlGKXYkuBoapyuvneBxNGDSlVo1KcXK6inOLirtJu3HjZMCPdD/APImD/Qn/vJk3I5oPIMVpfLqGHqOLnTjJScG3F3nKXBtJ8n2okYEH1JqDV2HrVKVLK1iaNklUeJpwVROKck6cot2Tbjx52v2lUa4zXPK9fB0PiuGFqyrKcYU61KUq8Y8HCWyK2xd+c+HPudr61DhM4xtBxw1ZUKratOVNVEl2+K+F+5nA0r0c4PIKzxFWrPFYqSs69b8VPg1CHFRXZzdlwVlwAjPwzUv/wCjtH/aMP7hDtXY7PljcuvlMMO+tntoxrUnHFPxPEk4xUUo/wBNNeN6T9FkX1No7wixeBr9bs+CVJVNuzd1m7Zw3bltts52fMCMYPUOtcuv1eRRp357MXRje3K9oK5ZdCdSpCLktraTcb32trir9tuVz6HF1ZkeJ1Hg6tGFaVCU1ZVIc15n27ZcnZp27QKr6R9R1ukHEwyvBvcnNPE1Y8YRjBptXXBqD4y75bYrjcuPK8uw+T0KdKCtCnCMIrzRVl9PDicLRGg8o0JQ2UleUrdZVl8+o1390V2RXBed3b7GeZRQz7DVaM21GpFxbjwkr9qburrmuAHQKdyrF0NQauqzpvfDD4XY5R4xUuCavy4Ocl9D7j7/ACAZG1Z4vGNdq6yHFfUJzpHRGR6JpOGHhbdZznJ7pza5Xl5uxJJLjw4gSIqDXz8K8+y7BLjCjfE1l2cPGin9ELf3y3yHZHoRZTmmKxsqvWSrxUYpxs6cbq8b3d1aEEnZcgOjrHWOV6Kw0qtWXeoQT8apLsjFfa+SXFkM6OMhrVqs8yxso/Ca6/Bwk0lQov5sUnybVvOlz4uRKNZ9HuR676rr996TltdOSi2pWum2nw4J8CP0ugfQVPnSnL01p/uaA+fSvlWGzmjDEUMRCGKwrdSk1Vity4OULXtd2ur8+XJskXR3rjC67wcaqsqkfFrQ8mfev6MucX9HNM5tLoU6PqX/AMLf01qz9m+xlkHRhgtLZjLEYao6VKVPZPDq8oyl37pNuy4NLne/FJtAT0onVustc5Tn8KUZ1IYSeIw9ON6MdklNU98Y1HC7u3LlK648rF7Fe53lOaarzjDqVOUMLgn12+drV60knTUPNTsm333T7ALCAAHE1bkuU5/g6lPEXVK2+bUnFxUPGvdditxucDoozPA5rgN1HCrDUVUnGklK7qRi7dY+Cd3yd23dPidnW2nMRq3BVMPCs6PWWTko7rxTu42uuErWfHkdTJ8qwuR4enRpq0KcFCK8yXN+d82+1gRHTeZ6c6Qq86s8Mo4jB1ZUrVbSnDulw4c4yte+1p25m9DXFOGbvAzpuDdJVKVRyuq3a0o24WtLt/Ffmv8AXLNE4XKsyxGMhUknXiozpJLZdW8bv3cL/S+8+moNFZfqLE4WvKU4VMNJyg6bScr2e2V07xuuXna7WByukPV9bSLw7qUY1MJVm6eIk05OCkvF8X5rT4t3vezVrtEuyzCYDA0YRoxjGml4igko2fHhbhZ3v5zX1BkWC1LhqtCqrwqR2vvT5xkvPFpNedGGRZDSyDCU8PGdSUYQ2RnNpzt2cUkvFvw4cFYCtcpqLWGqq1WPGlgaPVKXZ1kt0X5uc6q/ujUWPweW6tws6tSFOCwTvKpJQiruul4zaXEnGhtEYHQtCdOEpTc6kqkqk/nSu/FT/RVl53d8LnM1F0Y5dqjM6eKrSU6cKPVOhKDtJpzalvUlazny29nMDv8AhrpT88w3+0U/eORqnWGma+BxUY4vDuToVkkq9Ntt05JJJSu2+5HvyT6E/M6f7X3mvjuiHRWJpTjHDU4SlGUYzSk3CTTSlbcr7XxtfiBr9CH8hYX01v8Af1Dt641jlej8M5VXeU0406ceM6kmrWS7lfi+S9Nk/tojS/gbgaWG6zrOr3+Pt2X3zlP5t5WtutzMsdo3Jsxx1LFzhuq0oOELu8VxupbfKjd2fn70rBV3RdnlDKcDVy6unQxSjUcIVbQ61VYuUdrdlu42tfz99p30UZJmOncpo0a8NlSLqbo3UrbqkpLjFtcU0+DOrqfROntYRSxFJTa+bNXjOPomrO3m5eYiT6D8iirRxONguxQxCsvMk4MD7YLIc/yXNc0xcaKqRq0qfUR6yMXVnThFOPa43aaTkrHJxGWa113mGBqV8JHCUcJU613rxqynJOMkko8ecEuK7W78kbvyIZZ+fY//AGiP/LPH0IZd+fY/9fH3ALPqVIUU22kkm227JJcW2+5H58zjWtTHZxDM6VCdTB4T/wAtOrH8beqilNLnaPWf4buO5WuLN9H4XNcteD6ycYunGmpqTc/FtZyfDdut4yfzrs6OT5Dl2RYaFCnBKlCO3a1e6fznLvcuLbfO4HmR6hynUlJVKFWNSLX4r4rzSjzi/NJXIlqnK+k7EYqUsHisPCg1HbCtFOUXa0uKpSbTfHjLt7D45l0I6Mx9RzhGpQk/zepsX0RalFeiKSNL5CslXLF45f6+H/LA3tDdHub5PjauMxmIVfEVIdX4itCMeF7cF5KSSikuPO5YpVT6Ccnf/wAZjv10f+WS3RmhsBomNRU6lWo6jTlKvJSl4qskmklbi3y7QJQAAAAAGpmWZYPJ6M6tWShTgt0pS5Jfe+SS4t8DbI7q/R2A1nTpU6rkoQqxqOMXZVFG/iSXc78+a7LAVh0W6sy+OaY6VRSorHzjWwzqrYqkYyqrg3wu93Cz42a9Pdxek9eZZm2LxWEeEccQqatiHUulCEY8oJJO6fa+BNNSaJyDVVCNKtSTjBWpuPiyp8LeI1yXBcOT7UyHQ6HsXhOFLNcdTiuUetdkvocV7ANu/TH/AP23/wBc4uq9MdKusMLKhVeXqEnFt03WUvFakrNprmu46XyV57/PGN+u/fPlLolzyX/64x36yXvgWbhaUqNOMXzUUnbvSsVjV0WtHZHme6fWVq1PEVKtV85XjLYr+ZO787kTPSGmq+l6MoTxNbEylNy6yvJyklZJRV27JWv6Wza1VlVfPMDiaMGlKrSqU4uV1FOUWldpN249iYHE6NaFHEZLglKKkuqg7SSavF3Ts+1NJp9jITqDHvpazOng6Lvg8NNVMVUXzakldKCfJrnFd/jS5RV5PiNCZzXySjgo4hUakIwhOdO7hOKfjxu1Gdmn2Wvaz4Nkk0lpPK9GYaNGiuC4yk/nVJdspPvfqS4ICN9LGlMXnmEhVw/DEYSarUdvN7bOUF53tTS7XFLtOr0f66wOusKpxtGrGyrU+2E/Rz2yteL+jmmSwgkejDLsLm0cbRqTpcJOrSp8IVZvtfcnzlG1pNJ8ONw1Om7Mp4PKZ04/PxFSnQglzblLc19Kg19JwukfBUupyvKqfF1KlJTS7KNGO2Tfp4y8+1k71Voynqmvg6kqjjHDVet6vbeNRpxau7pq23z83w7vnhNDUKOa1sbOpKpKdONOnGS4UVynta7Hwtwury53A4PTTOMcHhY+XjcPFL6z/cWUVzgOiDL6OJpVq2KxWJdKW+nCvV3wjJO6dmr8LLt4243OhqrRmoc9xG+jmNXDQcFF0oQ3K6veSlvja6a5LsuBxOhbjDMf7fW+yJaJG9EaMwWh8N1VOUpuU3UnOfzpzlZN+ZWSSX2kkAoDok6RNK6Rw2Jp4mt1c5YurNLq6k7xcacU7whJc4vhe5sa515prWGMymOGrdY4Y2k5Lq6kLJzgl8+MU/oLA0V0a5dpSjVhU6vEOdaVVTnRinFSUVs4uXBbW737eXf9dQ9HWV53VwlSG2i8PWjW/B0orrNri1FtWsvF84EyPnWrUsNFyk0oxTk2+SS4tv0HH1ZkGI1JhnShXqYeW6MlVotqStzXBxdmuHMgVToWxuOW2tmmMq0386Dm7SX96Ul60A/yfVKpl1ebX8Ji6sl51spr7blsnOyLIsv03h4UaMdtOCslzbu7tt9rbbbZ0QAAAAAAAAAAAAAAAAAAAAAAAAAAAAAAAAAAAAAAAAAPnUr0aTSckm+CTaTb83fzM20gPQfOjiKOJV4yUl3xaa9aPoAB8sRisPhEnOUY3dluaV3zsr9vB8D6gAAAAAAAAADFzgna6v3doGQAAAAAAAAAAAAAAAAPm69GMlHctzV1G63Nd9udj6AAfKGJw9STipRco23RTTavyuuavbtPqAAAAHyo4ihiL7ZKVnZ7WnZ9zt2+Y+oAGthMwwWP3dXUhPbJxlskpbZLg4uz4NdqfE2QAAAAHxeLwyns3x32vs3Ldbjx287cHxA+wAAAHm5XA9AAAAAAAAAAAA+c8RRpyUXJKUr7U2k5Wtey5u11e3ID6AHyWJw8puO6O5K7jdbku+3O3nA+oAAAHypYihXvtkpbXZ2adn3O3J+ZgfUA1sLmGCxzmoVITcJOM1CSk4SXBxkk+DVnwYGyAAAPlSxWHruSjKMnF2kotNxfc0uT9J9QAAAAAAAfOOIoyk47luXFxurpedc+1AfQAAAAAAAAAAAAAB5uje3aegADy6A9AAAAAAAAAAAAAAeSlGHN29J6AB5KUYc3b0noAAAAD5uvSjJR3Lc+Surv0LmB9AAAAAAAAAAAAAAAAAAAAAAAACLdJGJxGDynFyhKUJRpScZRbjJPhxTXFP0EpIv0jYTE4/KsXCnGU5ypSUYwTlKT4cElxbAqzIcHpbHYWhOrnuKhVnShKpD4fGOycopyjZptWd1Zu51+jRVMzr5vh4Y2vWpJUIUa7rupOKnGrecJ/NUr9sV2LuPlp7OMvyzCUKdTJMXOpTpU4Tl8Bg90oxSlK7e53avd8Tq9FeExKx+Z1XhauFpVnh3ShVpdVwiqiklH5vBvjtfau8Dka/0tmejsvrYiOaY+UobFGMq7s5SnGPG1nwu39B2sq6Nc4xVClKea49TlThKajXdlJxTklfjZO/Mhmk9D6RzLLMTi8VTqTdKpiJS2VJJuFN3so7lG/paPnrnQ2kMHkfw3DU6sHNUZQ6yrJtRqSirOO5xvZ97AvjI8sqZPh4U3VqVnG96laW6pK7b8aXba9l5kiuOmDNM8w2Kyyjh8ROh8JqzpSlDjzlQjFuPC+3e3a6LSw3zI/or7Cnem+ri8PjsmlSh1lSOIm6cG1FTmp4dxjufBbnZXfIDq/Jtrn+e636j/AO6Pk21z/Pdb9R/90+vhV0q/zTT/ANqp++PCrpV/mmn/ALVT98CPaw0vrjSmBrYj44rVOqSezqtu68lH53WO3zr8i0tGYuvj8uwc5ycpzw9GUpPnKUqcW2/O2yp+kPUPSHjMsxEa+XQo0nGO+osRCbit8WntUm3d2XBFpaB/krA/2Wh/uogNb6dxep8HOlTrTo1LqUJwk4+NHilK3Fxb593B9hyejvVOb5rhqkcZSlSrYeXV1Kk1tp1GvxlL5t/Ktw5NcHwx1f0i19KVnD4Dia0FBTdWlBumlxveVrLba7u+B1Mox2W9I+WRnKm1SxEZKVOUrPapuLW6LT47b8GBAelbMcDXzHJHGpBqOLvJqaaiusocW0+C4PmWdjc6yp0p/hqfzZf6SPc/OUh0idG+lchx2VU6VHbDEYnq6y6ypLfDfRVryk2uE5cY2ZPcV0J9H9KnJrDO6i2vw1bml+mBzegjMsBhcoipVIRfW1eEppPmuxstq5QPRF0Z6S1Tlsatei51HUqR3dZUjwi1bhGSXsLsz3KI55hatHfKmqkHDfB2lG/av3rtV0BUGpMRnfSfmC+BwpVMNgKibdeUlSrV+35vGShZWS875SV+/p/XGtMXm6wdalhmowc68sO6kuqW1uCcpSspOW3hZ8H6oNpnBary7L8fPD490aWBq4mEaXwenN1OqW+7qcHeV7NtP9yxoZRqjReXU8dTx7/83OhUqw6iG6Uq1m71ZOUnt3PsXa+FwJ/0m4PVOV0sRi6WYyo06cE40FRjJXSUbdY5X8eX9Hhc1Mk0p0gZthaNZ5xODq0oVHD4LB7N8VLbfer2va9kfbUuS6o6QcX8HrQWGwFKonJ7054vbxSjblH/AA+dqy2c+xPSBWxNXDYWpl8YbfEjOU/hEKbilucE2lZvg9tuQGz0NZ5mmoct62vUdSbq1EpSST2rakrJJd5u6pw3SJXr/wDk6mFhR2q/XqTmp3e61oyVrWt9Jv6C0mtFYCnh92+Ud0pySsnKTbdl3LkvQcjUOqNc5fiZwoZb19KO3ZV6+MN94pvxXxVm2voAhNbEdJtbNYYGeYQhKVB1t9LDwcUryVrOKlfxedywNL6Qz/Ja/WV8xq4m8XHq5QUKfFp7lFSfFW4P095Uk9V6uxGoY1FgV8JhhureHVaL8V3nuc+SdprgWbkmq9e47EU4Vss6mnJ2nU6+Mtis+O1cWB1NK618JsZjqHVbPglSNPdv3dZudRX27Vtt1fK75+bjEdS/53ZZ/Z6v+DEmXRZ/K+e/2in/AIsQY6l/zuyz+z1f8GJAtoovLKGsdaZnmVOnmNXDww1fbGKjvW2UqiSXjRso7PPzL0Pz3pzUee6fzjOPg+Cli9+I8fZU2dXtnV238WV9133cgJRj9Aa6wNKpP46qvZCUrdTa+1N2v1nbY4mhch11rXBQxHxvVpb3NbOr322Scfnb487X5HazXpD1vWoVYyyarFOnNOTr32pxabt1fZzIz0Yaz1Vk2W0qdHLKmIpqVRqrGrtUm5ttbdj+a+HMDq6u0trrSuCrYj44q1Oqins6rbuvJR+d1jtz7iz9D4zEZhluEnOTlOdClKUnzlJxTbfpKo1/rjV2aZbiKdXKqlCnKKUqsq25QW6Lu49Wr8VbmWj0d/yTgf7NR/wIDkazzjpFwGIjHA4SlWpdWm51JJNVLyvGzqw4JKL5dvPujvhN02/zdh/1kf8A+YLeAFQ+E3Tb/N2H/WR//mB4TdNv83Yf9ZH/APmC3gBFdEZhrDMKdR47D06ElJKmqbTUo24t2qT7fOiVAh/SVq+OjcBUqJ/hZ/g6MebdSXBO3dBeM/RbtAhuW4zD6k1Di8XNpYfLqTpRm/mqdpdZLu8X8Le3ZtfcTH5VtC/nlL2/cQb/ACfsG6mCxtOrG967hUhUW6/iKM4yT4O/FNPmd7LKOicwzTEYJ5bhoTowjOMnRpNVYu12ls4Jb49r7eVgIitXaeyfUfwmjiKbw+Io2xD3WUJrgntfFu8YPgu2X02T8q2hfzyl7fuOh4BaP/MsL/s9P3SI1YaLjnEcBHLcNJul1k6io0rU+DdpR2X5beKfOS4AWVhsTRxkIzi7xnFSi1ycZK6f0pkLwL1dkmaSpz3YnCYhynCp4qlhZLnCXJOHJRS4vs47rzJ4Oh1XVpKMNuxRjwSjbbZJcklwVuRRmrdJaFyiaw+HhVxGMn4sKMMRNqD8qq07RjHm03e3cuKDo6GzTNcoweaTw9CVeq8xrRhCNrJy2pSlxT2x7bexXam2Dr5ronKqtbGV3WqwjOtNuyipPjGlDgvF3Wir9/CyslQ2jcq0jl8akcwjXusTUo/CKUpqhCUFBWnKLveTcmnblz83Z6TqmV5Dho4LAqVSk9uMxMusdSLp3jCmt934re1uz4eL3sCRdFev9GaYy9RrYpKvVqTrVvwdRvfN2V2oNPxYxvZ87lm6e19pfVdR08PXVScYubShONopqLd5RS5yRytXZZp7BZViasMPRVsNUlBqlDg3B7He3e0Z9FeSYPLMrwklTgqkqEZSmopTkqn4Szla7XFc32ICO9IvxtmOcZfhqeKrYeFanW3OhNx4wUpJ2TSb8W3E4mc5Fn+ncyy+hTzLF1p16u6cKlWW1UabUptpS43SfB8HZki1Z/nNlP8AV4j/AHczV0/WxWos5zPFwjGcsLD4JhoTltTkruV3ZtJyi7O3KT7gLC1RqfLNI4aVatK0Y8l+NOXZGK7W/ZzdkmUrhsJrLAyWdzi5SlJueFtxjg2kla/FOKSfLlaT/GRljct1J8Ko4vM8LiMXJ7pUsLhabnSw+1q3WJXV3e6jd3t4zdrKVR6anVqyorLca6qjulSVK9RQ4Lc4fOUeK4tW4oCxchz7LdS0IVqM1OElz7U+2Ml2SXamb1dtQl6H9hSGV6c1G51MZllKrgpOptqYLGRcKdXgnvhF2Sj41rcLWe1x5F1z63qnutu2+Nt5XtxtfjbuuBXPQRmWOzXK5Sq1J1JdfUW6pNzlZRhZXk27ceRzuk6GO0Tj6GaUt0ocKGKp34OD5NLkr8u5SUH2s+/+Tz/JEv7RU/w0yy83yrB55QqUasd1OpFxkuXB9z7GuafYwPrgcdhsypQqU5KUJxUoyXJxkrplXZticQ9X4SKlLb8Fk3G72t7cRxceV+RZmU5VgcjowpUoqFOCtGKu7LnzfHi3e7Kvf/mtYr/5WD4/Sv8A7iAt0rjH6a6T61Wo6eZ04Qc5OEHhqbcYNtxjdwu9qsrvmWOVTrbPNY1c7oYPCYiNFVMN1r304TW5Sq3d3Fy4qCVlwAj+t8T0o6JpUpyzGFTrK0aKUcPSVnJSd+MOS2kn8Fulj+daf+y0/cIL0l5Pr6lHBwxOMpVusxVONJQpRhtqcVGbtBXS3cvOTXE5F0tYeEpPMqFoxbf/AJeHJK7/ANGBG9BYvpR15hZVoZjCmlUlTtLD0m3tjGV+EP6XsJplWm+kzD16cquZU6lNTi6kFh6cXOCfjR3KF1dcLple9FGQdIGIy6M8LjKVClOpNqE6UZvcntk7uDfHb3k26O891VXzLG4XF141vg8adnCnGCvPi34sU+TS4gWgVDVrU9W6mcm/wGWUm5P8XrpXv9K+2mTrXeq6GjMDVrytuS204v8AHqS+YvR2vzJlX/5PdPE1JZmqybnKdHrFNcXKXXOW5d7u7oCw/lW0L+eUvb9xWub6u07gdQ4fGYfEU5U6tN0sVaW1JKyUnezfDY0ld+IS+lR0TLN5YGWW4aMlR62FR0aVqnLgo7L8Ly4t/islfgFo/wDMsL/s9P3QOf8AKtoX88pe37iU4HHYbM6cKlOSlCaUoyXKSfJorjNI6Ky/NcPgVluGnKtBzlJUaS6tLdZtbOKtCT5q3DncsijgsNhqapwioQUdqjBKMYx5WSXBJeYCG0nq/I80cXuxODxLclLxVLCSS5Pkur4cO1+eV98S0XmeY5RTzqdChKvVWYVlCnG3FuTSb432xvd24+jmubq7SWgchkqFGFbEYyfi06FPETbTf41Rp+LFc3fjbuV2oVpLKNLZW68cwhX8TEzoOvRlPqacoWXjyi7+M72dm7AX5k9TN9I5bVrY6u6tSKqV5rhtp8L9VCyu0uSv2vhwsV50VdIGj9O4KTxGJjHEV61StWWyo7Sk7JXUWuSvwfazh9JjynIcH8Dy9ynCsli681UdWPUw4Q8Ztra5K7s+xd5bWcZdpvC5VVrxw9BJYWVSNqUPyTlGzt6AOhp/pB0rqmq6eHrqpNRc3FQnHxU0m7yilzku0x17rHD6Mwkqj8apLxKFNcXUqv5qtzsubt2cObRyeiDI8HluU4SXVxVSVNyc9q3tVJymk5W3Ws129iIv0y5HXw2JwWLp1pwqvEUsNBNRnTpb1UbqRhJW3cF6r87WDm5PhOkHo1wmIryhg/Hbr16ladR1ZSlxUXttG920ortb7yx9O47UOsMpjObWFr1otwlCG7ZFy8SahKV3ujZ2b7Ss9RaR1Zn+Y0sBXzJ1Iuj8KUnhoKKlCbgoumpJS7/GdvMdrINRa3yqpmdG7zCphnhoUlthRX4VTcpbY9i8W63clzXEDQjg9e1M3eBWbTe3D9fKr8Hhw8ZR2bN3nTvu7eRs51S1tpDG5dGeZTxEcRiYU5Q6iFPxFKG/inJu6lbsOtkumdRaaw2LxkqtCWYV9spyru2HpQjJXpuSasoxvxTtdRXJXeOW6W1dqzG4TFY2rheqw96lGOEcpRnKVrS3SurcIu6k+VkldsCzcesW6U+qcVU2vZvTcN1vF3JNO1+diEdHmva+fuphsVFUsbQbVSHJVEvx4r6VdLhxTXB8J+RXO9BZXneNw+KbnTrUH86k9rqR7Izfcr/Sm1yfAM8z6RNI5NVlSq4mEKkHaUZXum0muzuaKoyLW2msNqfHYmWIgqNTDxhCo77ZSUcPdLhf8SXZ2Fy4zSOmsxm51MJh5zl86c6FOUpcLcZOLb4LtKq05pfIMRqfMabw1F0oUabhTdKDpwk40LuMLbU3eXFLtfeBPqfSnoetJJYum22kl43FvglyJgUr0y6byLJqGDlRw9GlJ4ylFypUoQbW2bs3FJ2uk7F1ARPpMxmKy/KcXOnOUJxp3jKDcZRe6PFNcUQzTmiMfnODw9aWb46MqtGnUlFYjgnOCk0r8bK/aS3pY/kXGf1f/FEqHIK/QcsJQ6+P4bqqfW8MV/CbVv8Am+L86/zeHcBYnybYr+eMd/tBqZroHG4ChVqLN8c3CnOaTxHBuMW0vpsRf4R/k+eT7MWauZ4joHdCr1cfwmyfV8MV8/a9vPhztz4AWj0QZhjc1ybDVKs5VJy63dOcnKTtWqJXk+LskkTgr7oR/kLC/wCu/wB/VJNq3UuE0jg6tefKEfFj5c3whFfpP1K77AK/1HUnq/UWGoRk1RwMHXrtNpb3ZqLa4eQrN8nPuZZfx9k/5el+sj95UfQLKpnMcynWV6lWslVbVpPcpuUe9JOT4dhI836K+jXJaFStUwqUKcJTl+Fq8oq9vn83yQHMjmmX+Fbn1sNnwG27fHbfeuG69r+Ysz4+yf8AL0v1kfvPyAtI4jrN2xfxX4d1N3bqut+Zu+dbq/Gve5+hcn6LOjXPMPSrU8KnCpCM4/havKSvZ+PzXJ+cCx6VWnXinFqSfJp3T9DXAr7pL0nnOOdPGYOpOOJwybjT3Nwqw5yjs+buf7a4PstOcsy3CZPRhSpR204JRhG7dkuSu2362Vn0cP8A/PM7/rKX21AJFWlrHVWXUJ0pfAMRJqVRVIRqeLaScVFqVtzcZK6UkuDOJ4KdLH860/8AZqfuH01Br3VVDNJ4PCYWnXlClGq99TY9r2p8W1Hg5LzmL1J0sr/9WUf9ph74GPgp0sfzrT/2an7h9OiTUOoM5ljqeKrddLD1+qjLZGC8VzUmlGK5uN+J3ejbWGI1xgevnCMH1k4bYttWjbjd8e0ivQ3/ABrOP7bL/HVA6HTfj8Xl2WRlTqzpN4ilFzpzcJKLUr+MmnYjvxTon+f8V/8AtCHukl6a8sx2a5bGNKlOrJYilJwpwc5bUpXe1dhz/CbJf5hxf+wU/vA+XRthMdqzJ6sHi8Qn8KqKNeFVursht2pTd+DX0cTia/07nelVhVSzPHTqYjEwopTruyUrptWs7puPrOnpXAY3LdN5kqlKdFtY6cYVIOElGVK8fFfZ6OBwaGitA5RkmHxuKo1puUKTn1VSW5ynZXUXOMVx84E8+S7MP52zD9f/ANCfUorBU0nJvZFJylxb2ri33t2uylNU6CyDR2NyqeHjOLqY2lGW6pKd0pRa4SbLqx/8FU/Ql9jAoTpb6StMatoYfD0K7cJV4yrz6upHZTjw5Sgm/nbrRTfi+i9mZJ0p6FzOpSoUMRulK0KcOqqxvZcFeUFFcF2sjnQZlOW4vJ4SnSpyfWVeMoRk/nd7VzHXWAweBzzJdlOEL1K19kVG9lTtey7LganTzn+CXwTBzqbIVasaleSTbhRi7cknJ3bbVlziSOl009HNCKisTZJJJdRW4JcEv4M1NJaVx2ZZljMZjqSUpy6nD0qm2ajSjZ7lxcXdJcV27+8n3g/kv5Cl+qh9wGtprVeS6vpyqYap1kIy2N7JQtKyla00nykuKRyM76U9G6drzo1q+ypC26PVVZW3RUlxjBx4qSfBkU/yfLSwGJa7cZU/3dL7yzsRkuVYuTlOjTlJ85SpxbduCu2r9gEM+W7o8/Ov/Qrf8srPXGvtL1s1wONwldSnTeyunTqwvS+mCveMpx4Xfze7hJOmrKstwzy6MKVOG/FxT2wjG68VWdlxXjFqfEOQfkKH6uH3ARP5bujz86/9Ct/yz6Yfpn0DipxjHE3lJqKXU1ldt2Su6dvWSj4hyD8hQ/Vw+4zhkGSLiqFHhyapQ+4DpAAAAAAAAAAAAAAAAAAAAABGNaUM8lSU6GMhhI01KVWdSlGpFxsrfO+bts+PnJOQjpex8MvyXFt/jQVNed1JRj9jbAg+qMy6QtO0MNVjmdOtDEVqVKDhhaSVqqlJTTs7q0fpuT7IMj1vgq8ZYjHwr0knenHDQpttpqL3rirPj5yoM+z7C59kuXYa8qVfD4zDYetTvtq03CnUpqavx42unbg+HYWphdOYXQCniquPx1WnTg90a9WVaCTt42yMb3Xf2AQrIsRDBaWzBy4Xni48e+b2R9bkjY1vQlR0hRjzao4Tlx43p35dxsVKub9M1SmuqnQy2E1OUqnCpinHjFJeR6OHbdtJL6Y7JtQdE83VwalXwLblVwrbc6KfFypPi9q7fbf50QtjDfMj+ivsKd6b8ww+U47Jqs77KdedSVld7YTw8pWXbwRb2X4yOYUoVFGUVOMZKM1tnHcr2lHsa7UVT0wVIUszyNtpJYptt8EkqmGu2+4Do/L5oXy6v6qQ+XzQvl1f1UiffHmUflqX6yP3j48yj8tS/WR+8CmukPph0jqPLMRQpSqOpUjFRUqbSupxk+PoTLT0D/JWB/stD/dRI70tZrluIyXFqNWnJuEbKM4tv8JDsTuSLQP8lYH+y0P91EDZ1d/J+L/s9b/dyIHoPPcRp3TeEqQw9XEPx49XRTlOzrVONkm7Lt4E51nVhQy3GNuyWHrf7uRUfQ/qPUecUsHh6FPZh8NveKrT5VHKU5Rpw9G9N249+1fODk6513mGeY/LJPL8VSlQrOpGnUhJTrWlSlaC2ptrZxsnzRN8T0s5vUhJfFGOV4tXdKVldc/mGq8VHWuqafVvdRy+lLfJcYurLdFq/mckv7ki2sd/BT/Rl9jA/PvRTr/MNO5cqcMvxWIXWTfWUYSlDi1wuotXXbxL8ynHVMzoU6kqcqbnCMnTmrTg2r7ZLhxXJ8CvOgH+Ro/11X7UWe2ogfnTL8ix2OwGd1Y4qrThDEY3dRht6upaO57rrd4ye12fIyz3TuYYTIcFWljK04S+CNUJberju2tJWW7xOy7PllGk8LnmUZnjHVrxvUxlSEKdVxpTio3W6FrSu7p96sjLPNGYTLsiwWJVbESlP4I3TnWcqK37W7U7WSXZx4ASfWOKz/VWdU4YKNKp8XR3z65tUuuq8EntabcEk1Z8Gpd3GPYTEdIq1DWap4T4X8FW+Lc+p6rdT4rxt2++3ttzJ/ipdJ2Er1nQw2AUJVJWk3ONScU2oSnaSvLba5AsHiukJahrNUsL8L+CpSg5T6lUt1Pinu3br7e23MC4tJVtX1Y1Ph0KEZXXV/Bt1mrPdu3SfHlaxs6q1LgdJYSpXqvhBcI9s5v5sF55P1cXyRztK4nXVepP4bSw0IbfEeHcnJyuuD3SfC1yMZpozO9ZZy5Yr+I4ZxlQprhGtNxUrtdtnwk33KK5yArHJ8FrOhm8atNw+G4nCzxW2qvFSnOVqaT5PZGKW75t7cLXV2aG6Q8Hq1Spzi6OKp8KtCfCSa4OUb8XH2x7exuP4v8Azvo/2B/4qhOcTpHI8XjKeKlSXX001Ga4c1bilwbSuk3yv6ggXRZ/K+e/2in/AIsQY6l/zuyz+z1f8GJJdpbRXgzjMdX63f8AC6kam3Zt6va6jtu3PdfrOdly8/CI6l/zuyz+z1f8GJAtooPROt9PaWzbOXiavV9ZibQvGct2ypXUvmRdrXjz7y9sXiqOBpznN2jCMpSb7IxV2/oSKj6Ecnw2b4bFYmrShJ4jE1JR3xUvFXF2uvKlJfQB2c36YdBYnD1oxxScpU5xS6qrxbi0l8yxFeibpK0hpvKqVGviFCpGVRuPV1JWUpya4xi1xT7y0s9yHJoYWu1QpJqlUs1Tjw8R+YhnQllGWYvJqMp0qcpOVW7lCMnwqStxauBzukfpS0ZnmV4mlSxCnUnBKMerqK7U4vm4Jck+bLA6O/5JwP8AZqP+BHA6V8lyrDZNi5Ro04yUI2cacU148eTSud/o7/knA/2aj/gQDWmmcfqmjCFLFVMK4z3OdG+6S2yW17ZRduN+fYQf5HtS/wA9Yv11P+cWu8ZhV+PH6yPPhmF8uP1kBVPyPal/nrF+up/zh8j2pf56xfrqf84tb4ZhfLj9ZD4ZhfLj9ZAaWncqxGSYWnSnWlXlBNOrUvundt3d3J8L25vkcbP9DYfUOY4TE1JXhhozapPk6jcXTlblws2+9qPYSiOKw83ZSi33Jo+oFV9C/PM/7dVNbpFfgtneW41cIVG8NWfZaXCLf0Tk/wC6jZ6F+eZ/26qSTpM0fV1vl8qMHFVN8J03O6ipRdndpN/NclwQEuqVIUk23ZJNtvsS5sqXoeoy1BicfmMl/D1XTpXXFUoWf2bI+mLOn0n51jdN5HslJSxFaEMNeF/HnONqkornxipW87RK9F6fhpfAYeh2wgt1u2b8ao/pk2B1Myq4XD0akqnCnGE3N8fmKLcuXHlflxKRwnSB0aaBwdV4B9ZiGuDqU6m+pJvhvqSjHxY83GLV7cOLL4aTKr1dp3U2GzSnjY0aeMpUYuNPDqXVzpN23TSd4znz8/Ky4JgcrTnSL0YYLCThUlCMsQ3VxNNUq9Sm6tRLf8+MuHBLhw4XRLKOn9NZ/ktSGChFU6tCrClJRab8aTV3Lx7dYr+MQfVPSjgda0I4LCxdKtiZdVVeIUaaoR/HTbdm5cVZcbX7bItjCUsp0JgIRlNQo4emk5y4clxfnlJ8bLm3wAp3MNUz1DpvB4aD/D4irTwTj+MuplHc2ufJU7/pF84PC08DThCPzYRjFeiKSX2H5k09mWEyvNlmVTDThga1esqM3xVOpNWdRxXY+PDs42vsP07Qr0sTFSi1KMknGUXdNPimmuDTArLVn+c2U/1eI/3czPO6K0pqDCVocIY9ToV4rk6kEnTnbyndK/cn3mprqrWoaiyyUI75KjinGN7bpKlUajfja74XsakKestdZjg6uIwnwPD4SUqrc6iblLg12J/irssldt8gO9idf6yozklk9WSUmlJV4rck7J22dvMr/L9W6kp6hxFZZdUlWlhYwlhutW6EL0vwjnts09q4W7ScZLqjONeZruw1RwwGFvGc0k1iqj/FV181c01xS4/jK3yyn/O7F/2GP+KgBv4LXusMTVhGWUVYRlKMZTdeLUE2k5NbOO1cbFgYj5kvQ/sKywOr850dmUsLj576WIm5YXE2UYq7/gpW4K10vM7djVrHzPFUMDRqTm1GMYSlJvgkkm2wKx/yef5Il/aKn+GmWXiM3y/C1qdKVSKqVd3Vwb8aW1OUmo87JJ8eR+bOjTWupMNgvgWAw7nXlVnOVWVnTpRkopPuv4r4zdvNItbRXRVHJq6xeLrSxGM4ve5PZTbTT29suDau+CXKKAsltRKf6LJLUub5nj1xg5KhSlz3RVr2/u06b+k96QekCvn03l2Xfha9W8KtSD8SlDlNb1wvbhKXKK4cZcuHDA5x0DVqc1KVfA1tsa6txp1bJOSXJXt4vlLxXxUWBfhVOb/54YP+wy+3EFm5dmGEzalCpTkpwmlKMo8mn/3y7CqtSyxUdV4bq1F1Pi+psU21FyviNqk0m0r87IDT6T3m+p83wuHwji6uEhLFPf8ANU7xdOL7L+LG1+Hjrl2b+adJ8cfkeMnOnKhiKaeGqU5JpKtUW1bG+Dsm5W5xS49jff6M9H47IadWviXuxeKlvrO99i47aaa4cL3duHJckji5vkOb65zqMK1F0sFg5Kr4yVsTVfzZXXBrxbf0Ypp2crIPn0QakhlNOGW4im8PiKcXKClyrQm3U3RfleM7rzcOTUftov8Azkzf9Gh/hiSfXOg8FrWELydKtSkpUq8Pnws02uzg7d/B2fpiuhYOlqLNldytDDq7td2hHi7WV35kBKtWaGw2rsTg6lST6vDynOVL8Wo3t2XXLg48e9XXaRfos/lTPP7TD/FXLVKq6LP5Uzz+0w/xVwPh0vJ6dxmW5guVKr1NV2/0c7v/AA9YvSy24yjJX7CNdIGmJ6wy6tQjZTkouDlwSnGSkrtJuztZ2XJnA1bmuN0Jp9qpNSrxoxw8ZR/GqSWxSV7O6V5cV2MDjdGi8K83zHMHxgpfBqD5rbG12v7sYP8AvMtjF1KNGnNz+aoycufzUrvlx5dxGejXTvgvleHpNWnt31O/fU8aSf6N9v0Es5gUTgNe9F+hMNWlgX1mIlF7XUp1XOpJ8lKpKKtBPi0mr27Wbel+kno1weGn1soQqYluriqapV6lN1J8ZK01JW42aj4t+R2da6a1L8ZUcZClTxdGhHxMLu6qcJP51RXvGcu1X5WVldXI9qnpYwOqcP8ABMNTlSxOIk6FRYhRpqgnwqXle12rpW48+F7JhOcryPSmoMpqRwUIqlWpV6dOSi4y8dyUuM1vsprt7l2WK4r6rq5hpejho/xmpVhgNnanCS4Nc/mKKfc5FxZRgsr0Hl0IOajSoU/GnLgn2yk/PKTbsu12R+e8tzTB4XOFmksNOOAniKihPshUlGzq7fO7yt33SbcbAfpjK8BSyqhSpR+bThCmvRCKivsK56cKUq+GwMVJxcsfQSkucW41Emuy65oszDYmhjIRnCSlGSTjKLumnyaa4WKx6aKEc0+LcPdp1sdT+a7SUUnGck+xx6xO/YBwcTpLNY5/SpfD8Q5vBymq1odYo9Y1sXDbtfPlc805mi0Hic+qVasqsqSw1p1Lb6s3CpsTtZXbaXDsMMT0d4CGf0sP8Ixe2WDlU3vEPrU1Ucdqna+zt295hp7JM0y3GZxQwsKeJlGpg01j26ilDZVk3J8LyTat5gOVHKukbIskxEZUsN1FaFSvWlJz+EPrUpSbtJR3pWVtvCxJdG4rpXhl+GVClgXS6mHVuo6m9wstu600r252Q1rjelKeXYlV6OCjS6qXWOnKbmo247byav6UZaMxvSnDL8KqNDBOkqMOrdSU1NwstrlaSV7c7IC5iqcbnudZ7qNUMPUlGlhKEpVop+JUqSV1GXY+LprvVp2a4k6x+d1chy+VfEKKnToqdWMH4vWKKvGLfGzl4sbvuIP0G5TXjhKuLq8auMqyqNtcdibS9cnN+hoDz406bPzXA/Wl/wA4q3T2stZwzvESp08O8TiJOjJT3KjuopJxhLeuPiLnJ34W5ouPpI6QlkS+DYb8Lja3iU4Q4unu/Hl3Nc4p+l8Ecav0Pzo5NSo05JYyjP4TGqna+IdnJbu5qMYpvyYtgcfVmR9LmsqdKFXD4WKpVY1o9XOzcoppJ3qS4eM+XHzlkaMxeucS6nw+lQppKPV9Q27vju3XnLl4tuXacvo+6SqGpF1GIXU42n4tSlPxd7jzlBPv5uPNedcSwQIb0sfyLjP6v/iiRbSOqNY4fL8LGGUupCNCko1PhdKO+KhFKW1q63LjZ8UbWq9M9JupKdej12CVCo5JJqoqip7rxTai1uslexzoUukbSFChSljMtpwjGFGn1rmpS2pQiuMVd8FyQEg8Ltc/zNL/AGyj9xoZ5qrWtXC11LKHCLpVFKXwui9qcXeVkru3Oy5mz8B6Yfy+X/Vq+6cqMuknUUKtKGMyypwnTqKm5uUecZJpRbTXHmgO50I/yFhf9d/v6p1dX6IoawrYR1JPqqE5VJ0vxarstia5cGuPmbXaRLSWkek3SlClQhWwXU05Pg1Uc9spuc+OxK/jOxbIFV9EX8bzn+31P8dQ+et8fLXuPp5ZRd6UJKrjpx5KEGmqV+9u1+57e6RHcgnqeMc7WBinWlmEoXbs4RlOopTjfhujdc+Su+NrEny7RuqNA4SnHAxoVq9Ryni6uJcvGlZbdrUouyvLn6ebYGEcPR8K3Datvxdt224bd6Vrd1uB8tG5g+jrMJ5bWdqNSTqYGpLlabu6Tfffl/Sv5USJLFdI/hA31WF+F/BLbbz6nqt3P5+7ff8ApfQTzF6Q1Fr/AAdWnmMKFKpFqWGqYbc3CVndu8m7Pgmk1dedJoLMKo6N/wCXM7/rKX21CZ6Eweo8BgoQxk4zrRco7o8fETtDdL8aTSvey4NX43bhnRv/AC5nf9ZS+2oB9Mu/zvxP9gj/AI6JaM+T9BCdTdFGmtWYl163W73GMXsqbVaKsuFjkfILoz/5/wCu/wCgHz/yfv5HX9dV/wCE+PQ3/Gs4/tsv8dUn2ldK5bo7D9TR3bNzl48tzvK1+PDuIB0N8cVnH9tl/jqgSPXENQ4aSq08xp4Oioxg1VoQmnUblx3y5bk0rebzkNziv0k5Rj8HhXmMJPFdZafwSklDq47uMbcb+lHT6esVWjgcPShHfUq4qntguLlsUnZJcXx2r6SOaizfL+knMMndKtUpdZHEKboz2VqM1BOUb8bPha9uK5cwJnmeU6sy/Lcx+FYyOJi8HXUIxoRpbX1c7u8eLvysRDVMqb0pgKbdnVeFpq/Dj85+pRZNXHLeiejUrV8XjMRGbjFKvN12pLc0oWSUXLtcmk7LicHCaezXpYxEa+NpOjg6cZKhhpNqpUc1brJ2s1w4rl2W4Xcg6fSit2Kye35/S+2JYeP/AIKp+hL7GVZh6mqOimrCm1UxmAnJQpyS3V8O5O0YNfjRu7Ls7tvJ2njuNKf6EvsYFBdFWD6SK2WxeErYWFHfUtGspOe6/jcoNWvy4m3muG1lh87yn4dUoVG6lTq/g6krcI7914x5+La3nOt0J6p09lWUwhVxNClNVKj21K0ISs5cHtlJPie6xz3KM6zvJupr0q22pW3dVUjU23ULX2t2vZ2vzswJN0m6Vx+b06eJw0nHF4RupSs+E1+PTtybklw7/m8mdTQ2tMLrTBKtFbZxvGrDyKkV4y9D5p93nuSk5+KpYXLMPVcYxhFRqTe1KKu05Sk7cLt3bfaBWv8Ak709mUzflYmo/wBimv3FtFYdAdPZk0H31ar/AGrfuLCzbNsDkVGdWrNQpwV5Sf2Lvb5JLi2BUfTBhKWp81yrBtu0pTnUUXx2ScbvzeLTnZnX/wDD/ofurfrf+hy+jOhi9cZpiM0qRcaaTo4WMuxLxW1+irptcHKUu4uYCnM/6DNF5ZhK9SKq3p0ak1epwvCDkr8PMdzoKhsySh551n/6kl+47vSXjKeByjGttK9CpBX7XUWxL0tysanRJhPgWS4Nd9Nz/WTlP/iAmoAAAAAAAAAAAAAAAAAAAAARDW+kMVq+pg470qFKuqtem071Nq8RJ8rXummuTvfhxl4Ag2s+ivIdY1FVe6jXVrVqLtJuPzdy5O3Y+DXDiceWhOkWinGOb7ovharhoSbXc926/wBPMtEAVitKdKseWa0/9lp+4ePSnSs//wBa0/8AZafuFngDi6Xy/Octw6jia/wiruk3UUFBWfzYqKSXBL13It0ldHuJ13XwDvT6qhUk68ZylGU6c5Utyhti+LUJLi481x7rDAFefIf0e/mz/XVvfHyH9Hv5s/11b3ywwBVGo+gnS2JwtSOFoqnXaXVzqVqrjF7le6vLsuvmssLTGWVslwWGozacqVGlTk43cXKEFFtNpO11wukdUAaGc5Pgs/w9SjVjup1I7ZLl6Gn2NOzT7GcDPtLY+hlvwbL5wwzSUU2n8z8a0lxU5Xvvs3z5N3UuAEY0LonL9C4VUqfjSfjVajXGpPv8yXKK7PO225FiabrQklzcWvWrH1AEN6MNJY/RWXqhVlCU1Ocr023G0rW4yjF3+g7WqsFmeZYKvToSjCrOnKMJS5JtWfLk2rpPsfHidgAR3SulMLkGW0sLKMZxVPbUTV4zlO7qXT5qTk+D7CF5joTWuoZQo1quFp4KlWjOEMPCSqOnTf4OFtqhHxbLxXZPvsWsABAcHpvNqWo62KcPwEsIqUZ7o8Z7qbttvv8AxXxcbecnwAAACAYjTebT1HTxSh+AjhHSdTdHhPdN22339q47bE/AAhWs8u6QMVVg8BiKNOGy041op+Nd2kn1c3xTs+PZ6Ti6U6PNSQzJY7H4iFatCDhTjSjaMU01z2wVkpy4KPFu9++zwBEukjIM61Pl86GHnCEpuKnvut1O95RUlyb4dnFXXC52tO5HhtN4WlQh82lBRv3vnKT88m236TpgDVzPDTxtCrBWvOE4q/K8otK/m4kQ0ZpPPNKZM8MqlNYiMa3VzjeVNTm5Spt7optJtX8Xv5k5AFNZpoPpT1XS6nFY7DqjJreqUG5SSaa/0cL2avbdYtjKMsoZLh6VGF9tKEacb87QSir+d2N0AVhiugXRmMqSnLrryk5O1RWvJ3f4vnPl/wCHzRP/AM/9avdLUAFV/wDh80T/APP/AFq90f8Ah80T/wDP/Wr3S1ABXun+hnSmmsTTr0ut3023HdUTXFOPFbe5ssIACqtK6Dz2GHzKlUnUwrxGLlVpVaU4uezcpJpwldbkrNNp2b4GXyR51/PGO/WT98tMAVBjeg7E5k4OpmeKqOD3QdRuThLhxi3N2fBcUbnyR51/PGO/WT98tMAcXKMox+SYJUVXlWqxjPbWxF5uUpOUoufG7UbpW3cl2ECWgddaq/j+P2U3zoYNbU13Odl6mpFrgCFz6J9EzwyofBobVxUlfrbvnLrfn34Lm7dlrEaxfRNj84xNOlWr/wD5dh4w6mjFvfUaXHrH33veV+TtFQ42tkAc7GZDlWPwzw86cXRcVDq7Wiorkklytbg1y7CLaC0NmeiataHwl1MI7OhSkrypttuV32Jf0eErttJ850AIFqHTma47PcuxEIXo0YVlUnuitrnCaj4re53bXzUya4/A4bM6U6dSKlCcXGUXycWrNd5sACHZpp3O8lwdGjlbo0erlZqsm4uFnd3UZSc3KzbfPic3Quhs+ynG18Zja0KuIrQVO1JNQjBOL7VHyIpJR4WfF3LDAHOznIMq1DCMa9KNSMZKcVNXSlHk/wBzXJrg7m1i8FhcfTlTnFShOLjKLXBxas1Y+4A5WntN5TpaiqVCmoQXO3GUn5Upc2/OyHdIOktY6trQp0sUqOElH8Koq0734rhxkpLs3Jc734FjACNaO0Lkmh6WyhDxnbfUlxqVGu993dFcEdrM8twecUZ0qsVOE4uMovtT/euaa5PibYAiegND09B0J0o1p1YyqSmlPgoJ8lFd9rbn+M+NkauO0fmGKz6hjVKHVU8M6Moty6xybqu6W3bb8Iucr8+HfNgAAAEB1Dl3SfVxU3hcRhY0HbZGtF74+KtydqbT8a7XHkZdH+hcy01VxOIxNdVsRiXHe4K0IqN7JcFzv3JJJJIngAFX6c0VnlOvnO9zw8cXVjKhWpzi57d1VuUdst0Wty+dZ8S0ABVnyR51/PGO/WT9808f0HYnNUlVzPFVVF7oqo3NKXY0pTdnx5ot8AVZ8kedfzxjv1k/fJtp7I8bkGE6p4ideot7jVxF5yvLjHd412o91+Xcd0AVQtC6/wBU/wAex/VU3zo4Nbbruc7L27iRx6J9Exw3UfBoOPPc79bfyut+ffzXt5rE0AFSY/olzDNa1KhOu1ltCMXClFvrKkuO5VJdrvx3cknaKjxasqrkWVVsN8HdKPU7NnV28XauSS7LdjXFPidEAQLQug8x0RXrRjiXPByV6VGXGUJt3lx7El5Pzr3aTXHYx2kMfmedUcVUnF0KFGSpQV9yqy4Sb7HdO9/MuHC7moAjGrMqzutsq4KOGWJT2OpiYN/gWpNxU4pz+dZ25czS0Fo/M9PTxVbE1Y1cRipwlUdNNU4qCajGN7PhufGy7PpmgAj+uMtxecZbiqVOO6pUpTjCN0rya4K7aS+lmWicuxWUZdhaVSO2pTowhON07SUUmrptP6Gd4AaOb5Pl+fUZUq0FOnP50XydndcVxTTV01yI/qfIc9pZfChl1SFCUFCmnJXtSS2u0+LUkuO6zbs7WbuS4AQfQfRnlmi05tutiZ/wlefGXHmo3u0n2u95dr7FOAAIbrXo0yLW1pTTp1o22V6fCatyv2SS8/FdjRtaGyHPtPYeVPE4p4mW7xJNfNppWSbfjtvm9zduS88oAFf6oyvpHznEyhQxFHDYaytUjFyrO68ZWd+KfanHhbznyyToa05gZ9ZiHPGVu2eJk5K/6HJr9NyLFAHiSRAs66HdIZtLfCnLD1OaqYaXVtPv28YeqNyfACu9PaV15p7FU08esRhLveq8b1kkntSlxb42V3Pz2LEAAgHRzpvNshxGZyrQ2Rr4udWk90Zb4OU2pWi21zXCVmT8ACBLTma+EbxWz8B8D6rfuj/Cb77dt9/Lt2285PQABX2idNZvlGa5pWqU9tOvOm6Ut0XvUd9+CbkrXXzkiwQAPniIVKkJKL2tppPubXB8eHA+gAqnwU6XZqzzSkk+6hC/0Pq0/aSfo90LS0Lh5w6x1alWbqVajVt0uXBXbsvO7ttv0S8ARDM9IYnNs3w2KnNOjh6U+rpWd1Wk7OT7GmvU4o5Goeh7KM0xPwmhUqYTEXct9H5rk+cnDhxd3fbJXu73uWMAKunojpKirLNoySaa34Wm+K4p8VLivSZ+CvSt/OtP/ZafuFnACsHpTpWf/wCtaf8AstP3Ce4HBY6jhI06lTravV7Z1GlFTm1xdkrJX5JLkdIAVXoroWyTK8IoYyjRrVt0m5wc2nFvxVdqL4LzG1iuiXLsLmGCr4WFOjChOUqsfG3VL2225rh43NrmWUAI7rHLtS5jQisHiI0Kqmm5TipRlC0k42cZcbuLvbsIJjOj/pMz6m6WIzOHVT4TVOjFOUe1eLGDs+5ys+0t0AcrTmQYLS+FpUKV9lONk3zbbblJ+eTbbIPq7o2zjW+YRdfEf+RgoyjRgnGTlykn2cfLvdJ2SXMs0AfDBYLDZdTjTpxUIQSjGMVZRS5JEL1jovUuf4hVMPmNTCw2KLpxUpJyTk3LhOKV00uXYTsAVFLoXzPOJR+G5lWxNOLT6qzgm153OS811G/c0Wxh8PRwkIwilGMUoxiuSilZJeZI+oAAAAAAAAAAAAAAAAAAAAAAABzNQ4HMMzwtWnRqujUlG0KiV9r/AOvK64rmuIHTBXegdYZ/iK88FjqMo4mlHd10I3pVYclO6Vk5dj5S4/NasTR57lC/09L9ZH7wOgCmM9zrDPVuAarR6r4NPc1UWy+3Fc3fbflz8xa/x9k/5el+sj94HQBjCcKqTTTTV01xTT5NPuZkAAAAAgfS9qLNdL5ZKrQnsqKpTipbYy4SburSTj7AJ4Cm6eZZtNJ+E2FV0nbqMJw83zzL4fmn/wCk2F/UYT3wLiBROo9R59kuFqVaeoMPXnBJxpQoYXdO7SsrSk+F78IvkW7pHHYnM8vwlSo906mHoznKyV5SpxlJ2SSV23wSsB2QfPEVeohJ9yb9SuU/k3SprvUtJVMPlkZwbaUuvSV1zXHbyAuQFV+EfTFiPm5dh4eepWjL2Rqpjd014rswNP6zt7ZgWoCtcnyLpWjiKc6+Nw7pxknOlTp8JR7Vu6uMr25O/BllAAcvM9QZHlL21sRSpSkrpVKsacnHirq7TtwfFFYaO1HHS2PrUJ46hiMHO9WnXqYyk505SfGEt090r9tvNLhdoC4wVzr3pVyXIsHJ4evRrV5+JSjTqwntlL8eVm0ox58eDdkOj7Nsk07gqdOtmVCtWl403PFwntlL8SF5vxY8vO7vt4BYwBzs+znC6ew1WvUdoU4uT89uUV55OyXnYHRBXfRHgc3qYapisRObni5urGnKTcKdNtuG2Ldluvfgvm7UbVTpk0BSbTxSTTaa6qrzXB/iAToFCT6TdOPUUa/wl/Bfg2xvbU29Zx/E23v59v0k/wDlo6PvztfqqvuATwGFKpCtFNcU0mvQ+KK1pYrEeFkobpbPgO7Zue2++PHbyv5wLNBx861TkWnHFV68KTndx3u261r29F0Vj0va+07meVVIYfFQlUc6bSpz8aykr8uPIC5gQnLekvRdOjTTxlG6hFO8+N1FXJLk2f5TqGDnQqxqxUtrlB3SlZO3ps0B0QVbnnS7mWRzrKWV4p06U5xda0lTcYycVPc4bdsrXTv2n2030rZjqOrRistxMKdVq1dqTpKL/G3bNu3z3AswFNa41b0n6PhVrSjhOoVTbDhJzcZSahdbkr25/SbuHxnTTiYRkoYG0oqSvuTs1fit3MC2AVxlVXpcden10cH1W+PWbN2/Zdbtt3a9r2LHAAAAAAAAAAAAAAAAAAAAAAAAAAAAAAAAAAAAAAAAAAAAAAAAAAAAAAAAAAAAAAAAAAAAAAAAAAAAAAAAAAAAAAAAAAAAAAAAAAAAAAAAAAAAAAAAAAAAAAAAAAAARjXOqMdpHDqtDDyrxU11ux2dOn+NO3Fu3osubaRJw0mBxtM6oyjVtBVaE1KL4NcpQfkyjzTXt5q6I1V6Fuj+vJyeGu222+urc3xf+kN/C5BlmV0sX8WqhDETk9zveMaq4bZpbnGK4+IlwbdlxI78A6afy+A9U/8AlgQfOOjvS2F1Ng8JGjbD1cPKc6fWVHuko4hp73Lev4OPBStw87vZHyI9Hn5r/wCvW/5hVGQx1/rvNpYmlUwzq4OLoqs1JUJJ9ZG0bQbk2qk2m0uFn3Xsf4B01fl8B6p/8sCysHhKGX04U4K0IRjCKu3aMUoxV3xdkubZ9ziaWpajo0LYydKdbc+NC+zZw2riou/O/A7YAAACF9KWlcw1ll8qFFxU3OEvHbUbRd3xSb9hM5RU013n526Q9F6N0dj8vTjOGHqOr1/4SrNtRUdtrNz5y/FAm1PT+sqaS+L8qdkldqXH9gy+IdZfzflPql7hCMbT6D1SnslV37ZbP4386z281bn3mppvIdBYHJsNisbSrTdSVWMp0pVGltqSjHcoyUYqySv2sCYZ/ovWWe4apR+B5ZS3pLrKW5TjZp3T2eaxZ2l8ur5PgcNRnbdSoUqctrut0IRi7PhwuuHApRZZ0VyX8SzD6mI94lHR7pvo7zatKthaVaNTDTSfXTqJxm0+GyUnys7prgBaOP8A4Kp+hL7GUB0Va01FkeXRp0ctq4mCnN9bCe2LbfFW2S5ekvvNaio0Kr7qc36otlZdD2Y0Mh0711S+yDr1JbVd7Yyd7L6ANj5TNZfzLiP1v/2h8pmsv5lxH63/AO0Yrp/0a/xcR+qXvHvy/aO8nEfql7wHvymay/mXEfrf/tFh5NjcTmWHp1J0nRnKKcqUndwfkt2XL0ER0z0uab1XiY0KSqqpJSa301FWinJ8dz7u4ngFMa6yvA51qjLqVWCnTlh6m6MuTsq8l6mkycfJZob8zpep/ecTW+h9UZtmeHxmEqUISo0nBddufGXWJuyi01tqd/M+NbB9L+Hi5SxWAjFJtuUZpJLm23CySAkPyWaG/M6Xqf3lcdMujNOacwmGnQoQpTeLpxcoKzcXCo2vReKZIcBDpZzSnGpTxmXzhJXjKMZuLXmfVnO1HoLpN1dCnDEYjBuEKsaqUFOL3RTXPq+6TAuYozpW1fl+NzKjgq7nDDUnGtX2wcnXlbdThFLnDjxffftii8yGdImso6ToJU0p4qu+rw9NK8pTfDc15Mbr0uy7eARKOuMX0hZhhqGXyqUaNF9biamzY9q8WNLa7qz4qzXN3t4pOcVjtC4Ocozng4zTtKM5UYyT86fFP0nP0DkWWaJw8ac61N4mtLfWlKa31K0uxXd3a9l38XzbNfPsp6LXiKjxPwNVm06iq1YRndpNNxck+Kaa4crAQmpj9J+FEZb8N1HwS27dT6nfd8L32bvaWZQx+gsVKMYzwUpSaUYxlRcpN8Ekk7tvuRGPinoW78B+vp++b2TZP0UvEU/g/wADdZSUqapVYSnuj4ycUpNtq1+QEp1JpjLdVYfqayls3RlaEtrvHlxXZxKTp9GGm5ahlhLVOpWF623WPdv3JfO5248i4tZ6qqaSoRqRoVMRKdRU406KvK7jKV3wbt4vYn2FK0My13qLP5TpUYYPESwttuIbko0dy8b5t9zduDj9AFyeB2kMDQo0qtKlOFJSjS+EqM2lJ7pWlPjzfH6CvOmLIdH4DKakqFHDQqKdO0qUKanZzV7OPHlzO7qzo7zDUeUOGJqfCMZSVSdKrFbE5N7tigrRe5RUOK4c1Y4PRx0e9HmscvpVXhvwiXV1l11ZWqx4S4Kpw3cJJdzAmmW6X6Pp0abeHwd3CF7wpXvtV78OZKsoyjKcnhahSp04Se61KMYxk2kt3i8HdJcSiuk/o+0jlLw2GwmHti8TUSi+tqy2U0/Gk1KbjZ8uK5KT7C+Mpy+llGHpUo8Y0qcKcW+doRUV9gEc6Uv5Gxv9S/tR9ejT+R8F/UU/sPl0pfyNjf6l/aj69Gn8j4L+op/YBDenj/z9LAYa/wDD4uCsu1JbPtqotuMVBWXYRPWfR1kmu5UnXdT8EpKPVyUV49t17p+SiL/+H3RffiP1q90C1QUR0a6fwmm9T42jS3dXSw1o73eXjPDyd3ZdrfYXuAAAAAAAAAAAAAAAAAAAAAAAAAAAAAAAAAAAAAAAAAAAAAAAAAAAAAAAAAAAAAAAAAAAAAAAAAAAAAAAAAAAAAAAAAAAAAAAAAAAAAAAAAAAAAAAAAAAAAAAAAAAA1M1zGjlFCrVn82nCU5eiKbf2G2QfpZyzPs6yypRwsN86koqa3KL6tPdK25pO7SVr8U2Bw+grLavwOti6n8JjK06jducYyaX7TqP6TY6TtVYyrKOXYPxsVifFk0/4Ck/nSk1ybV/Old89t5xkuTQybB0qEXbq6Uaakud1Gzlx4Xvx49pUOR9EWvslrVa0Mwpwq1fn1Or62cle/zpxur82l5udkBaOldJYXSOBjh6Ls1F3qWTcqklxqNPg+PJPkkl2EQ6PNZZrRxVbL8fK+JpylKlUaSVem/G4WsrpcVb8XhzizJaE6RKvzs5kv0cNH3kR7U/RBqiqliY4+eIxVBKVHdTUG9r3bVLc7PnZPhfhwuwLvIzr3Vj0TgZ4jq+s2ygtm7ZfdJR+dZ8r9x18lq5jWw9J14qFZwXWRi90VPts/8Au3K75mjrHFZFgsFVni4wnRitzjUSkpSXGMVF8HJuyS7wOb0ca3lr7CSrOl1W2rKntU999sYSvfbHnv5W7CXkA6HMkxGSZXDfHZKtOddwtbap2UFbs8WMXbs5E/AFQ9KjzJZvlHUdX1t8Rs67d1d7Q+dt8a1r8i3ipcd0W6tzzE061fM/GoubpOnh4qUFLnZpxV7JcXFgdDNZ9K3werujlu3q57trxG7btd7XVr25XNTovyfC6h0zToVPm1Y4iL71etUtJeeLs150fXMeijEVqVR1Mxx9aShJqCrWjJ7XZbEnwb7FzIbo3Suo9M4PDVcLgn8NrKtTqVMRKUI4eCqPa5UJW+dFJp+bk78Q6mX9JeY6Qwk8DWpylj6LVDDxUXJV4y4Uaifcla9+MuHa3tsLo70pPSWCUJvdWqSdWvLnuqz4y49u3gvPa/aRal0LYfMKcqmLxFWrjJtS+Ewk49VKPzVTjy2rzr0bDsaVodIeUYhUcTKlicPaVsSvFqqy8VSh2t+h9rcm+Yb3SjnMMjyjFzbs5U3Sj37qviK3o3X+gjGHymWSaRlTas/gdSbT5p1VKo0/Ot9jqdImjM21picFC8fgkKjnXje0m0uHDtTV4q3Fbm2SPWuW4nNctxVKlHdOdGcIRulduNkrtqK+lgaHRd/I2C/qY/vJcU5pvom1JSwlFTzLF4eSgr0adS8Kb8lOM9tl5jqfJVn388Y368vfA1M1/wA8cJ/Ypf8AvlsVKkKMW27JJtt8klxbKhyTo61HkefUK8qtXFUY0ZxlXrTi5Rk1USp7XJzsrp8Fbxn5y0c6yqlnmHq0ZSlGNWDhJwdpJSVnZtNcV5gIB0S5lmmpZ47FzqTdGrXccPTlJ7Iwh2xi+CunFOy5pnnQxmeO1Ll+J+ETlW/8zVp/hXu/B9XS8Tj+L4z4edk601kGE0vhKVCn82nGyb5ybd5SduF5Ntsq7LNG9I2g6teOCeGq4erUdSMa904t8OScXeySdpNOyfACUaF0VmuisViYRqRlgZvfRpybdSnOXzkuxRXJ8fG8V8730c/zWfSJSx+FwsqtKvg6kbTjLbCpOLlaF07tNwkmpLg7PjY+E8T011Vbq8DG/wCMnK68/GTXsZ3+jbReJ0bh6nW1FUr16jq1px5bn2JtJtLi7tLi3wQDo01tHWeEvPxcRSfV4iFrNTXDdbsU7N+Z3XYfPVPRVp7V+KWIrOruUFDbCajFpNtN8N1/GtwaJLgNPZRldWrVp0oxqVnuqTS8ab877u2y4Xu+bIjqboowmrMVOrVxWJUJbfwNOpamtsVF2TUl41ruyXFsD55Zojoy0lXpyiqUKyklTdTENz3t2ioxlO25t8lEjeFyDKdQ6rzGNelCrGNClJKaulLZh1f02bJdkvQ9onIpxnCg5Tg1KM6lScmpRd07X23TV+RDsbpHVOa6jxs6Narg4OlStiFQc4VLU6KcFJuMW7pvg2/FYFg/Jloj8zofURAM609k+ntSZVGhShSUo1XJQVk2ozSbO98n+vP56qf7LH/mEd8D9V5Zn2XzrV6uMhFVL1uocIUVtmtspRcorc32tAXcVZS/zvn/AGD/AI4k81Pis7wWGnLC0o1qycdtOb2qSckpeM3FJpNvi+wguidO6uxea1cfjadOi3R6mFKnJS4Xi7tqUlZbXzldt9lgLRKH1Zm0eh3NZVqMoTpYtOVbC70pQqLippcbKTbadu2S7rSfUFPpV1BiqlGj1WEw8ZWWIT3TnF8brnJOz5KMbO63M6ukuifINMt1J3xNeV91av4zbfztsXdK/e7vzgcXopyiefTnmmIqQq1614wjB7o4eny2Lulbg1zS58ZSLWKqzfojxGWVZV8rxDwlV8XS50J+a3Gy8zjKK7EiZaLq6qq4d/Do041VNpKlycFyk+LV5cXZW4W4Lkgg/Sh0l6SqYHFYaNdTrShKCjCMmlK9mnK21Wt3nB0j0n5/SwGGoYTLa1eVOlGDqSuqd0uaai1b0yRbuF0dpvBVZVI4akqk5SnKbgnNyk90nud2rt9h3OQGFGUpxTas2k2u59q+gzOBrGWpYYZvBKDrqUbKpba4/jc2lft5kA+F9OVVW6rCRv8AjXV15/ntcPQwPdDpV9TZtLujCP8AgX/AW1VqwoRcm7JJtvuS4tkG6M9BYnR0K1SvUVXE4iW+rNXsrXaSbs3xlJt2V+7gTfFYenjIShL5souL9ElZ/aBVmC1j0i6tjLEYKhh44ZSkqccQ5dbXUW02rNRV2mle1n2smuiNWUtZYRVVB05KUqdWm3d06kPnRv8ASmvM0QLJl0jaBo/BKeDhioQclQrqrGCUZScl1kHx8VvvXcm+ZM+jrSuJ0ng3GrJSrVak69Zx+b1lS10vMkkvTcCWgAAAAAAAAAAAAAAAAAAAAAAAAAAAAAAAAAAAAAAAAAAAAAAAAAAAAAAAAAAAAAAAAAAAAAAAAAAAAAAAAAAAAAAAAAAAAAAAAAAAAAAAAAAAAAAAAAAAAAAAAAAAAAAAHxxOFw+NjtnGM43TtJKSundOz4cGro+wAAAAAAAAAAAAAAAAAAAAAAAAAAAAAAAAAAAAAAAAAAAAAAAAAAAAAAAAAAAAAAAAAAAAAAAAAAAAAAAAAAAAAAAAAAAAAAAAAAAAAAAAAAAAAAAAAAAAAAAAAAAAAAAAAAAAAAAAAAAAAAAAAAAAAAAAAAAAAAAAAAAAAAAAAAAAAAAAAAAAAAAAAAAAAAAAAAAAAAAAAAAAAAAAAAAAAAAAAAAAAAAAAAAAAAAAAAAAAAAAAAAAAAAAAAAAAAAAAAAAAAAAAAAAAAAAAAAAAAAAAAAAAAAAAAAAAAAAAAAAAAAAAAAAAAAAAAAAAAAAAAAAAAAAAAAAAAAAAAAAAAAAAAAAAAAAAAAAAAAAAAAAAAAAAAAAAAAAAAAAAAAAAAAAAAAAAAAAAAAAAAAAAAAAAAAAAAAAAAAAAAAAAAAAAAAAAAAAAAAAAAAAAAAAAAAAAAAAAAAAAAAAAAAAAAAAAAAAAAAAAAAAAAAAAAAAAAAAAAAAAAAAAAAAAAAAAAAAAAAAAAAAAAAAAAAAAAAAAAAAAAAAAAAAAAAAAAAAAAAAAAAAAAAAAAAAAAAAAAAAAAAAAAAAAAAAAAAAAAAAAAAAAAAAAAAAAAAAAAAAAAAAAAAAAAAAAAAAAAAAAAAAAAAAAAAAAAAAAAAAAAAAAAAAAAAAAAAAAAAAAAAAAAAAAAAAAAAAAAAAAAAAAAAAAAAAAAAAAAAAAAAAAAAAAAAAAAAAAAAAAAAAAAAAAAAAAAAAAAAAAAAAAAAAAAAAAAAAAAAAAAAAAAAAAAAAAAAAAAAAAAAAAAAAAAAAAAAAAAAAAAAAAAAAAAAAAAAAAAAAAAAAAAAAAAAAAAAAAAAAAAAAAAAAAAAAAAAAAAAAAAAAAAAAAAAAAAAAAAAAAAAAAAAAAAAAAAAAAAAAAAAAAAAAAAAAAAAAAAAAAAAAAAAAAAAAAAAAAAAAAAAAAAAAAAAAAAAAAAAAAAAAAAAAAAAAAAAAAAAAAAAAAAAAAAAAAAAAAAAAAAAAAAAAAAAAAAAAAAAAAAAAAAAAAAAAAAAAAAAAAAAAAAAAAAAAAAAAAAAAAAAAAAAAAAAAAAAAAAAAAAAAAAAAAAAAAAAAAAAAAAAAAAAAAAAAAAAAAAAAAAAAAAAAAAAAAAAAAAAAAAAAAAAAAAAAAAAAAAAAAAAAAAAAAAAAAAAAAAAAAAAAAAAAAAAAAAAAAAAAAAAAAAAAAAAAAAAAAAAAAAAAAAAAAAAAAAAAAAAAAAAAAAAAAAAAAAAAAAAAAAAAAAAAAAAAAAAAAAAAAAAAAAAAAAAAAAAAAAAAAAAAAAAAAAAAAAAAAAAAAAAAAAAAAAAAAAAAAAAAAAAAAAAAAAAAAAAAAAAAAAAAAAAAAAAAAAAAAAAAAAAAAAAAAAAAAAAAAAAAAAAAAAAAAAAAAAAAAAAAAAAAAAAAAAAAAAAAAAAAAAAAAAAAAAAAAAAAAAAAAAAAAAAAAAAAAAAAAAAAAAAAAAAAAAAAAAAAAAAAAAAAAAAAAAAAAAAAAAAAAAAAAAAAAAAAAAAAAAAAAAAAAAAAAAAAAAAAAAAAAAAAAAAAAAAAAAAAAAAAAAAAAAAAAAAAAAAAAAAAAAAAAAAAAAAAAAAAAAAAAAAAAAAAAAAAAAAAAAAAAAAAAAAAAAAAAAAAAAAAAAAAAAAAAAAAAAAAAAAAAAAAAAAAAAAAAAAAAAAAAAAAAAAAAAAAAAAAAAAAAAAAAAAAAAAAAAAAAAAAAAAAAAAAAAAAAAAAAAAAAAAAAAAAAAAAAAAAAAAAAAAAAAAAAAAAAAAAAAAAAAAAAAAAAAAAAAAAAAAAAAAAAAAAAAAAAAAAAAAAAAAAAAAAAAAAAAAAAAAAAAAAAAAAAAAAAAAAAAAAAAAAAAAAAAAAAAAAAAAAAAAAAAAAAAAAAAAAAAAAAAAAAAAAAAAAAAAAAAAAAAAAAAAAAAAAAAAAAAAAAAAAAAAAAAAAAAAAAAAAAAAAAAAAAAAAAAAAAAAAAAAAAAAAAAAAAAAAAAAAAAAAAAAAAAAAAAAAAAAAAAAAAAAAAAAAAAAAAAAAAAAAAAAAAAAAAAAAAAAAAAAAAAAAAAAAAAAAAAAAAAAAAAAAAAAAAAAAAAAAAAAAAAAAAAAAAAAAAAAAAAAAAAAAAAAAAAAAAAAAAAAAAAAAAAAAAAAAAAAAAAAAAAAAAAAAAAAAAAAAAAAAAAAAAAAAAAAAAAAAAAAAAAAAAAAAAAAAAAAAAAAAAAAAAAAAAAAAAAAAAAAAAAAAAAAAAAAAAAAAAAAAAAAAAAAAAAAAAAAAAAAAAAAAAAAAAAAAAAAAAAAAAAAAAAAAAAAAAAAAAAAAAAAAAAAAAAAAAAAAAAAAAAAAAAAAAAAAAAAAAAAAAAAAAAAAAAAAAAAAAAAAAAAAAAAAAAAAAAAAAAAAAAAAAAAAAAAAAAAAAAAAAAAAAAAAAAAAAAAAAAAAAAAAAAAAAAAAAAAAAAAAAAAAAAAAAAAAAAAAAAAAAAAAAAAAAAAAAAAAAAAAAAAAAAAAAAAAAAAAAAAAAAAAAAAAAAAAAAAAAAAAAAAAAAAAAAAAAAAAAAAAAAAAAAAAAAAAAAAAAAAAAAAAAAAAAAAAAAAAAAAAAAAAAAAAAAAAAAAAAAAAAAAAAAAAAAAAAAAAAAAAAAAAAAAAAAAAAAAAAAAAAAAAAAAAAAAAAAAAAAAAAAAAAAAAAAAAAAAAAAAAAAAAAAAAAAAAAAAAAAAAAAAAAAAAAAAAAAAAAAAAAAAAAAAAAAAAAAAAAAAAAAAAAAAAAAAAAAAAAAAAAAAAAAAAAAAAAAAAAAAAAAAAAAAAAAAAAAAAAAAAAAAAAAAAAAAAAAAAAAAAAAAAAAAAAAAAAAAAAAAAAAAAAAAAAAAAAAAAAAAAAAAAAAAAAAAAAAAAAAAAAAAAAAAAAAAAAAAAAAAAAAAAAAAAAAAAAAAAAAAAAAAAAAAAAAAAAAAAAAAAAAAAAAAAAAAAAAAAAAAAAAAAAAAAAAAAAAAAAAAAAAAAAAAAAAAAAAAAAAAAAAAAAAAAAAAAAAAAAAAAAAAAAAAAAAAAAAAAAAAAAAAAAAAAAAAAAAAAAAAAAAAAAAAAAAAAAAAAAAAAAAAAAAAAAAAAAAAAAAAAAAAAAAAAAAAAAAAAAAAAAAAAAAAAAAAAAAAAAAAAAAAAAAAAAAAAAAAAAAAAAAAAAAAAAAAAAAAAAAAAAAAAAAAAAAAAAAAAAAAAAAAAAAAAAAAAAAAAAAAAAAAAAAAAAAAAAAAAAAAAAAAAAAAAAAAAAAAAAAAAAAAAAAAAAAAAAAAAAAAAAAAAAAAAAAAAAAAAAAAAAAAAAAAAAAAAAAAAAAAAAAAAAAAAAAAAAAAAAAAAAAAAAAAAAAAAAAAAAAAAAAAAAAAAAAAAAAAAAAAAAAAAAAAAAAAAAAAAAAAAAAAAAAAAAAAAAAAAAAAAAAAAAAAAAAAAAAAAAAAAAAAAAAAAAAAAAAAAAAAAAAAAAAAAAAAAAAAAAAAAAAAAAAAAAAAAAAAAAAAAAAAAAAAAAAAAAAAAAAAAAAAAAAAAAAAAAAAAAAAAAAAAAAAAAAAAAAAAAAAAAAAAAAAAAAAAAAAAAAAAAAAAAAAAAAAAAAAAAAAAAAAAAAAAAAAAAAAAAAAAAAAAAAAAAAAAAAAAAAAAAAAAAAAAAAAAAAAAAAAAAAAAAAAAAAAAAAAAAAAAAAAAAAAAAAAAAAAAAAAAAAAAAAAAAAAAAAAAAAAAAAAAAAAAAAAAAAAAAAAAAAAAAAAAAAAAAAAAAAAAAAAAAAAAAAAAAAAAAAAAAAAAAAAAAAAAAAAAAAAAAAAAAAAAAAAAAAAAAAAAAAAAAAAAAAAAAAAAAAAAAAAAAAAAAAAAAAAAAAAAAAAAAAAAAAAAAAAAAAAAAAAAAAAAAAAAAAAAAAAAAAAAAAAAAAAAAAAAAAAAAAAAAAAAAAAAAAAAAAAAAAAAAAAAAAAAAAAAAAAAAAAAAAAAAAAAAAAAAAAAAAAAAAAAAAAAAAAAAAAAAAAAAAAAAAAAAAAAAAAAAAAAAAAAAAAAAAAAAAAAAAAAAAAAAAAAAAAAAAAAAAAAAAAAAAAAAAAAAAAAAAAAAAAAAAAAAAAAAAAAAAAAAAAAAAAAAAAAAAAAAAAAAAAAAAAAAAAAAAAAAAAAAAAAAAAAAAAAAAAAAAAAAAAAAAAAAAAAAAAAAAAAAAAAAAAAAAAAAAAAAAAAAAAAAAAAAAAAAAAAAAAAAAAAAAAAAAAAAAAAAAAAAAAAAAAAAAAAAAAAAAAAAAAAAAAAAAAAAAAAAAAAAAAAAAAAAAAAAAAAAAAAAAAAAAAAAAAAAAAAAAAAAAAAAAAAAAAAAAAAAAAAAAAAAAAAAAAAAAAAAAAAAAAAAAAAAAAAAAAAAAAAAAAAAAAAAAAAAAAAAAAAAAAAAAAAAAAAAAAAAAAAAAAAAAAAAAAAAAAAAAAAAAAAAAAAAAAAAAAAAAAAAAAAAAAAAAAAAAAAAAAAAAAAAAAAAAAAAAAAAAAAAAAAAAAAAAAAAAAAAAAAAAAAAAAAAAAAAAAAAAAAAAAAAAAAAAAAAAAAAAAAAAAAAAAAAAAAAAAAAAAAAAAAAAAAAAAAAAAAAAAAAAAAAAAAAAAAAAAAAAAAAAAAAAAAAAAAAAAAAAAAAAAAAAAAAAAAAAAAAAAAAAAAAAAAAAAAAAAAAAAAAAAAAAAAAAAAAAAAAAAAAAAAAAAAAAAAAAAAAAAAAAAAAAAAAAAAAAAAAAAAAAAAAAAAAAAAAAAAAAAAAAAAAAAAAAAAAAAAAAAAAAAAAAAAAAAAAAAAAAAAAAAAAAAAAAAAAAAAAAAAAAAAAAAAAAAAAAAAAAAAAAAAAAAAAAAAAAAAAAAAAAAAAAAAAAAAAAAAAAAAAAAAAAAAAAAAAAAAAAAAAAAAAAAAAAAAAAAAAAAAAAAAAAAAAAAAAAAAAAAAAAAAAAAAAAAAAAAAAAAAAAAAAAAAAAAAAAAAAAAAAAAAAAAAAAAAAAAAAAAAAAAAAAAAAAAAAAAAAAAAAAAAAAAAAAAAAAAAAAAAAAAAAAAAAAAAAAAAAAAAAAAAAAAAAAAAAAAAAAAAAAAAAAAAAAAAAAAAAAAAAAAAAAAAAAAAAAAAAAAAAAAAAAAAAAAAAAAAAAAAAAAAAAAAAAAAAAAAAAAAAAAAAAAAAAAAAAAAAAAAAAAAAAAAAAAAAAAAAAAAAAAAAAAAAAAAAAAAAAAAAAAAAAAAAAAAAAAAAAAAAAAAAAAAAAAAAAAAAAAAAAAAAAAAAAAAAAAAAAAAAAAAAAAAAAAAAAAAAAAAAAAAAAAAAAAAAAAAAAAAAAAAAAAAAAAAAAAAAAAAAAAAAAAAAAAAAAAAAAAAAAAAAAAAAAAAAAAAAAAAAAAAAAAAAAAAAAAAAAAAAAAAAAAAAAAAAAAAAAAAAAAAAAAAAAAAAAAAAAAAAAAAAAAAAAAAAAAAAAAAAAAAAAAAAAAAAAAAAAAAAAAAAAAAAAAAAAAAAAAAAAAAAAAAAAAAAAAAAAAAAAAAAAAAAAAAAAAAAAAAAAAAAAAAAAAAAAAAAAAAAAAAAAAAAAAAAAAAAAAAAAAAAAAAAAAAAAAAAAAAAAAAAAAAAAAAAAAAAAAAAAAAAAAAAAAAAAAAAAAAAAAAAAAAAAAAAAAAAAAAAAAAAAAAAAAAAAAAAAAAAAAAAAAAAAAAAAAAAAAAAAAAAAAAAAAAAAAAAAAAAAAAAAAAAAAAAAAAAAAAAAAAAAAAAAAAAAAAAAAAAAAAAAAAAAAAAAAAAAAAAAAAAAAAAAAAAAAAAAAAAAAAAAAAAAAAAAAAAAAAAAAAAAAAAAAAAAAAAAAAAAAAAAAAAAAAAAAAAAAAAAAAAAAAAAAAAAAAAAAAAAAAAAAAAAAAAAAAAAAAAAAAAAAAAAAAAAAAAAAAAAAAAAAAAAAAAAAAAAAAAAAAAAAAAAAAAAAAAAAAAAAAAAAAAAAAAAAAAAAAAAAAAAAAAAAAAAAAAAAAAAAAAAAAAAAAAAAAAAAAAAAAAAAAAAAAAAAAAAAAAAAAAAAAAAAAAAAAAAAAAAAAAAAAAAAAAAAAAAAAAAAAAAAAAAAAAAAAAAAAAAAAAAAAAAAAAAAAAAAAAAAAAAAAAAAAAAAAAAAAAAAAAAAAAAAAAAAAAAAAAAAAAAAAAAAAAAAAAAAAAAAAAAAAAAAAAAAAAAAAAAAAAAAAAAAAAAAAAAAAAAAAAAAAAAAAAAAAAAAAAAAAAAAAAAAAAAAAAAAAAAAAAAAAAAAAAAAAAAAAAAAAAAAAAAAAAAAAAAAAAAAAAAAAAAAAAAAAAAAAAAAAAAAAAAAAAAAAAAAAAAAAAAAAAAAAAAAAAAAAAAAAAAAAAAAAAAAAAAAAAAAAAAAAAAAAAAAAAAAAAAAAAAAAAAAAAAAAAAAAAAAAAAAAAAAAAAAAAAAAAAAAAAAAAAAAAAAAAAAAAAAAAAAAAAAAAAAAAAAAAAAAAAAAAAAAAAAAAAAAAAAAAAAAAAAAAAAAAAAAAAAAAAAAAAAAAAAAAAAAAAAAAAAAAAAAAAAAAAAAAAAAAAAAAAAAAAAAAAAAAAAAAAAAAAAAAAAAAAAAAAAAAAAAAAAAAAAAAAAAAAAAAAAAAAAAAAAAAAAAAAAAAAAAAAAAAAAAAAAAAAAAAAAAAAAAAAAAAAAAAAAAAAAAAAAAAAAAAAAAAAAAAAAAAAAAAAAAAAAAAAAAAAAAAAAAAAAAAAAAAAAAAAAAAAAAAAAAAAAAAAAAAAAAAAAAAAAAAAAAAAAAAAAAAAAAAAAAAAAAAAAAAAAAAAAAAAAAAAAAAAAAAAAAAAAAAAAAAAAAAAAAAAAAAAAAAAAAAAAAAAAAAAAAAAAAAAAAAAAAAAAAAAAAAAAAAAAAAAAAAAAAAAAAAAAAAAAAAAAAAAAAAAAAAAAAAAAAAAAAAAAAAAAAAAAAAAAAAAAAAAAAAAAAAAAAAAAAAAAAAAAAAAAAAAAAAAAAAAAAAAAAAAAAAAAAAAAAAAAAAAAAAAAAAAAAAAAAAAAAAAAAAAAAAAAAAAAAAAAAAAAAAAAAAAAAAAAAAAAAAAAAAAAAAAAAAAAAAAAAAAAAAAAAAAAAAAAAAAAAAAAAAAAAAAAAAAAAAAAAAAAAAAAAAAAAAAAAAAAAAAAAAAAAAAAAAAAAAAAAAAAAAAAAAAAAAAAAAAAAAAAAAAAAAAAAAAAAAAAAAAAAAAAAAAAAAAAAAAAAAAAAAAAAAAAAAAAAAAAAAAAAAAAAAAAAAAAAAAAAAAAAAAAAAAAAAAAAAAAAAAAAAAAAAAAAAAAAAAAAAAAAAAAAAAAAAAAAAAAAAAAAAAAAAAAAAAAAAAAAAAAAAAAAAAAAAAAAAAAAAAAAAAAAAAAAAAAAAAAAAAAAAAAAAAAAAAAAAAAAAAAAAAAAAAAAAAAAAAAAAAAAAAAAAAAAAAAAAAAAAAAAAAAAAAAAAAAAAAAAAAAAAAAAAAAAAAAAAAAAAAAAAAAAAAAAAAAAAAAAAAAAAAAAAAAAAAAAAAAAAAAAAAAAAAAAAAAAAAAAAAAAAAAAAAAAAAAAAAAAAAAAAAAAAAAAAAAAAAAAAAAAAAAAAAAAAAAAAAAAAAAAAAAAAAAAAAAAAAAAAAAAAAAAAAAAAAAAAAAAAAAAAAAAAAAAAAAAAAAAAAAAAAAAAAAAAAAAAAAAAAAAAAAAAAAAAAAAAAAAAAAAAAAAAAAAAAAAAAAAAAAAAAAAAAAAAAAAAAAAAAAAAAAAAAAAAAAAAAAAAAAAAAAAAAAAAAAAAAAAAAAAAAAAAAAAAAAAAAAAAAAAAAAAAAAAAAAAAAAAAAAAAAAAAAAAAAAAAAAAAAAAAAAAAAAAAAAAAAAAAAAAAAAAAAAAAAAAAAAAAAAAAAAAAAAAAAAAAAAAAAAAAAAAAAAAAAAAAAAAAAAAAAAAAAAAAAAAAAAAAAAAAAAAAAAAAAAAAAAAAAAAAAAAAAAAAAAAAAAAAAAAAAAAAAAAAAAAAAAAAAAAAAAAAAAAAAAAAAAAAAAAAAAAAAAAAAAAAAAAAAAAAAAAAAAAAAAAAAAAAAAAAAAAAAAAAAAAAAAAAAAAAAAAAAAAAAAAAAAAAAAAAAAAAAAAAAAAAAAAAAAAAAAAAAAAAAAAAAAAAAAAAAAAAAAAAAAAAAAAAAAAAAAAAAAAAAAAAAAAAAAAAAAAAAAAAAAAAAAAAAAAAAAAAAAAAAAAAAAAAAAAAAAAAAAAAAAAAAAAAAAAAAAAAAAAAAAAAAAAAAAAAAAAAAAAAAAAAAAAAAAAAAAAAAAAAAAAAAAAAAAAAAAAAAAAAAAAAAAAAAAAAAAAAAAAAAAAAAAAAAAAAAAAAAAAAAAAAAAAAAAAAAAAAAAAAAAAAAAAAAAAAAAAAAAAAAAAAAAAAAAAAAAAAAAAAAAAAAAAAAAAAAAAAAAAAAAAAAAAAAAAAAAAAAAAAAAAAAAAAAAAAAAAAAAAAAAAAAAAAAAAAAAAAAAAAAAAAAAAAAAAAAAAAAAAAAAAAAAAAAAAAAAAAAAAAAAAAAAAAAAAAAAAAAAAAAAAAAAAAAAAAAAAAAAAAAAAAAAAAAAAAAAAAAAAAAAAAAAAAAAAAAAAAAAAAAAAAAAAAAAAAAAAAAAAAAAAAAAAAAAAAAAAAAAAAAAAAAAAAAAAAAAAAAAAAAAAAAAAAAAAAAAAAAAAAAAAAAAAAAAAAAAAAAAAAAAAAAAAAAAAAAAAAAAAAAAAAAAAAAAAAAAAAAAAAAAAAAAAAAAAAAAAAAAAAAAAAAAAAAAAAAAAAAAAAAAAAAAMK1anQTcmklzbdkvpIhmmv8Jh7qlHe/KfCP3v2ek5teI9ZV5MtK/5TomR5dFSYzV+dYz8fau6C2+353tORVxeJr/OnKXpk39pnnaY+EMVtvr8K6ryuhdFDgjmfpce8Po/f+F8XQuihwOZ+k94fR+/8L4uhdFDgcz9J7w+j9/4XxdC6KHA5n6T3h9H7/wvi6F0UOBzP0nvD6P3/hfF0LoocDmfpPeH0fv/AAvi6F0UOBzP0nvD6P3/AIXxdC6KHA5n6T3h9H7/AML4uhdFDgcz9J7w+j9/4XxdC6KHA5n6T3h9H7/wvi6F0UOBzP0nvD6P3/hfF0LoocDmfpPeH0fv/C+LoXRQ4HM/Se8Po/f+F8XQuihwOZ+k94fR+/8AC+LoXRQ4HM/Se8Po/f8AhfF0LoocDmfpPeH0fv8Awvi6F0UOBzP0nvD6P3/hfF0LoocDmfpPeH0fv/C+LoXRQ4HM/Se8Po/f+F8XQuihwOZ+k94fR+/8L4uhdFDgcz9J7w+j9/4XxdC6KHA5n6T3h9H7/wAL4uhdFDgcz9J7w+j9/wCF8XQuihwOZ+k94fR+/wDC+LoXRQ4HM/Se8Po/f+F8XQuihwOZ+k94fR+/8L4uhdFDgcz9J7w+j9/4XxdC6KHA5n6T3h9H7/wvi6F0UOBzP0nvD6P3/hfF0LoocDmfpPeH0fv/AAvi6F0UOBzP0nvD6P3/AIXxdC6KHA5n6T3h9H7/AML4uhdFDgcz9J7w+j9/4XxdC6KHA5n6T3h9H7/wvi6F0UOBzP0nvD6P3/hfF0LoocDmfpPeH0fv/C+LoXRQ4HM/Se8Po/f+F8XQuihwOZ+k94fR+/8AC+LoXRQ4HM/Se8Po/f8AhfF0LoocDmfpPeH0fv8Awvi6F0UOBzP0nvD6P3/hfF0LoocDmfpPeH0fv/C+LoXRQ4HM/Se8Po/f+F8XQuihwOZ+k94fR+/8L4uhdFDgcz9J7w+j9/4XxdC6KHA5n6T3h9H7/wAL4uhdFDgcz9J7w+j9/wCF8XQuihwOZ+k94fR+/wDC+LoXRQ4HM/Se8Po/f+F8XQuihz6U69alyk16G0OZ+lPvD6P7+i9QU7hNT5zg+VWT80vG+279RJss6Q0+FWFv6UP3xfH1P6Cyues/cuptuOfXongNbBY/C5hHdCSkvN+9c0/SbJe2RMT6AACQAAAAAAAAAAAAAAAAAAAAAAAAAAAAAAAA5uc53hMkhuk+L+bFc5P/AL5vsPrm2Z0MopSnLkuS7W+xL0lP5pmeJzao5zfF8l2RXYl5ijLl3fxZNp2jcjSPVsZzn+OzuV5O0eyC+avvfnfsOWAYJmZ6y8S1ptOszqAAhyAAAAAAAAAAAAAAAAAAAAAAAAAAAAAAAAAAAAAAAAAAAAAAAAAAAAAAAAAAAAAAAAAAAAAAAAAAAAAAAAAAAAAAAAAAAAAAAAAAAAAAAAAAAAAAAAAAAAAAAAAAAAAAAAAAAAAAAA2svzLF5ZPdCTi/Y/M1yaLP05qnD52rPxai5x7H54/d2FTH0o1qmHkpRbTTumuaZbjyzX8GnBtFqT3heoOFpjUEM8pcbKceEl9jXmfsO6ejExMaw92l4tETAACXQAAAAAAAAAAAAAAAAAAAAAAAAAAABy9RZh8WYapNc7Wj+k+C9V7kTOkTLm1oiJmfgr7WedPM67in4lO6Xnl+M/3L/qRsXuDy7W1mZfOZLza02kABy4AAAAAAAAAAAAAAAAAAAAAAAAAAAAAAAAAAAAAAAAAAAAAAAAAD74OpSpVIOSvFSi5LneKauredCEw+AJx8faR/N3+rj7x2KdLTlTC9f1C2cXbZHdwe3le3Z3l8Ydf9zXXZonXS8KvBOPj7SH5u/wBXH3j6YbONJ4mcYrD8ZNRV4Rtduy7SOFHlCOXr8yEDBZecy01kcoqdBPcrrbCL+1ojuc5tp3FUZRpUds3a0tkVbir8U78hbFpr9pF9niuut41hFjby/LMXmsnGnHc0rtXS4XS5tpdpqE36PKai603yUYq/pu39iOMddZiFeHHFrREoXWpToScWrOLaa7mnZmB9MRVeInKXlNv1u58zmVUx6tnA4HEZlNQgryd+HoV+fIxxeDxGAltnFxkuxk20xhaWn8NPEVFxkvFXbt7EvPN2+ixE9mP1FXdlunN38yX09i5Fk00iO8r7YoitfKfg5wPvjMJWwM5QkrSi7P8A77mfAqUTGnQN/D5Nj8VSdSMbwje7uuFld8Hxt6DRScifZ7Jafy+FFfOmrP8AxTfo42+kspWJ3pn4LsWOJi8z6RCAHQxuSZhl0IznG0ZWs7rtV7Wve/0H009ljzbEQj2X3S/RXP18vpJhrHKc4zecFTheEVz3RV5PnwbvwSXtJrj1rMuseDepa2mvZXYO94GZ/wDkv24e8PAzP/yX7cPeOeHbsr4GTwlwQbuY5TjcpaVSO1tXXFPh9DZhl+Ar5nUjCCu36ku1vzI53Z100cbk67unV98JkWYY6lKpGN4xvdtpcldvjbgjnFpYuWR5ZRWGnUcfFV1FPc7vjeyfzn2Ef+A6J/Kz/a9wvti9OrXfZojTS0ffrKGnSw+Q5hiaLqqK2K922ly5vidPFZNlmYVacMLJyvu3uV7RStZ8UvP7CWZjV0/hKKw06jgko3Ub3fbxaT582RXF66yjHs8Tvb09I/5VcCaSy7RcXZ1Z/te6crPcNp+jBOhNylu4p3+bZ96XbY4nHp8YV2wTETO9H6uAACtnAAAAAAAAAAAAAAAAAAAAAAAAAAAAAAAAAAAAAAAAAAAAAAAAAAB0MlzSpk9aM1yXCS74vmvu85ctGtDERUk7ppNPvT4ooos3QWYvFYdwfOm7f3ZcV+9GrZ79d16Ww5es07pYADa9YAAAAAAAAAAAAAAAAAAAAAAAAAAAhPSNiXGnSh5UnL6qt/xE2K56RZt1qa7oN+t/9CnNP2ZZdrnTHZDAAec8EAAAAAAAAAAAAAAAAAAAAAAAAAAAAAAAAAAAAAAAAAAAAAAAAAAAA6mS5Fic8lJQcVtSb3X7fQmTETPSHVazM6Q5ZYGF/kV+if8AvGcz5Pc08un65e6SmjkGJp5e6F47rSV7vbxk5d1+3uNOLHaN7WPg37PgvG/rHwlVJu5R/GKP9ZD/ABIkHye5p5dP1y902MDoTMsNVhJyp2jOMnZyvZNPySuMV9Y6KK7Nl1j7LzpF/haX6L+0hZZ2q9M4vPJwcJRSjFp7m+1+ZMj3yfZp5dP1y907y47TaZiFu0YMk3tMVcLJcwo5ZWU5Q3pJrb6fSWNgc8wssJOsqSjFX8VW8a3Du7W7FVNWJxm//wCXZVSh2z23+m9R+2xGK0xFvuRs2S0RftEOhkmf5dnVXYqEY8G7va+X0HJw+nHm+OqvbalGbv2J2/FX77cjDo9oOdepLyYW+s17rNPC6uxmWSq7FGSnUlNbr8Lt35Nc+B3vRMVmyziVmuOcneW3qyvmObVNkKVTq4cFaErSfJvly7F/1ORl+XZ5g6kZwpVE4u6vBr0rj2PkdGWvs4l2U16Iv7z5S1znb/Giv7qOJmkzrrKq1sU23ptLu6wyiWZUY11FxnGPjxfPb2388fs+gr4meTa4rbpLEPdBxdrRXB91ku3zkUrxpYiq1TTtKXiJ8+L4LuOcu7Okw52iaW0tWfV3NFZS8xxCk14tO0n55fir9/0H21/UnLFJX4KCsu67dyU4GNDS9OjS4OpUmr+l/OfoS4L6POR3VmJp4PMITlHcoxi3F9vF/ZzLbViKaL744ri3deusaujk2HhpTByrTX4Sa4J8/wChH97/AOhlonOcwzSdRVJuSUU1wStdvuRGdT6heeVFa6px+an2t82/sX/U6/R1/CVf0Y/axW/2q1j0gx5Y4lKVnpH7uXjdU53SqzSquylJLhHkm7dh8PC3Pfyr9UfuJBici0rOcm8Q03JtrfHg78V80+XxBpL85f14e6czW/l+7i1Mus/6n7orj8zxmZtOpLc0rK6S4fQiS5Jn2U5HhW4xbrPg0+3ud/IXdz+0idaMISkk7pN2fer8DGFOdVpJNt8kldv6Cmt5idfizUyWrMz6y6mW55WwmJ66Xjtvxr87Pnbua7LejkdDO8Fg83xK+DeM5q8kl4sW+2/Zz49z8/A+mU6Hx2MtKp+Dj5/nP6Oz6fUdPGZ5l+nYOnho7pds7XV++/4z9HBewurWdPten7tNKW3Z3+kev3t7BadqZHTk6M3KsordG62yfZdNXS524q/eiBwx2KweI6ySvNSvJTXb2pp8v3dh9MJmuZ4Ot1icnJ/OvdqXma7vs7LEvUsl1jFb11Va3Pk36HykvM+PoHS2mnTRPS8RFfszHwcXVlfKMwUKtOS3yXjx/e+xSXLzkXJDmejc1y+7Uesj3w4v6Y8/Vcj8oSg7NWfcyrJrr1jRmzRbembV0eAArUAAAAAAAAAAAAAAAAAAAAAAAAAAAAAAAAAAAAAAAAAAAAAAAAAAAEr0BiXSxLj2Tg/WrNey5FDt6QlsxtL0y9sZFmOftVXYJ0vT8VvAA9N9EAAAAAAAAAAAAAAAAAAAAAAAAAAAV30jU3GpSffGS9TX3liEP6QsI6tCE/Ilx9EuH2pFWaNayzbVXXHZWwAPNeAAAAAAAAAAAAAAAAAAAAAAAAAAAAAAAAAAAAAAAAAAAAAAAAAAAAfbD4vEYR+JKUb89smr+o+ICYlu/HGaflqn6yX3k5r4vFYbKFLfLe0vG3Pd407/ADufJkGyrLa+bVYwiufN+Su1v0Ev11i6WEpUqEeyza7oxVor6f3GjHMxFpltwzaK5LzPw0RD44zT8tU/WS+828rzbMp16SdWo06kE05ys05LznHN3KP4xR/rIf4kVVtOsdWal7ax1S7XuOxeFqU9k5RvF32yavx8zIj8cZp+WqfrJfeSfpE/haX6L+0hZ3mmd6eq7abW37dWUdt1flfjbnbtLB1DgXqehTnQkpKCfidvG3D9JW5P/wDGvCT6IpZjOveDtBfwl/mtd1u99nd9rFPrXT1Rs9tdaTGsWdbJKcshy6rUlwlO9rqz8mPD0ts4ui8BhcxxEozipLq27Pv3RX7yZZ/g6WpqcoU6i3U5cV2brcn29vNdvo4RrRGGrYPGTjJOMlTldP8ASgXTX7VI+DVaml8VdNaw2cTmOkMLOUXQd4ycXaKtdOz/ABj5fHGjvyEvqr3iMZx/GK39ZP8AxM0imcs6z0hmttExMxux+id5xgslr5e61Kntu1ZtWa8fa+19zIInYnMv5EXp/wDeZBhl/wBv4I2n1pOmmsQkGXZnic1x1GU3d7or6F9/M++vf43/AHI/azmac/jdH9NHT17/ABv+5H7WTr9ifxdazOK0z3RgmvR1/CVf0Y/ayFE16Ov4Sr+jH7Wc4f8AKHGy/wDkqieY/wANU/Tl9rNYneJ13SoTlH4OnaTV9/Oztf5h8/lApfm0fr//AEEzWnk6tjxaz/qftKEEvyjVmAyigkqK63k2kkn3Ny5/R9hHc2x6zOtKajt3W8VO9rJLnZd3caRxFprM6Ka5JpM7su7i9U5vj5xk3wjJSUIpqN07q/a+XazoeHmc+RT+rL3jtZRj6mV5UqkUm47rJ8uNRr95xvlCzLyKfqf3l+umkzf1bNZrpM5ZiZjX0eeHmc+RT+rL3j519b5xiIyi4QtJNO0ZX4q3lH1+ULMvIp+p/ePlCzLyKfql943480cWPnT+jQy7VucZXZX3R7qnH1Pn7TLUWplnsYLYo2u5drb7LO17czudIjvCh/e+yJAiu82jWuuqrNa9dce9rAAClkAAAAAAAAAAAAAAAAAAAAAAAAAAAAAAAAAAAAAAAAAAAAAAAAAAAO9o2m6mNpebc/2WcEmXR5hHUrTn2Rjb6ZP7ossxRraq/Z663p+KxwAem+hAAAAAAAAAAAAAAAAAAAAAAAAAAANTNMFHMaM4P8aLXofY/ofE2wRMImNYmFE1qM8PJxas02mu5rgzAm2vMjdKXXRXB2U/M+Sf08n5/SQk8y9d2Zh87mxzS0wAA4VAAAAAAAAAAAAAAAAAAAAAAAAAAAAAAAAAAAAAAAAAAAAAAAABt5ZhKePqxg5qCk7bnx/7uagJhMT1josrEY3KNF0nGC3VGuXOTfY5PsXm9XaV5jMZXx85Tm7yk7v/AL7kfGUpTd3xfnPDu+SZ6ekLsuabaRppEfANzKP4xR/rIf4kaYOIlTWdJiUz6RP4Wl+i/tIYATe2szLvLfetNtNNW7lOCo5hWhCU9ik7X/cvO+SuTHPM9wmn6fUYf53KUl+L38e2b9hAQ3c6rfSJiId0zbsTER1n4tvL8yxWWVFODs+3ua7U+9MlekMxr5pjpzm+Lpy9CW6NkvMiEn1w+JxGFd4SlF2teLadu66FLzEwjFlmsxr6QmuOxWjo1Z7qcnLdLc/G4yu7/jd5r/DNEfkp/te8Q+c5VG23dvi2+LbfN3MTqcv0wsnafX7EfosbOJ4GplTdJNU7rane/wDCcebb537SuT7/AAzFbNm+Wzydz287/N5c+J8DnJfe0cZsu/NZ000h1NOfxuj+mjp69/jf9yP2sjVOpUotNNprk07NfSZ18TXxTvKTk+V5Nt+tkb32ZqiMkbk0+98ia9HX8JV/Rj9rIUfbD4zE4S+yco357ZON/UKW0mJRhvu2izPMf4ap+nL7Wax7KUpu74t82+08OZVzOsyAAhCyMmWBllS61tU/G3NXv/CO3K752OV1GhvLl6p+6RNY3FKGzfLZ5O57ed/m8ufE+BfOX06ejXbaY0rG5E6R8Uz6jQ3ly9U/dHUaG8uXqn7pDAc8X6Yc8x9EJ70i22ULf0vsiQI++IxuLxdt85Sty3Screi58DnJbemZcZskXtNoAAcKQAAAAAAAAAAAAAAAAAAAAAAAAAAAAAAAAAAAAAAAAAAAAAAAAAAC2dHZY8uwsb/On47+nkvVb2kF0pkbzisrrxIcZdz7o/T2+YtpKxs2en+56mw4vW8/kAA1vUAAAAAAAAAAAAAAAAAAAAAAAAAAAAAHzr0KeJi4yV01Zp9qKn1Lpytkc7q7pt+LLu/ovz/aW4fLEYeji4uMknF8GmVZMcWhnz4IyR96iwS/PtD4jB3lSvOPk/jR9Hevb6SItOLPPtSa+rw8mK1J0mHgAOVYAAAAAAAAAAAAAAAAAAAAAAAAAAAAAAAAAAAAAAAAAAAAAAAAAAAAAAAAAAAAAAAAAAAAAAAAAAAAAAAAAAAAAAAAAAAAAAAAAAAAAAAAAAAAAAAAAAAAAAAAAAAAAAAAAAAAAAAAb+U5Tic4qKEF6X2RXe/++J0cj0lj83abWyHlNcWv6K7fTyLMyzKsJlENsFZdr7W+9s0Y8Mz1n0bdn2S1tJt0h5lOV4fKKShHkub7W+1s3gDdEaPaiIiIiAAEpAAAAAAAAAAAAAAAAAAAAAAAAAAAAAAAADl5np7LM2+fBX8pcJetc/pOoCJiJ9XNqxPSY1QHGdHUl/B1Pomv+Je6cirobPKfKMZfoyX77FqgpnBSfuZbbHin4aKk8DM//Jftw94eBuf/AJL9uHvFtg55avdxyGPvP9/JUngbn/5L9uHvDwNz/wDJftw94tsDlq9zkMfef7+SpPA3P/yX7cPeHgbn/wCS/bh7xbYHLV7nIY+8/wB/JUngbn/5L9uHvDwNz/8AJftw94tsDlq9zkMfef7+SpPA3P8A8l+3D3h4G5/+S/bh7xbYHLV7nIY+8/38lSeBuf8A5L9uHvDwNz/8l+3D3i2wOWr3OQx95/v5Kk8Dc/8AyX7cPeHgbn/5L9uHvFtgctXuchj7z/fyVJ4G5/8Akv24e8PA3P8A8l+3D3i2wOWr3OQx95/v5Kk8Dc//ACX7cPeHgbn/AOS/bh7xbYHLV7nIY+8/38lSeBuf/kv24e8PA3P/AMl+3D3i2wOWr3OQx95/v5Kk8Dc//Jftw94eBuf/AJL9uHvFtgctXuchj7z/AH8lSeBuf/kv24e8PA3P/wAl+3D3i2wOWr3OQx95/v5Kk8Dc/wDyX7cPeHgbn/5L9uHvFtgctXuchj7z/fyVJ4G5/wDkv24e8PA3P/yX7cPeLbA5avc5DH3n+/kqTwNz/wDJftw94eBuf/kv24e8W2By1e5yGPvP9/JUngbn/wCS/bh7w8Dc/wDyX7cPeLbA5avc5DH3n+/kqTwNz/8AJftw94eBuf8A5L9uHvFtgctXuchj7z/fyVJ4G5/+S/bh7w8Dc/8AyX7cPeLbA5avc5DH3n+/kqTwNz/8l+3D3h4G5/8Akv24e8W2By1e5yGPvP8AfyVJ4G5/+S/bh7w8Dc//ACX7cPeLbA5avc5DH3n+/kqTwNz/APJftw94eBuf/kv24e8W2By1e5yGPvP9/JUngbn/AOS/bh7w8Dc//Jftw94tsDlq9zkMfef7+SpPA3P/AMl+3D3h4G5/+S/bh7xbYHLV7nIY+8/38lSeBuf/AJL9uHvDwNz/APJftw94tsDlq9zkMfef7+SpPA3P/wAl+3D3h4G5/wDkv24e8W2By1e5yGPvP9/JUngbn/5L9uHvDwNz/wDJftw94tsDlq9zkMfef7+SpPA3P/yX7cPeHgbn/wCS/bh7xbYHLV7nIY+8/wB/JUngbn/5L9uHvDwNz/8AJftw94tsDlq9zkMfef7+SpPA3P8A8l+3D3h4G5/+S/bh7xbYHLV7nIY+8/38lSeBuf8A5L9uHvDwNz/8l+3D3i2wOWr3OQx95/v5Kk8Dc/8AyX7cPeHgbn/5L9uHvFtgctXuchj7z/fyVJ4G5/8Akv24e8PA3P8A8l+3D3i2wOWr3OQx95/v5Kk8Dc//ACX7cPeHgbn/AOS/bh7xbYHLV7nIY+8/38lSeBuf/kv24e8PA3P/AMl+3D3i2wOWr3OQx95/v5Kk8Dc//Jftw94eBuf/AJL9uHvFtgctXuchj7z/AH8lSeBuf/kv24e8PA3P/wAl+3D3i2wOWr3OQx95/v5Kk8Dc/wDyX7cPeHgbn/5L9uHvFtgctXuchj7z/fyVJ4G5/wDkv24e8PA3P/yX7cPeLbA5avc5DH3n+/kqTwNz/wDJftw94eBuf/kv24e8W2By1e5yGPvP9/JUngbn/wCS/bh7w8Dc/wDyX7cPeLbA5avc5DH3n+/kqTwNz/8AJftw94eBuf8A5L9uHvFtgctXuchj7z/fyVJ4G5/+S/bh7w8Dc/8AyX7cPeLbA5avc5DH3n+/kqTwNz/8l+3D3h4G5/8Akv24e8W2By1e5yGPvP8AfyVJ4G5/+S/bh7w8Dc//ACX7cPeLbA5avc5DH3n+/kqTwNz/APJftw94eBuf/kv24e8W2By1e5yGPvP9/JUngbn/AOS/bh7w8Dc//Jftw94tsDlq9zkMfef7+SpPA3P/AMl+3D3h4G5/+S/bh7xbYHLV7nIY+8/38lSeBuf/AJL9uHvDwNz/APJftw94tsDlq9zkMfef7+SpPA3P/wAl+3D3h4G5/wDkv24e8W2By1e5yGPvP9/JUngbn/5L9uHvGdPRGez5wS9Mo/ubLYBPL1TyOPvP9/JXeE6O8VP59SMfNFOXtdiT5ZpHKcs47d0vKnx9S5L1HdBZXFWPgups2OvpUABY0AAAAAAAAAAAAAAAAAAAAAAAAAAAAAAAAAAAAAAAAAAAAAAAAAAAAAAAAAAAAAAAAAAAAAAAAAAAAAAAAAAAAAAAAAAAAAAAAAAAAAAAAAAAAAAAAAAAAAAAAAAAAAAAAAAAAAAAAAAAAAAAAAAAAAAAAAAAAAAAAAAAAAAAAAAAAAAAAAAAAAAAAAAAAAAAAAAAAAAAAMNkvKfs+4bJeU/Z9xmAMNkvKfs+4bJeU/Z9xmAMNkvKfs+4bJeU/Z9xmAMNkvKfs+4bJeU/Z9xmAMNkvKfs+4bJeU/Z9xmAMNkvKfs+4bJeU/Z9xmAMNkvKfs+4bJeU/Z9xmAMNkvKfs+4bJeU/Z9xmAMNkvKfs+4bJeU/Z9xmAMNkvKfs+4bJeU/Z9xmAMNkvKfs+4bJeU/Z9xmAMNkvKfs+4bJeU/Z9xmAMNkvKfs+4bJeU/Z9xmAMNkvKfs+4bJeU/Z9xmAMNkvKfs+4bJeU/Z9xmAMNkvKfs+4bJeU/Z9xmAMNkvKfs+4bJeU/Z9xmAMNkvKfs+4bJeU/Z9xmAMNkvKfs+4bJeU/Z9xmAMNkvKfs+4bJeU/Z9xmAMNkvKfs+4bJeU/Z9xmAMNkvKfs+4bJeU/Z9xmAMNkvKfs+4bJeU/Z9xmAMNkvKfs+4bJeU/Z9xmAMNkvKfs+4bJeU/Z9xmAMNkvKfs+4bJeU/Z9xmAMNkvKfs+4bJeU/Z9xmAMNkvKfs+4bJeU/Z9xmAMNkvKfs+4bJeU/Z9xmAMNkvKfs+4bJeU/Z9xmAMNkvKfs+4bJeU/Z9xmAMNkvKfs+4bJeU/Z9xmAMNkvKfs+4bJeU/Z9xmAMNkvKfs+4bJeU/Z9xmAMNkvKfs+4bJeU/Z9xmAMNkvKfs+4bJeU/Z9xmAMNkvKfs+4bJeU/Z9xmAMNkvKfs+4bJeU/Z9xmAMNkvKfs+4bJeU/Z9xmAMNkvKfs+4bJeU/Z9xmAMNkvKfs+4bJeU/Z9xmAMNkvKfs+4bJeU/Z9xmAMNkvKfs+4bJeU/Z9xmAMNkvKfs+4bJeU/Z9xmAMNkvKfs+4bJeU/Z9xmAMNkvKfs+4bJeU/Z9xmAMNkvKfs+4bJeU/Z9xmAMNkvKfs+4bJeU/Z9xmAMNkvKfs+4bJeU/Z9xmAMNkvKfs+4bJeU/Z9xmAMNkvKfs+4bJeU/Z9xmAMNkvKfs+4bJeU/Z9xmAMNkvKfs+4bJeU/Z9xmAMNkvKfs+4bJeU/Z9xmAMNkvKfs+4bJeU/Z9xmAMNkvKfs+4bJeU/Z9xmAMNkvKfs+4bJeU/Z9xmAMNkvKfs+4bJeU/Z9xmAMNkvKfs+4bJeU/Z9xmAMNkvKfs+4bJeU/Z9xmAMNkvKfs+4bJeU/Z9xmAMNkvKfs+4bJeU/Z9xmAMNkvKfs+4bJeU/Z9xmAMNkvKfs+4bJeU/Z9xmAMNkvKfs+4bJeU/Z9xmAMNkvKfs+4bJeU/Z9xmAMNkvKfs+4bJeU/Z9xmAMNkvKfs+4GYAAAAAAAAAAAAAAAAAAAAAAAAAAAAAAAAAAAAAAAAAAAAAAAAAAAAAAAAAAAAAAAAAAAAAAAAAAAAAAAAAAAAAAAAAAAAAAAAAAAAAAAAAAAAAAAAAAAAAAAAAAAAAAAAAAAAAAAAAAAAAAAAAAAAAAAAAAAAAAAAAAAAAAAAAAAAAAAAAAAAAAAAAAAAAAAAAAAAAAAAAAAAAAAAAAAAAAAAAAAAAAAAAAAAAAAAAAAAAAAAAAAAAAAAAAAAAAAAAAAAAAAAAAAAAfPEYijhYuUpKMUrtydkl52B9AQLNOlDAUJONGDqvkpPxYt+ZWcn6kc/wAOdXy4rC+L/VVX7b2As0FeYDpRpKW2vSlB8m48bemLtJfQ2TvA4/CZlBTpyU4vti/Z5n5mBsAAAAAAAAAAAAAAAAAAAAAAAAAAAAAAAAAAAAAAAAAAAAAAAAAAAAAAAAAAAAAAAAAAAAAAAAAAAAAAAAAAAAAAAAAAAAAAAAAAAAAAAAAAAAAAAAAAAAAAAAAAAAAAAAAAAAAAAAER1zqvF6YVLq4xk6jnxndpKO3sTXPd3kuKz6XP/hv9b/7YHL+VXPfIo/Vn74+VXPfIo/Vn75BgBOflVz3yKP1Z++TLQ2q8XqdVesjGLg4cYXSalu7G3xW3vKULN6I//if9V/7gFmAAAAAAAAAAAAAAAAAAAAAAAAAAAAAMalSFFNt2STbb5JLi2VTiMRmHSTiXCDcMPB9vK3lNds5di7PW3JukrM5YHB7U+NWSj/dXGXr4L6Tm1ar0VlENnCrVtx7VKau3/ciremwHuJzvTOhPwdGn1lVcJO/FP+lUs7foxXDzHHn0r5tfhSpW7vGb9e79xApScmeAWng9Yaf1ZaniaShJ8FJu8b+afCUX7POc3GYPMejjEKdNudCbs0+T/oy7NyXzZdvrRX6LS0di1qvA1cNUd3BJRk+e1/Mfpg16rAT3AY6hmVKFSDvGaTX/AF865M2Svei7H1FGtQlzhLck+y/CS+hpessIAAAAAAAAAAAAAAAAAAAAAAAAAAAAB8MXjMNgIOU5KMVzcnZf9+YD7nJzvUeWafjepLj2QXGcvQv3uy85BdR9J053hhlZcuskuP8Adi+Xpl6kV1Xr1sVJyk3KT5yk7t+lgTHNuknOMbUTp/goJ3SSUnL9Jtexe0uQ/M6P0wAAAAAAAAAAAAAAAAAAAAAAAAAAAAAAAAAAAAAAAAAAAAAAAAAAAAAAAAAAAAAAAAAAAAAAAAAAAAAAAAAAAAAAAAAAAAAAAAAAAArPpc/+G/1v/tlmFZ9Ln/w3+t/9sCsgAALN6I//AIn/AFX/ALhWRZvRH/8AE/6r/wBwCzAAAAAAAAAAAAAAAAAAAAAAAAAAAAAFbdLSltw/dep6/Et+8w6U7ypYVr5vj+1Q2+xMkPSFlMszwcnFXlTe9d9ldS9jv9BxsBCGuMqVO/4WjZK7/GirQfolF2v337gKqB9K9CphpOMk4yTaafBprmYcACJ70URn8Kqvs6rj6XKNvsZA4xbLVyXDLQuX1KtThVqWtF872fVx9Ku5S7uPcBp6F8bNcW1821W362NiziBdF+V1KFGpWkuNV2i3zcY3u/pbfqJ6AAAAAAAAAAAAAAAAAAAAAAAAAAAApzpAy7UEa8p1Lypbn1bjxhCL5JrsfY2+fey4zyUYzTTV0+afJgfmewLd1F0a4PHXlQtTl5D+Y/R2x+jh5kVhmWVY3KJ7akHF+fk/Onya86A0kfpg/M6P0wAAAAAAAAAAAAAAAAAAAAAAAAAAAAAAAAAAAAAAAAAAAAAAAAAAAAAAAAAAAAAAAAAAAAAAAAAAAAAAAAAAAAAAAAAAAAAAAAAAAA4uotL4DUygqjktje1waT8a11xTXGy7DtACDfJVkXl1vrQ9wfJVkXl1vrQ9wnIAg3yVZF5db60PcO/p3S+A0ypqm5Pe1uc2m/FvZcElwu+w7QAAAAAAAAAAAAAAAAAAAAAAAAAAAAAAPGkyr86yTMdE4h4jDq9J/OjzUU+cZLns7n2eq9ohpMCu547R+uEnUfU1bJXbUZehTfiSXdfj5ka/yV4OXFYnxf0E/wBrdb2Ehzbo9yPM22ounJ9tPgr/AKL8X1WOC+iSnf8AjDt3dV+/f+4D60aOjNFeNv62quXFTkn5kvFj6ZcfOcvD4bNukfEKc04YeD4W5W7VHvk+2XZ6k5NlnRrkmBac91VrynaP1V9jbJhTpwopJJJLgklZJeZAY0KFLCxjGKtGKSSXYlwSPoAAAAAAAAAAAAAAAAAAAAAAAAAAAAAAADVzDLcHmsNtSCnHufZ50+afnRtACrs26LK6qJ0JrY3xVTnH6UuK9T9JaIAAAAAAAAAAAAAAAAAAAAAAAAAAAAAAAAAAAAAAAAAAAAAAAAAAAAAAAAAAAAAAAAAAAAAAAAAAAAAAAAAAAAAAAAAAAAAAAAAAAAAAAAAAAAAAAAAAAAAAAAAAAAAAAAAAAAAAAAAAAAAAAAAAAAAAAAAAAAAAAAAAAAAAAAAAAAAAAAAAAAAAAAAAAAAAAAAAAAAAAAAAAAAAAAAAAAAAAAAAAAAAAAAAAAAAAAAAAAAAAAAAAAAAAAAAAAAAAAAAAAAAAAAAAAAAAAAAAAAAAAAAAAAAAAAAAAAAAAAAAAAAAAAAAAAAAAAAAAAAAAAAAAAAAAAAAAAAAAAAAAAAAAAAAAAAAAAAAAAAAAAAAAAAAAAAAAAAAAAAAAAAAAAAAAAAAAAAAAAAAAAAAAAAAAAAAAAAAAAAAAAAAAAAAAAAAAAAAAAAAAAAAAAAAAAAAAAAAAAAAAAAAAAAAAAAAAAAAAAAAAAAAAAAAAAAAAAAAAAAAAAAAAAAAAAAAAAAAAAAAAAAAAAAAAAAAAAAAAAAAAAAAAAAAAAAAAAAAAAAAAAAAAAAAAAAAAAAAAAAAAAAAAAAAAAAAAAAAAf/2Q==;" vertex="1" parent="1">
          <mxGeometry x="2360" y="150" width="290.77" height="630" as="geometry" />
        </mxCell>
      </root>
    </mxGraphModel>
  </diagram>
</mxfile>
